#N canvas 181 248 935 622 10;
#X obj 30 136 triag-x-tanh~;
#X floatatom 30 31 5 0 0 0 - - -;
#X obj 30 50 (~);
#X floatatom 90 31 5 0 0 0 - - -;
#X obj 90 50 (~);
#X floatatom 130 31 5 0 0 0 - - -;
#X obj 130 50 (~);
#X obj 708 75 adc~ 7;
#X obj 758 513 delwrite~ \$0-d1 100;
#X obj 288 473 vd~ \$0-d1;
#X obj 288 495 (*);
#X floatatom 337 552 5 0 0 0 - - -;
#X obj 378 473 vd~ \$0-d1;
#X obj 378 495 (*);
#X obj 478 473 vd~ \$0-d1;
#X obj 478 495 (*);
#X obj 578 473 vd~ \$0-d1;
#X obj 578 495 (*);
#X floatatom 427 552 5 0 0 0 - - -;
#X floatatom 534 552 5 0 0 0 - - -;
#X floatatom 624 552 5 0 0 0 - - -;
#X obj 281 648 expr~ tanh($v1);
#X obj 170 136 triag-x-tanh~;
#X floatatom 170 31 5 0 0 0 - - -;
#X obj 170 50 (~);
#X floatatom 230 31 5 0 0 0 - - -;
#X obj 230 50 (~);
#X floatatom 270 31 5 0 0 0 - - -;
#X obj 270 50 (~);
#X obj 320 136 triag-x-tanh~;
#X floatatom 320 31 5 0 0 0 - - -;
#X obj 320 50 (~);
#X floatatom 380 31 5 0 0 0 - - -;
#X obj 380 50 (~);
#X floatatom 420 31 5 0 0 0 - - -;
#X obj 420 50 (~);
#X obj 460 136 triag-x-tanh~;
#X floatatom 460 31 5 0 0 0 - - -;
#X obj 460 50 (~);
#X floatatom 520 31 5 0 0 0 - - -;
#X obj 520 50 (~);
#X floatatom 560 31 5 0 0 0 - - -;
#X obj 560 50 (~);
#X obj 290 358 +~;
#X obj 390 358 +~;
#X obj 490 358 +~;
#X obj 200 358 +~;
#X floatatom -176 134 5 0 0 0 - - -;
#X obj -176 153 (~);
#X floatatom -116 134 5 0 0 0 - - -;
#X obj -116 153 (~);
#X floatatom -76 134 5 0 0 0 - - -;
#X obj -76 153 (~);
#X obj -176 305 osc~;
#X obj -176 327 expr~ tanh($v1);
#X obj -176 351 (*);
#X obj -176 373 (+);
#X floatatom -43 352 5 0 0 0 - - -;
#X floatatom 7 352 5 0 0 0 - - -;
#X obj -176 239 triag-x~;
#X obj 733 599 expr~ tanh($v1*$v1)*20;
#X obj 733 619 expr~ tanh($v1)*0.5;
#X obj 733 641 panorama x x x x x x x x x;
#X floatatom 860 365 5 0 0 0 - - -;
#X obj 860 384 (~);
#X floatatom 900 365 5 0 0 0 - - -;
#X obj 900 384 (~);
#X floatatom 940 365 5 0 0 0 - - -;
#X obj 940 384 (~);
#X obj 734 671 dac~ 3 4;
#X obj 1040 384 sig~ 0;
#X obj -68 837 dac~ 1 2;
#X obj -77 751 panorama x x x x x x x x x;
#X floatatom 50 475 5 0 0 0 - - -;
#X obj 50 494 (~);
#X floatatom 90 475 5 0 0 0 - - -;
#X obj 90 494 (~);
#X floatatom 130 475 5 0 0 0 - - -;
#X obj 130 494 (~);
#X obj 93 735 sig~ 0;
#X obj 281 681 lop~;
#X floatatom 365 683 5 0 0 0 - - -;
#X obj 959 688 (~);
#X floatatom 980 605 5 0 0 0 - - -;
#X obj 980 624 (~);
#X floatatom 1020 605 5 0 0 0 - - -;
#X obj 1020 624 (~);
#X obj 948 756 dac~ 5;
#X floatatom 629 721 0 0 0 0 - - -;
#X obj 629 777 exp;
#X obj 629 751 * 0.05776;
#X obj 948 734 mth~;
#X connect 0 0 46 1;
#X connect 1 0 2 0;
#X connect 2 0 0 0;
#X connect 3 0 4 0;
#X connect 4 0 0 1;
#X connect 5 0 6 0;
#X connect 6 0 0 2;
#X connect 7 0 8 0;
#X connect 7 0 60 0;
#X connect 7 0 91 0;
#X connect 9 0 10 0;
#X connect 9 0 21 0;
#X connect 10 0 8 0;
#X connect 11 0 10 1;
#X connect 12 0 13 0;
#X connect 12 0 21 0;
#X connect 13 0 8 0;
#X connect 14 0 15 0;
#X connect 14 0 21 0;
#X connect 15 0 8 0;
#X connect 16 0 17 0;
#X connect 16 0 21 0;
#X connect 17 0 8 0;
#X connect 18 0 13 1;
#X connect 19 0 15 1;
#X connect 20 0 17 1;
#X connect 21 0 80 0;
#X connect 22 0 43 1;
#X connect 23 0 24 0;
#X connect 24 0 22 0;
#X connect 25 0 26 0;
#X connect 26 0 22 1;
#X connect 27 0 28 0;
#X connect 28 0 22 2;
#X connect 29 0 44 1;
#X connect 30 0 31 0;
#X connect 31 0 29 0;
#X connect 32 0 33 0;
#X connect 33 0 29 1;
#X connect 34 0 35 0;
#X connect 35 0 29 2;
#X connect 36 0 45 1;
#X connect 37 0 38 0;
#X connect 38 0 36 0;
#X connect 39 0 40 0;
#X connect 40 0 36 1;
#X connect 41 0 42 0;
#X connect 42 0 36 2;
#X connect 43 0 12 0;
#X connect 43 0 44 0;
#X connect 44 0 14 0;
#X connect 44 0 45 0;
#X connect 45 0 16 0;
#X connect 46 0 9 0;
#X connect 46 0 43 0;
#X connect 47 0 48 0;
#X connect 48 0 59 0;
#X connect 49 0 50 0;
#X connect 50 0 59 1;
#X connect 51 0 52 0;
#X connect 52 0 59 2;
#X connect 53 0 54 0;
#X connect 54 0 55 0;
#X connect 55 0 56 0;
#X connect 56 0 46 0;
#X connect 57 0 55 1;
#X connect 58 0 56 1;
#X connect 59 0 53 0;
#X connect 59 0 46 0;
#X connect 60 0 61 0;
#X connect 61 0 62 0;
#X connect 61 0 62 1;
#X connect 62 0 69 0;
#X connect 62 1 69 1;
#X connect 63 0 64 0;
#X connect 64 0 62 2;
#X connect 65 0 66 0;
#X connect 66 0 62 3;
#X connect 67 0 68 0;
#X connect 68 0 62 4;
#X connect 68 0 62 5;
#X connect 70 0 62 6;
#X connect 70 0 62 7;
#X connect 72 0 71 0;
#X connect 72 1 71 1;
#X connect 73 0 74 0;
#X connect 74 0 72 2;
#X connect 75 0 76 0;
#X connect 76 0 72 3;
#X connect 77 0 78 0;
#X connect 78 0 72 4;
#X connect 78 0 72 5;
#X connect 79 0 72 6;
#X connect 79 0 72 7;
#X connect 80 0 72 0;
#X connect 80 0 72 1;
#X connect 81 0 80 1;
#X connect 82 0 91 1;
#X connect 83 0 84 0;
#X connect 84 0 91 2;
#X connect 85 0 86 0;
#X connect 86 0 91 3;
#X connect 88 0 90 0;
#X connect 89 0 82 0;
#X connect 90 0 89 0;
#X connect 91 0 87 0;
