#N canvas 396 63 691 898 10;
#X obj 219 294 osc~;
#X obj 423 286 noise~;
#X obj 220 252 (~);
#X obj 263 268 +~;
#X obj 263 295 osc~;
#X obj 423 308 vcf~;
#X obj 423 330 vcf~;
#X obj 423 352 vcf~;
#X obj 423 374 vcf~;
#X floatatom 444 233 5 0 0 0 - - -;
#X obj 433 205 (~);
#X floatatom 488 97 5 0 0 0 - - -;
#X obj 423 396 (*);
#X floatatom 536 382 5 0 0 0 - - -;
#X floatatom 236 174 5 0 0 0 - - -;
#X obj 219 552 dac~ 1;
#X obj 220 389 expr~ tanh($v1+$v2);
#X obj 423 418 (+);
#X floatatom 536 404 5 0 0 0 - - -;
#X obj 242 766 adc~ 7;
#X obj 170 468 vd~ test;
#X obj 242 787 delwrite~ test 19999;
#X connect 0 0 16 0;
#X connect 1 0 5 0;
#X connect 2 0 0 0;
#X connect 2 0 3 0;
#X connect 3 0 4 0;
#X connect 4 0 16 1;
#X connect 5 0 6 0;
#X connect 6 0 7 0;
#X connect 7 0 8 0;
#X connect 8 0 12 0;
#X connect 9 0 5 2;
#X connect 9 0 6 2;
#X connect 9 0 7 2;
#X connect 9 0 8 2;
#X connect 10 0 5 1;
#X connect 10 0 6 1;
#X connect 10 0 7 1;
#X connect 10 0 8 1;
#X connect 11 0 10 0;
#X connect 12 0 17 0;
#X connect 13 0 12 1;
#X connect 14 0 2 0;
#X connect 16 0 20 0;
#X connect 17 0 3 1;
#X connect 18 0 17 1;
#X connect 19 0 21 0;
#X connect 20 0 15 0;
