#N canvas 60 149 1033 875 10;
#X obj 354 439 osc-tanh-x~;
#X obj 302 346 (*);
#X obj 302 376 (+);
#X floatatom 359 362 5 0 0 0 - - -;
#X floatatom 359 332 5 0 0 0 - - -;
#X obj 102 143 vd~ \$0-fb1;
#X floatatom 39 36 5 0 0 0 - - -;
#X obj 39 55 (~);
#X obj 39 127 (*);
#X floatatom 97 113 5 0 0 0 - - -;
#X obj 613 752 dac~ 1;
#X floatatom 417 385 5 0 0 0 - - -;
#X obj 417 404 (~);
#X floatatom 422 567 5 0 0 0 - - -;
#X obj 338 581 (*);
#X obj 338 553 vcf~;
#X obj 387 524 tgl 15 0 empty empty empty 17 7 0 10 -262144 -1 -1 0
1;
#X obj 354 461 delwrite~ \$0-fb1 1000;
#X obj 39 75 triag-x-tanh~;
#X floatatom 77 36 5 0 0 0 - - -;
#X obj 77 55 (~);
#X floatatom 115 36 5 0 0 0 - - -;
#X obj 115 55 (~);
#X connect 0 0 15 0;
#X connect 0 0 17 0;
#X connect 1 0 2 0;
#X connect 2 0 0 0;
#X connect 2 0 15 1;
#X connect 3 0 2 1;
#X connect 4 0 1 1;
#X connect 5 0 1 0;
#X connect 6 0 7 0;
#X connect 7 0 18 0;
#X connect 8 0 5 0;
#X connect 9 0 8 1;
#X connect 11 0 12 0;
#X connect 12 0 0 1;
#X connect 13 0 14 1;
#X connect 14 0 10 0;
#X connect 15 0 14 0;
#X connect 16 0 15 2;
#X connect 18 0 8 0;
#X connect 19 0 20 0;
#X connect 20 0 18 1;
#X connect 21 0 22 0;
#X connect 22 0 18 2;
