#N canvas 0 50 1280 970 10;
#X obj 354 439 osc-tanh-x~;
#X obj 302 346 (*);
#X obj 302 376 (+);
#X floatatom 359 362 5 0 0 0 - - -;
#X floatatom 359 332 5 0 0 0 - - -;
#X obj 102 143 vd~ \$0-fb1;
#X floatatom 39 36 5 0 0 0 - - -;
#X obj 39 55 (~);
#X obj 39 127 (*);
#X floatatom 97 113 5 0 0 0 - - -;
#X floatatom 417 385 5 0 0 0 - - -;
#X obj 417 404 (~);
#X floatatom 422 567 5 0 0 0 - - -;
#X obj 338 581 (*);
#X obj 338 553 vcf~;
#X obj 387 524 tgl 15 0 empty empty empty 17 7 0 10 -262144 -1 -1 1
1;
#X obj 354 461 delwrite~ \$0-fb1 1000;
#X obj 39 75 triag-x-tanh~;
#X floatatom 77 36 5 0 0 0 - - -;
#X obj 77 55 (~);
#X floatatom 115 36 5 0 0 0 - - -;
#X obj 115 55 (~);
#X obj 594 439 osc-tanh-x~;
#X obj 542 346 (*);
#X obj 542 376 (+);
#X floatatom 599 362 5 0 0 0 - - -;
#X floatatom 599 332 5 0 0 0 - - -;
#X floatatom 657 385 5 0 0 0 - - -;
#X obj 657 404 (~);
#X obj 594 461 delwrite~ \$0-fb2 1000;
#X obj 200 179 vd~ \$0-fb2;
#X obj 199 143 (*);
#X floatatom 257 129 5 0 0 0 - - -;
#X floatatom 652 567 5 0 0 0 - - -;
#X obj 568 581 (*);
#X obj 568 553 vcf~;
#X obj 617 524 tgl 15 0 empty empty empty 17 7 0 10 -262144 -1 -1 1
1;
#X obj 591 497 *~;
#X obj 472 666 expr~ ( tanh($v1) );
#X obj 473 707 *~;
#X obj 1279 606;
#X obj 1279 628;
#X obj 683 732 panorama -------;
#X obj 692 866 dac~ 1 2;
#X floatatom 782 476 5 0 0 0 - - -;
#X obj 782 495 (~);
#X floatatom 820 476 5 0 0 0 - - -;
#X obj 820 495 (~);
#X floatatom 858 476 5 0 0 0 - - -;
#X obj 858 495 (~);
#X floatatom 902 476 5 0 0 0 - - -;
#X obj 902 495 (~);
#X floatatom 940 476 5 0 0 0 - - -;
#X obj 940 495 (~);
#X floatatom 978 476 5 0 0 0 - - -;
#X obj 978 495 (~);
#X obj 923 732 panorama -------;
#X floatatom 1022 476 5 0 0 0 - - -;
#X obj 1022 495 (~);
#X floatatom 1060 476 5 0 0 0 - - -;
#X obj 1060 495 (~);
#X floatatom 1098 476 5 0 0 0 - - -;
#X obj 1098 495 (~);
#X floatatom 1142 476 5 0 0 0 - - -;
#X obj 1142 495 (~);
#X floatatom 1180 476 5 0 0 0 - - -;
#X obj 1180 495 (~);
#X floatatom 1218 476 5 0 0 0 - - -;
#X obj 1218 495 (~);
#X connect 0 0 14 0;
#X connect 0 0 16 0;
#X connect 1 0 2 0;
#X connect 2 0 0 0;
#X connect 2 0 14 1;
#X connect 3 0 2 1;
#X connect 4 0 1 1;
#X connect 5 0 1 0;
#X connect 6 0 7 0;
#X connect 7 0 17 0;
#X connect 8 0 5 0;
#X connect 8 0 31 0;
#X connect 9 0 8 1;
#X connect 10 0 11 0;
#X connect 11 0 0 1;
#X connect 12 0 13 1;
#X connect 13 0 37 0;
#X connect 13 0 38 0;
#X connect 14 0 13 0;
#X connect 15 0 14 2;
#X connect 17 0 8 0;
#X connect 17 0 39 1;
#X connect 18 0 19 0;
#X connect 19 0 17 1;
#X connect 20 0 21 0;
#X connect 21 0 17 2;
#X connect 22 0 29 0;
#X connect 22 0 37 1;
#X connect 23 0 24 0;
#X connect 24 0 22 0;
#X connect 24 0 35 1;
#X connect 25 0 24 1;
#X connect 26 0 23 1;
#X connect 27 0 28 0;
#X connect 28 0 22 1;
#X connect 30 0 23 0;
#X connect 31 0 30 0;
#X connect 32 0 31 1;
#X connect 33 0 34 1;
#X connect 34 0 38 0;
#X connect 35 0 34 0;
#X connect 36 0 35 2;
#X connect 37 0 35 0;
#X connect 38 0 39 0;
#X connect 38 0 56 0;
#X connect 39 0 42 0;
#X connect 40 0 41 0;
#X connect 42 0 43 0;
#X connect 42 1 43 1;
#X connect 44 0 45 0;
#X connect 45 0 42 1;
#X connect 46 0 47 0;
#X connect 47 0 42 2;
#X connect 48 0 49 0;
#X connect 49 0 42 3;
#X connect 50 0 51 0;
#X connect 51 0 42 4;
#X connect 52 0 53 0;
#X connect 53 0 42 5;
#X connect 54 0 55 0;
#X connect 55 0 42 6;
#X connect 56 0 43 0;
#X connect 56 1 43 1;
#X connect 57 0 58 0;
#X connect 58 0 56 1;
#X connect 59 0 60 0;
#X connect 60 0 56 2;
#X connect 61 0 62 0;
#X connect 62 0 56 3;
#X connect 63 0 64 0;
#X connect 64 0 56 4;
#X connect 65 0 66 0;
#X connect 66 0 56 5;
#X connect 67 0 68 0;
#X connect 68 0 56 6;
