#N canvas 0 104 1173 811 10;
#X obj 218 386 *~;
#X obj 338 403 *~;
#X obj 267 389 *~;
#X obj 305 392 *~;
#X obj 28 183 lop~;
#X obj 27 212 -~;
#X obj 27 291 *~;
#X obj 16 316 +~;
#X obj 75 183 lop~;
#X obj 76 212 -~;
#X obj 77 291 *~;
#X obj 67 316 +~;
#X obj 124 183 lop~;
#X obj 124 212 -~;
#X obj 125 291 *~;
#X obj 116 317 +~;
#X obj 176 183 lop~;
#X obj 175 212 -~;
#X obj 175 291 *~;
#X obj 168 317 +~;
#X obj 15 372 *~;
#X obj 169 383 *~;
#X obj 67 376 *~;
#X obj 115 380 *~;
#X obj 527 408 *~;
#X obj 628 409 *~;
#X obj 556 408 *~;
#X obj 599 409 *~;
#X obj 381 404 *~;
#X obj 483 408 *~;
#X obj 414 405 *~;
#X obj 454 408 *~;
#X obj 25 346 inlet~;
#X obj 87 346 inlet~;
#X obj 69 440 +~;
#X obj 105 440 -~;
#X obj 141 440 +~;
#X obj 177 440 -~;
#X obj 214 440 +~;
#X obj 250 440 -~;
#X obj 286 440 +~;
#X obj 322 440 -~;
#X obj 359 440 +~;
#X obj 395 440 -~;
#X obj 431 440 +~;
#X obj 467 440 -~;
#X obj 504 440 +~;
#X obj 540 440 -~;
#X obj 576 440 +~;
#X obj 612 440 -~;
#X obj 69 474 +~;
#X obj 177 474 -~;
#X obj 105 474 +~;
#X obj 141 474 -~;
#X obj 214 474 +~;
#X obj 322 474 -~;
#X obj 250 474 +~;
#X obj 286 474 -~;
#X obj 359 474 +~;
#X obj 467 474 -~;
#X obj 395 474 +~;
#X obj 431 474 -~;
#X obj 504 474 +~;
#X obj 612 474 -~;
#X obj 540 474 +~;
#X obj 576 474 -~;
#X obj 69 518 +~;
#X obj 105 518 +~;
#X obj 322 518 -~;
#X obj 286 518 -~;
#X obj 141 518 +~;
#X obj 177 518 +~;
#X obj 214 518 -~;
#X obj 250 518 -~;
#X obj 360 518 +~;
#X obj 396 518 +~;
#X obj 613 518 -~;
#X obj 577 518 -~;
#X obj 432 518 +~;
#X obj 468 518 +~;
#X obj 505 518 -~;
#X obj 541 518 -~;
#X obj 70 575 +~;
#X obj 106 575 +~;
#X obj 469 575 -~;
#X obj 433 575 -~;
#X obj 142 575 +~;
#X obj 178 575 +~;
#X obj 361 575 -~;
#X obj 397 575 -~;
#X obj 215 575 +~;
#X obj 251 575 +~;
#X obj 287 575 +~;
#X obj 323 575 +~;
#X obj 614 575 -~;
#X obj 578 575 -~;
#X obj 506 575 -~;
#X obj 542 575 -~;
#X obj 830 606 outlet~;
#X obj 900 606 outlet~;
#X obj 970 607 outlet~;
#X obj 1040 607 outlet~;
#X obj 614 629 delwrite~ \$0-del16 500;
#X obj 361 776 delwrite~ \$0-del9 500;
#X obj 398 755 delwrite~ \$0-del10 500;
#X obj 434 734 delwrite~ \$0-del11 500;
#X obj 470 713 delwrite~ \$0-del12 500;
#X obj 506 692 delwrite~ \$0-del13 500;
#X obj 542 671 delwrite~ \$0-del14 500;
#X obj 579 650 delwrite~ \$0-del15 500;
#X obj 323 606 delwrite~ \$0-del8 500;
#X obj 287 628 delwrite~ \$0-del7 500;
#X obj 252 650 delwrite~ \$0-del6 500;
#X obj 215 672 delwrite~ \$0-del5 500;
#X obj 71 761 delwrite~ \$0-del1 500;
#X obj 106 737 delwrite~ \$0-del2 500;
#X obj 141 715 delwrite~ \$0-del3 500;
#X obj 179 693 delwrite~ \$0-del4 500;
#X obj 948 301 inlet~;
#X obj 850 276 inlet~;
#X obj 786 167 inlet;
#X obj 17 -155 vd~ \$0-del1;
#X obj 67 -115 vd~ \$0-del2;
#X obj 117 -75 vd~ \$0-del3;
#X obj 167 -35 vd~ \$0-del4;
#X obj 217 5 vd~ \$0-del5;
#X obj 267 45 vd~ \$0-del6;
#X obj 317 85 vd~ \$0-del7;
#X obj 367 125 vd~ \$0-del8;
#X obj 417 -155 vd~ \$0-del9;
#X obj 467 -115 vd~ \$0-del10;
#X obj 517 -75 vd~ \$0-del11;
#X obj 567 -35 vd~ \$0-del12;
#X obj 617 5 vd~ \$0-del13;
#X obj 667 45 vd~ \$0-del14;
#X obj 717 85 vd~ \$0-del15;
#X obj 767 125 vd~ \$0-del16;
#N canvas 0 0 450 300 (subpatch) 0;
#X array \$0-r16 15 float 3;
#A 0 93.75 125 156.25 242.188 304.688 316.406 281.25 250 230.469 402.344
503.906 160.156 140.625 140.625 437.5;
#X coords 0 500 15 0 486 128 1;
#X restore 693 427 graph;
#X obj 67 -303 + 1;
#X obj 17 -303 + 1;
#X obj 117 -303 + 1;
#X obj 167 -303 + 1;
#X obj 267 -303 + 1;
#X obj 217 -303 + 1;
#X obj 317 -303 + 1;
#X obj 367 -303 + 1;
#X obj 467 -303 + 1;
#X obj 417 -303 + 1;
#X obj 517 -303 + 1;
#X obj 567 -303 + 1;
#X obj 667 -303 + 1;
#X obj 617 -303 + 1;
#X obj 717 -303 + 1;
#X obj 767 -303 + 1;
#X msg 1052 338 bang;
#X obj 1052 364 - 1;
#X obj 1134 343 bang~;
#X obj 767 19 tabread \$0-r16;
#X obj 717 -21 tabread \$0-r16;
#X obj 667 -61 tabread \$0-r16;
#X obj 617 -101 tabread \$0-r16;
#X obj 567 -141 tabread \$0-r16;
#X obj 517 -181 tabread \$0-r16;
#X obj 467 -221 tabread \$0-r16;
#X obj 17 -261 tabread \$0-r16;
#X obj 67 -221 tabread \$0-r16;
#X obj 417 -261 tabread \$0-r16;
#X obj 117 -181 tabread \$0-r16;
#X obj 167 -141 tabread \$0-r16;
#X obj 217 -101 tabread \$0-r16;
#X obj 267 -61 tabread \$0-r16;
#X obj 317 -21 tabread \$0-r16;
#X obj 367 19 tabread \$0-r16;
#X obj 67 -200 #~;
#X obj 17 -240 #~;
#X obj 117 -160 #~;
#X obj 167 -120 #~;
#X obj 217 -80 #~;
#X obj 267 -40 #~;
#X obj 317 0 #~;
#X obj 367 40 #~;
#X obj 417 -240 #~;
#X obj 467 -200 #~;
#X obj 517 -160 #~;
#X obj 567 -120 #~;
#X obj 617 -80 #~;
#X obj 667 -40 #~;
#X obj 717 0 #~;
#X obj 767 40 #~;
#X obj 1078 108 (*);
#X floatatom 1121 94 5 0 0 0 - - -;
#X obj 1078 68 (*);
#X floatatom 1121 54 5 0 0 0 - - -;
#X obj 1078 28 (*);
#X floatatom 1121 14 5 0 0 0 - - -;
#X obj 1078 -12 (*);
#X floatatom 1121 -26 5 0 0 0 - - -;
#X obj 1078 -52 (*);
#X floatatom 1121 -66 5 0 0 0 - - -;
#X obj 1078 -92 (*);
#X floatatom 1121 -106 5 0 0 0 - - -;
#X obj 1078 -132 (*);
#X floatatom 1121 -146 5 0 0 0 - - -;
#X obj 1078 -172 (*);
#X floatatom 1121 -186 5 0 0 0 - - -;
#X obj 978 108 (*);
#X floatatom 1021 94 5 0 0 0 - - -;
#X obj 978 68 (*);
#X floatatom 1021 54 5 0 0 0 - - -;
#X obj 978 28 (*);
#X floatatom 1021 14 5 0 0 0 - - -;
#X obj 978 -12 (*);
#X floatatom 1021 -26 5 0 0 0 - - -;
#X obj 978 -52 (*);
#X floatatom 1021 -66 5 0 0 0 - - -;
#X obj 978 -92 (*);
#X floatatom 1021 -106 5 0 0 0 - - -;
#X obj 978 -132 (*);
#X floatatom 1021 -146 5 0 0 0 - - -;
#X obj 978 -172 (*);
#X floatatom 1021 -186 5 0 0 0 - - -;
#X obj 776 -245 uorg/ug/tanhoscx~;
#X floatatom 911 -278 5 0 0 0 - - -;
#X obj 911 -260 #~;
#X floatatom 951 -278 5 0 0 0 - - -;
#X obj 951 -260 #~;
#X connect 0 0 38 0;
#X connect 0 0 39 0;
#X connect 1 0 40 1;
#X connect 1 0 41 1;
#X connect 2 0 38 1;
#X connect 2 0 39 1;
#X connect 3 0 40 0;
#X connect 3 0 41 0;
#X connect 4 0 5 0;
#X connect 5 0 6 0;
#X connect 6 0 7 1;
#X connect 7 0 20 0;
#X connect 8 0 9 0;
#X connect 9 0 10 0;
#X connect 10 0 11 1;
#X connect 11 0 22 0;
#X connect 12 0 13 0;
#X connect 13 0 14 0;
#X connect 14 0 15 1;
#X connect 15 0 23 0;
#X connect 16 0 17 0;
#X connect 17 0 18 0;
#X connect 18 0 19 1;
#X connect 19 0 21 0;
#X connect 20 0 34 0;
#X connect 20 0 35 0;
#X connect 21 0 36 1;
#X connect 21 0 37 1;
#X connect 22 0 35 1;
#X connect 22 0 34 1;
#X connect 23 0 36 0;
#X connect 23 0 37 0;
#X connect 24 0 46 0;
#X connect 24 0 47 0;
#X connect 25 0 48 1;
#X connect 25 0 49 1;
#X connect 26 0 46 1;
#X connect 26 0 47 1;
#X connect 27 0 48 0;
#X connect 27 0 49 0;
#X connect 28 0 42 0;
#X connect 28 0 43 0;
#X connect 29 0 44 1;
#X connect 29 0 45 1;
#X connect 30 0 42 1;
#X connect 30 0 43 1;
#X connect 31 0 44 0;
#X connect 31 0 45 0;
#X connect 32 0 20 0;
#X connect 33 0 22 0;
#X connect 34 0 50 0;
#X connect 34 0 53 0;
#X connect 35 0 52 0;
#X connect 35 0 51 0;
#X connect 36 0 50 1;
#X connect 36 0 53 1;
#X connect 37 0 52 1;
#X connect 37 0 51 1;
#X connect 38 0 54 0;
#X connect 38 0 57 0;
#X connect 39 0 56 0;
#X connect 39 0 55 0;
#X connect 40 0 54 1;
#X connect 40 0 57 1;
#X connect 41 0 56 1;
#X connect 41 0 55 1;
#X connect 42 0 58 0;
#X connect 42 0 61 0;
#X connect 43 0 60 0;
#X connect 43 0 59 0;
#X connect 44 0 58 1;
#X connect 44 0 61 1;
#X connect 45 0 60 1;
#X connect 45 0 59 1;
#X connect 46 0 62 0;
#X connect 46 0 65 0;
#X connect 47 0 64 0;
#X connect 47 0 63 0;
#X connect 48 0 62 1;
#X connect 48 0 65 1;
#X connect 49 0 64 1;
#X connect 49 0 63 1;
#X connect 50 0 66 0;
#X connect 50 0 72 0;
#X connect 51 0 71 0;
#X connect 51 0 68 0;
#X connect 52 0 67 0;
#X connect 52 0 73 0;
#X connect 53 0 70 0;
#X connect 53 0 69 0;
#X connect 54 0 66 1;
#X connect 54 0 72 1;
#X connect 55 0 71 1;
#X connect 55 0 68 1;
#X connect 56 0 67 1;
#X connect 56 0 73 1;
#X connect 57 0 70 1;
#X connect 57 0 69 1;
#X connect 58 0 74 0;
#X connect 58 0 80 0;
#X connect 59 0 79 0;
#X connect 59 0 76 0;
#X connect 60 0 75 0;
#X connect 60 0 81 0;
#X connect 61 0 78 0;
#X connect 61 0 77 0;
#X connect 62 0 74 1;
#X connect 62 0 80 1;
#X connect 63 0 79 1;
#X connect 63 0 76 1;
#X connect 64 0 75 1;
#X connect 64 0 81 1;
#X connect 65 0 78 1;
#X connect 65 0 77 1;
#X connect 66 0 82 0;
#X connect 66 0 88 0;
#X connect 67 0 83 0;
#X connect 67 0 89 0;
#X connect 68 0 93 0;
#X connect 68 0 94 0;
#X connect 69 0 92 0;
#X connect 69 0 95 0;
#X connect 70 0 86 0;
#X connect 70 0 85 0;
#X connect 71 0 87 0;
#X connect 71 0 84 0;
#X connect 72 0 90 0;
#X connect 72 0 96 0;
#X connect 73 0 91 0;
#X connect 73 0 97 0;
#X connect 74 0 88 1;
#X connect 74 0 82 1;
#X connect 75 0 89 1;
#X connect 75 0 83 1;
#X connect 76 0 94 1;
#X connect 76 0 93 1;
#X connect 77 0 95 1;
#X connect 77 0 92 1;
#X connect 78 0 85 1;
#X connect 78 0 86 1;
#X connect 79 0 84 1;
#X connect 79 0 87 1;
#X connect 80 0 96 1;
#X connect 80 0 90 1;
#X connect 81 0 97 1;
#X connect 81 0 91 1;
#X connect 82 0 114 0;
#X connect 83 0 115 0;
#X connect 84 0 106 0;
#X connect 85 0 105 0;
#X connect 86 0 116 0;
#X connect 87 0 117 0;
#X connect 88 0 103 0;
#X connect 89 0 104 0;
#X connect 90 0 113 0;
#X connect 91 0 112 0;
#X connect 92 0 111 0;
#X connect 93 0 110 0;
#X connect 94 0 101 0;
#X connect 94 0 102 0;
#X connect 95 0 100 0;
#X connect 95 0 109 0;
#X connect 96 0 98 0;
#X connect 96 0 107 0;
#X connect 97 0 99 0;
#X connect 97 0 108 0;
#X connect 118 0 2 1;
#X connect 118 0 0 1;
#X connect 118 0 3 1;
#X connect 118 0 1 1;
#X connect 118 0 21 1;
#X connect 118 0 23 1;
#X connect 118 0 22 1;
#X connect 118 0 20 1;
#X connect 118 0 28 1;
#X connect 118 0 31 1;
#X connect 118 0 29 1;
#X connect 118 0 24 1;
#X connect 118 0 26 1;
#X connect 118 0 27 1;
#X connect 118 0 25 1;
#X connect 118 0 30 1;
#X connect 119 0 18 1;
#X connect 119 0 14 1;
#X connect 119 0 10 1;
#X connect 119 0 6 1;
#X connect 120 0 16 1;
#X connect 120 0 12 1;
#X connect 120 0 8 1;
#X connect 120 0 4 1;
#X connect 121 0 4 0;
#X connect 121 0 5 1;
#X connect 121 0 7 0;
#X connect 122 0 8 0;
#X connect 122 0 9 1;
#X connect 122 0 11 0;
#X connect 123 0 15 0;
#X connect 123 0 12 0;
#X connect 123 0 13 1;
#X connect 124 0 19 0;
#X connect 124 0 17 1;
#X connect 124 0 16 0;
#X connect 125 0 0 0;
#X connect 126 0 2 0;
#X connect 127 0 3 0;
#X connect 128 0 1 0;
#X connect 129 0 28 0;
#X connect 130 0 30 0;
#X connect 131 0 31 0;
#X connect 132 0 29 0;
#X connect 133 0 24 0;
#X connect 134 0 26 0;
#X connect 135 0 27 0;
#X connect 136 0 25 0;
#X connect 138 0 140 0;
#X connect 138 0 165 0;
#X connect 139 0 138 0;
#X connect 139 0 164 0;
#X connect 140 0 141 0;
#X connect 140 0 167 0;
#X connect 141 0 143 0;
#X connect 141 0 168 0;
#X connect 142 0 144 0;
#X connect 142 0 170 0;
#X connect 143 0 142 0;
#X connect 143 0 169 0;
#X connect 144 0 145 0;
#X connect 144 0 171 0;
#X connect 145 0 147 0;
#X connect 145 0 172 0;
#X connect 146 0 148 0;
#X connect 147 0 146 0;
#X connect 147 0 166 0;
#X connect 148 0 149 0;
#X connect 148 0 162 0;
#X connect 149 0 151 0;
#X connect 149 0 161 0;
#X connect 150 0 152 0;
#X connect 150 0 159 0;
#X connect 151 0 150 0;
#X connect 151 0 160 0;
#X connect 152 0 153 0;
#X connect 152 0 158 0;
#X connect 153 0 157 0;
#X connect 154 0 155 0;
#X connect 155 0 139 0;
#X connect 156 0 155 0;
#X connect 157 0 188 0;
#X connect 158 0 187 0;
#X connect 159 0 186 0;
#X connect 160 0 185 0;
#X connect 161 0 184 0;
#X connect 162 0 183 0;
#X connect 163 0 182 0;
#X connect 164 0 174 0;
#X connect 165 0 173 0;
#X connect 166 0 181 0;
#X connect 167 0 175 0;
#X connect 168 0 176 0;
#X connect 169 0 177 0;
#X connect 170 0 178 0;
#X connect 171 0 179 0;
#X connect 172 0 180 0;
#X connect 173 0 122 0;
#X connect 174 0 121 0;
#X connect 175 0 123 0;
#X connect 176 0 124 0;
#X connect 177 0 125 0;
#X connect 178 0 126 0;
#X connect 179 0 127 0;
#X connect 180 0 128 0;
#X connect 181 0 129 0;
#X connect 182 0 130 0;
#X connect 183 0 131 0;
#X connect 184 0 132 0;
#X connect 185 0 133 0;
#X connect 186 0 134 0;
#X connect 187 0 135 0;
#X connect 188 0 136 0;
#X connect 189 0 136 0;
#X connect 190 0 189 1;
#X connect 191 0 135 0;
#X connect 192 0 191 1;
#X connect 193 0 134 0;
#X connect 194 0 193 1;
#X connect 195 0 133 0;
#X connect 196 0 195 1;
#X connect 197 0 132 0;
#X connect 198 0 197 1;
#X connect 199 0 131 0;
#X connect 200 0 199 1;
#X connect 201 0 130 0;
#X connect 202 0 201 1;
#X connect 203 0 129 0;
#X connect 204 0 203 1;
#X connect 205 0 128 0;
#X connect 206 0 205 1;
#X connect 207 0 127 0;
#X connect 208 0 207 1;
#X connect 209 0 126 0;
#X connect 210 0 209 1;
#X connect 211 0 125 0;
#X connect 212 0 211 1;
#X connect 213 0 124 0;
#X connect 214 0 213 1;
#X connect 215 0 123 0;
#X connect 216 0 215 1;
#X connect 217 0 122 0;
#X connect 218 0 217 1;
#X connect 219 0 121 0;
#X connect 220 0 219 1;
#X connect 221 0 189 0;
#X connect 221 0 205 0;
#X connect 221 0 207 0;
#X connect 221 0 219 0;
#X connect 221 0 217 0;
#X connect 221 0 215 0;
#X connect 221 0 213 0;
#X connect 221 0 211 0;
#X connect 221 0 209 0;
#X connect 221 0 203 0;
#X connect 221 0 201 0;
#X connect 221 0 199 0;
#X connect 221 0 197 0;
#X connect 221 0 195 0;
#X connect 221 0 193 0;
#X connect 221 0 191 0;
#X connect 222 0 223 0;
#X connect 223 0 221 0;
#X connect 224 0 225 0;
#X connect 225 0 221 2;
