#N canvas 283 206 1072 667 10;
#X obj 134 555 dac~ 8;
#X floatatom -113 43 5 0 0 0 - - -;
#X obj -113 62 (~);
#X obj 134 471 expr~ ( tanh($v1) );
#X obj 134 419 rzero~;
#X obj 134 441 rpole~;
#X obj 192 425 *~ -1;
#X obj 192 403 osc-tanh-x~;
#X obj -54 159 osc-tanh-x~;
#X obj -53 78 osc~;
#X obj 256 264 (*);
#X floatatom 256 155 5 0 0 0 - - -;
#X obj 256 174 (~);
#X obj 256 193 osc-tanh-x~;
#X floatatom 318 155 5 0 0 0 - - -;
#X obj 318 174 (~);
#X obj -54 201 *~;
#X floatatom 271 245 5 0 0 0 - - -;
#X obj -54 122 triag-x~;
#X floatatom 26 87 5 0 0 0 - - -;
#X obj 26 106 (~);
#X floatatom 66 87 5 0 0 0 - - -;
#X obj 66 106 (~);
#X obj 279 527 delwrite~ \$0-dl0 10000;
#X obj 427 455 vd~ \$0-dl0;
#X floatatom 517 412 5 0 0 0 - - -;
#X obj 427 477 (*);
#X floatatom 517 463 5 0 0 0 - - -;
#X obj 427 426 (+);
#X obj 428 353 triag-x~;
#X obj 428 375 expr~ ( tanh($v1) );
#X floatatom 537 318 5 0 0 0 - - -;
#X obj 537 337 (~);
#X floatatom 577 318 5 0 0 0 - - -;
#X obj 577 337 (~);
#X obj 134 493 lop~;
#X floatatom 42 476 0 0 0 0 - - -;
#X msg 32 426 220;
#X msg 62 426 2200;
#X connect 1 0 2 0;
#X connect 2 0 9 0;
#X connect 2 0 16 1;
#X connect 3 0 23 0;
#X connect 3 0 35 0;
#X connect 4 0 5 0;
#X connect 5 0 3 0;
#X connect 6 0 5 1;
#X connect 7 0 4 1;
#X connect 7 0 6 0;
#X connect 8 0 16 0;
#X connect 9 0 4 0;
#X connect 9 0 8 1;
#X connect 9 0 18 0;
#X connect 10 0 7 1;
#X connect 11 0 12 0;
#X connect 12 0 13 0;
#X connect 13 0 10 0;
#X connect 13 0 29 0;
#X connect 14 0 15 0;
#X connect 15 0 13 1;
#X connect 16 0 7 0;
#X connect 17 0 10 1;
#X connect 18 0 8 0;
#X connect 19 0 20 0;
#X connect 20 0 18 1;
#X connect 21 0 22 0;
#X connect 22 0 18 2;
#X connect 24 0 26 0;
#X connect 25 0 28 1;
#X connect 26 0 23 0;
#X connect 26 0 3 0;
#X connect 27 0 26 1;
#X connect 28 0 24 0;
#X connect 29 0 30 0;
#X connect 30 0 28 0;
#X connect 31 0 32 0;
#X connect 32 0 29 1;
#X connect 33 0 34 0;
#X connect 34 0 29 2;
#X connect 35 0 0 0;
#X connect 36 0 35 1;
#X connect 37 0 36 0;
#X connect 38 0 36 0;
