#N canvas 0 50 1280 970 10;
#X obj 134 625 dac~ 8;
#X obj 134 494 expr~ ( tanh($v1) );
#X obj 134 419 rzero~;
#X obj 134 441 rpole~;
#X obj 192 425 *~ -1;
#X obj 192 403 osc-tanh-x~;
#X obj -54 345 osc-tanh-x~;
#X obj 256 362 (*);
#X obj 256 311 osc-tanh-x~;
#X obj -54 387 *~;
#X floatatom 211 348 5 0 0 0 - - -;
#X obj -54 308 triag-x~;
#X floatatom 26 273 5 0 0 0 - - -;
#X obj 26 292 (~);
#X floatatom 66 273 5 0 0 0 - - -;
#X obj 66 292 (~);
#X obj 255 510 delwrite~ \$0-dl0 10000;
#X obj 357 455 vd~ \$0-dl0;
#X floatatom 677 412 5 0 0 0 - - -;
#X obj 358 426 (+);
#X obj 358 327 triag-x~;
#X obj 358 349 expr~ ( tanh($v1) );
#X floatatom 467 292 5 0 0 0 - - -;
#X obj 467 311 (~);
#X floatatom 507 292 5 0 0 0 - - -;
#X obj 507 311 (~);
#X obj 134 563 lop~;
#X floatatom 42 546 0 0 0 0 - - -;
#X msg -8 496 220;
#X msg 22 496 2200;
#X floatatom 677 371 5 0 0 0 - - -;
#X obj 488 343 triag-x~;
#X floatatom 597 308 5 0 0 0 - - -;
#X obj 597 327 (~);
#X floatatom 637 308 5 0 0 0 - - -;
#X obj 637 327 (~);
#X obj 487 385 (*);
#X obj 358 401 *~;
#X floatatom 177 276 5 0 0 0 - - -;
#X obj 177 295 (~);
#X floatatom 217 276 5 0 0 0 - - -;
#X obj 217 295 (~);
#X obj 146 90 phasor~;
#X floatatom 237 92 5 0 0 0 - - -;
#X obj 146 69 phasor~;
#X floatatom 237 71 5 0 0 0 - - -;
#X obj 67 85 (*);
#X obj 67 106 (*);
#X floatatom -3 39 5 0 0 0 - - -;
#X obj 117 53 (~);
#X floatatom -3 60 5 0 0 0 - - -;
#X obj 117 74 (~);
#X floatatom -93 0 5 0 0 0 - - -;
#X obj -93 79 (~);
#X obj -93 101 *~;
#X obj -93 123 +~;
#X obj -54 135 noise~;
#X obj -53 254 *~ 10;
#X obj -93 19 mtof;
#X obj -53 164 vcf~ 32;
#X obj -53 184 vcf~ 16;
#X obj -53 204 vcf~ 8;
#X obj -53 226 vcf~ 4;
#X floatatom -93 41 0 0 0 0 - - -;
#X floatatom 487 463 5 0 0 0 - - -;
#X obj 357 477 (*);
#X msg 62 496 22000;
#X connect 1 0 16 0;
#X connect 1 0 26 0;
#X connect 2 0 3 0;
#X connect 3 0 1 0;
#X connect 4 0 3 1;
#X connect 5 0 2 1;
#X connect 5 0 4 0;
#X connect 6 0 9 0;
#X connect 7 0 5 1;
#X connect 8 0 7 0;
#X connect 8 0 20 0;
#X connect 9 0 5 0;
#X connect 10 0 7 1;
#X connect 11 0 6 0;
#X connect 12 0 13 0;
#X connect 13 0 11 1;
#X connect 14 0 15 0;
#X connect 15 0 11 2;
#X connect 17 0 65 0;
#X connect 18 0 19 1;
#X connect 19 0 17 0;
#X connect 20 0 21 0;
#X connect 20 0 31 0;
#X connect 21 0 37 0;
#X connect 22 0 23 0;
#X connect 23 0 20 1;
#X connect 24 0 25 0;
#X connect 25 0 20 2;
#X connect 26 0 0 0;
#X connect 27 0 26 1;
#X connect 28 0 27 0;
#X connect 29 0 27 0;
#X connect 30 0 36 1;
#X connect 31 0 36 0;
#X connect 32 0 33 0;
#X connect 33 0 31 1;
#X connect 34 0 35 0;
#X connect 35 0 31 2;
#X connect 36 0 37 1;
#X connect 37 0 19 0;
#X connect 38 0 39 0;
#X connect 39 0 8 0;
#X connect 40 0 41 0;
#X connect 41 0 8 1;
#X connect 42 0 47 0;
#X connect 43 0 47 1;
#X connect 44 0 46 0;
#X connect 45 0 46 1;
#X connect 46 0 54 1;
#X connect 47 0 55 1;
#X connect 48 0 49 0;
#X connect 49 0 44 0;
#X connect 50 0 51 0;
#X connect 51 0 42 0;
#X connect 52 0 58 0;
#X connect 53 0 54 0;
#X connect 54 0 55 0;
#X connect 55 0 9 1;
#X connect 55 0 59 1;
#X connect 55 0 60 1;
#X connect 55 0 61 1;
#X connect 55 0 62 1;
#X connect 56 0 59 0;
#X connect 57 0 2 0;
#X connect 57 0 6 1;
#X connect 57 0 11 0;
#X connect 58 0 63 0;
#X connect 59 0 60 0;
#X connect 60 0 61 0;
#X connect 61 0 62 0;
#X connect 62 0 57 0;
#X connect 63 0 53 0;
#X connect 64 0 65 1;
#X connect 65 0 1 0;
#X connect 66 0 27 0;
