#N canvas 92 143 1073 871 10;
#X obj 209 207 uorg/r16~;
#X obj 99 106 pmpd~;
#X floatatom 635 137 5 0 0 0 - - -;
#X obj 635 155 pack 0 30;
#X obj 635 177 vline~;
#X floatatom 704 137 5 0 0 0 - - -;
#X obj 704 155 pack 0 30;
#X obj 704 177 vline~;
#X floatatom 251 139 5 0 0 0 - - -;
#X obj 460 44 vcf~;
#X floatatom 523 30 5 0 0 0 - - -;
#X floatatom 406 -228 5 0 0 0 - - -;
#X obj 406 -210 pack 0 30;
#X obj 406 -188 vline~;
#X floatatom 561 -189 5 0 0 0 - - -;
#X obj 561 -171 pack 0 30;
#X obj 561 -149 vline~;
#X obj 469 -63 *~;
#X floatatom 561 -119 5 0 0 0 - - -;
#X obj 561 -101 pack 0 30;
#X obj 561 -79 vline~;
#X obj 469 7 +~;
#X obj 414 -124 phasor~;
#X floatatom 286 -228 5 0 0 0 - - -;
#X obj 286 -210 pack 0 30;
#X obj 286 -188 vline~;
#X obj 294 -124 phasor~;
#X obj 186 303 dac~ 1 2 3 4 5;
#X connect 0 0 27 0;
#X connect 0 1 27 1;
#X connect 0 2 27 2;
#X connect 0 3 27 3;
#X connect 2 0 3 0;
#X connect 3 0 4 0;
#X connect 4 0 0 3;
#X connect 5 0 6 0;
#X connect 6 0 7 0;
#X connect 7 0 0 4;
#X connect 8 0 0 2;
#X connect 9 0 0 0;
#X connect 10 0 9 2;
#X connect 11 0 12 0;
#X connect 12 0 13 0;
#X connect 13 0 22 0;
#X connect 14 0 15 0;
#X connect 15 0 16 0;
#X connect 16 0 17 1;
#X connect 17 0 21 0;
#X connect 18 0 19 0;
#X connect 19 0 20 0;
#X connect 20 0 21 1;
#X connect 21 0 9 1;
#X connect 22 0 17 0;
#X connect 23 0 24 0;
#X connect 24 0 25 0;
#X connect 25 0 26 0;
#X connect 26 0 9 0;
