#N canvas 30 239 596 493 10;
#X floatatom 139 153 5 0 0 0 - - -;
#X obj 139 171 #~;
#X floatatom 332 153 5 0 0 0 - - -;
#X obj 332 171 #~;
#X obj 332 213 *~;
#X obj 139 213 *~;
#X text 362 214 a_2;
#X text 438 193 R_pole;
#X text 172 214 a_1;
#X text 248 193 b_1;
#X obj 79 253 *~;
#X floatatom 95 153 5 0 0 0 - - -;
#X obj 95 171 #~;
#X text 18 153 R_zero = 1;
#X msg 95 98 1;
#X obj 95 52 loadbang;
#X obj 172 335 czero~;
#X obj 302 305 cpole~;
#X obj 172 305 czero~;
#X obj 302 335 cpole~;
#X obj 212 436 dac~ 1;
#X obj 414 234 sig~ 0;
#X obj 95 192 *~;
#X obj 250 227 noise~;
#X obj 268 386 /~ 4;
#X obj 139 192 expr~ -2*cos($v1);
#X obj 332 192 expr~ 1 - $v1/2;
#X connect 0 0 1 0;
#X connect 1 0 25 0;
#X connect 2 0 3 0;
#X connect 3 0 26 0;
#X connect 4 0 19 2;
#X connect 5 0 17 2;
#X connect 10 0 18 2;
#X connect 11 0 12 0;
#X connect 12 0 10 1;
#X connect 12 0 22 0;
#X connect 12 0 22 1;
#X connect 14 0 11 0;
#X connect 15 0 14 0;
#X connect 16 0 17 0;
#X connect 17 0 19 0;
#X connect 17 1 19 1;
#X connect 18 0 16 0;
#X connect 18 1 16 1;
#X connect 19 0 24 0;
#X connect 21 0 18 3;
#X connect 21 0 16 3;
#X connect 21 0 17 3;
#X connect 21 0 19 3;
#X connect 22 0 16 2;
#X connect 23 0 18 0;
#X connect 25 0 5 0;
#X connect 25 0 10 0;
#X connect 26 0 4 0;
#X connect 26 0 4 1;
#X connect 26 0 5 1;
