#N canvas 0 50 1280 970 10;
#X obj 671 251 expr~ 1/abs($v1);
#X obj 671 273 vd~ \$0-x;
#X obj 537 265 phasor~;
#X obj 671 481 dac~ 1;
#X obj 896 97 (~);
#X obj 896 119 osc-tanh-x~;
#X obj 671 295 *~;
#X floatatom 896 78 5 0 0 0 - - -;
#X obj 958 97 (~);
#X floatatom 958 78 5 0 0 0 - - -;
#X floatatom 538 194 5 0 0 0 - - -;
#X obj 538 213 (~);
#X obj 538 235 *~;
#X obj 671 317 osc-tanh-x~;
#X obj 968 301 (~);
#X floatatom 968 282 5 0 0 0 - - -;
#X obj 671 393 osc-tanh-x~;
#X obj 968 377 (~);
#X floatatom 968 358 5 0 0 0 - - -;
#X obj 537 289 delwrite~ \$0-x 10000;
#X obj 671 339 *~;
#X obj 671 371 +~;
#X obj -29 191 t a;
#X obj 66 -211 bng 15 250 50 0 empty empty empty 0 -6 0 8 -262144 -1
-1;
#X msg 231 180 forceX 2 1;
#X obj 66 -185 t b b b b b;
#X text 91 -212 <- create the network;
#X msg 113 34 link 0 2 0.5 0.001;
#X msg 114 55 link 0 3 0.3 0.001;
#X msg 134 102 mass 10 1;
#X msg 135 128 mass 10 1;
#X text 227 103 M \, X0;
#X text 244 34 mass1 \, mass2 \, K \, D;
#X text 213 -54 outlet \, mass \, amplitude;
#X text 180 -133 inlet \, mass \, amplitude;
#X msg 133 77 mass 10 1;
#X msg 153 156 reset \, mass 0 0;
#X msg 111 -31 outPos 2 3 1;
#X msg 65 -131 inForce 1 2 1;
#X msg 66 -106 inForce 2 3 1;
#X msg 94 -51 outPos 1 2 1;
#X msg 65 -154 inForce 0 1 1;
#X msg 87 -73 outPos 0 1 3;
#X text 144 14 mass1 \, mass2 \, K \, D \, Pow \, L0 \, Lmin \, Lmax
;
#X msg 108 -4 NLlink 0 1 0.1 0.001 1.1 0 -10 10;
#X obj -29 361 pmpd~ 0 2;
#X connect 0 0 1 0;
#X connect 1 0 6 0;
#X connect 1 0 19 0;
#X connect 2 0 19 0;
#X connect 4 0 5 0;
#X connect 5 0 6 1;
#X connect 5 0 12 1;
#X connect 6 0 13 0;
#X connect 7 0 4 0;
#X connect 8 0 5 1;
#X connect 9 0 8 0;
#X connect 10 0 11 0;
#X connect 11 0 12 0;
#X connect 12 0 0 0;
#X connect 12 0 2 0;
#X connect 13 0 20 0;
#X connect 14 0 13 1;
#X connect 15 0 14 0;
#X connect 16 0 3 0;
#X connect 17 0 16 1;
#X connect 18 0 17 0;
#X connect 20 0 21 0;
#X connect 21 0 16 0;
#X connect 22 0 45 0;
#X connect 23 0 25 0;
#X connect 24 0 22 0;
#X connect 25 0 41 0;
#X connect 25 0 38 0;
#X connect 25 0 39 0;
#X connect 25 1 42 0;
#X connect 25 1 40 0;
#X connect 25 1 37 0;
#X connect 25 2 27 0;
#X connect 25 2 28 0;
#X connect 25 2 44 0;
#X connect 25 3 35 0;
#X connect 25 3 29 0;
#X connect 25 3 30 0;
#X connect 25 4 36 0;
#X connect 27 0 22 0;
#X connect 28 0 22 0;
#X connect 29 0 22 0;
#X connect 30 0 22 0;
#X connect 35 0 22 0;
#X connect 36 0 22 0;
#X connect 37 0 22 0;
#X connect 38 0 22 0;
#X connect 39 0 22 0;
#X connect 40 0 22 0;
#X connect 41 0 22 0;
#X connect 42 0 22 0;
#X connect 44 0 22 0;
#X connect 45 0 20 1;
#X connect 45 1 21 1;
