#N canvas -17 496 886 538 10;
#X obj 514 112 mth~ - - - -;
#X obj 514 182 mth~ - - - -;
#X obj 394 52 osc-tanh-x~;
#X obj 514 144 dac~ 6;
#X obj 514 204 dac~ 7;
#X floatatom 675 139 5 0 0 0 - - -;
#X obj 675 158 (~);
#X floatatom 713 139 5 0 0 0 - - -;
#X obj 713 158 (~);
#X floatatom 675 59 5 0 0 0 - - -;
#X obj 675 78 (~);
#X floatatom 713 59 5 0 0 0 - - -;
#X obj 713 78 (~);
#X floatatom 547 -3 0 0 0 0 - - -;
#X obj 547 36 (~);
#X floatatom 587 17 5 0 0 0 - - -;
#X obj 587 36 (~);
#X obj 394 74 (*);
#X floatatom 511 85 5 0 0 0 - - -;
#X floatatom 39 36 5 0 0 0 - - -;
#X obj 39 55 (~);
#X obj 39 127 (*);
#X floatatom 97 113 5 0 0 0 - - -;
#X obj 39 75 triag-x-tanh~;
#X floatatom 77 36 5 0 0 0 - - -;
#X obj 77 55 (~);
#X floatatom 115 36 5 0 0 0 - - -;
#X obj 115 55 (~);
#X floatatom 39 186 5 0 0 0 - - -;
#X obj 39 205 (~);
#X obj 39 277 (*);
#X floatatom 97 263 5 0 0 0 - - -;
#X obj 39 225 triag-x-tanh~;
#X floatatom 77 186 5 0 0 0 - - -;
#X obj 77 205 (~);
#X floatatom 115 186 5 0 0 0 - - -;
#X obj 115 205 (~);
#X connect 0 0 3 0;
#X connect 0 0 1 0;
#X connect 1 0 4 0;
#X connect 2 0 17 0;
#X connect 5 0 6 0;
#X connect 6 0 1 2;
#X connect 7 0 8 0;
#X connect 8 0 1 3;
#X connect 9 0 10 0;
#X connect 10 0 0 2;
#X connect 11 0 12 0;
#X connect 12 0 0 3;
#X connect 13 0 14 0;
#X connect 14 0 2 0;
#X connect 15 0 16 0;
#X connect 16 0 2 1;
#X connect 17 0 0 0;
#X connect 18 0 17 1;
#X connect 19 0 20 0;
#X connect 20 0 23 0;
#X connect 21 0 0 1;
#X connect 22 0 21 1;
#X connect 23 0 21 0;
#X connect 24 0 25 0;
#X connect 25 0 23 1;
#X connect 26 0 27 0;
#X connect 27 0 23 2;
#X connect 28 0 29 0;
#X connect 29 0 32 0;
#X connect 30 0 1 1;
#X connect 31 0 30 1;
#X connect 32 0 30 0;
#X connect 33 0 34 0;
#X connect 34 0 32 1;
#X connect 35 0 36 0;
#X connect 36 0 32 2;
