#N canvas -144 584 1068 690 10;
#X obj 210 92 vnoise73~;
#X floatatom 585 -151 5 0 0 0 - - -;
#X floatatom 783 -212 5 0 0 0 - - -;
#X obj 193 214 *~;
#X floatatom 786 -132 5 0 0 0 - - -;
#X obj 194 253 osc~;
#X floatatom 419 0 5 0 0 0 - - ampl-1;
#X floatatom 474 0 5 0 0 0 - - ampl-2;
#X obj 248 45 r ampl-1;
#X obj 268 67 r ampl-2;
#X obj 229 -128 r tab-freq;
#X obj 210 -156 r noise-band;
#X obj 585 -121 s tab-freq;
#X obj 783 -185 s noise-band;
#X obj 786 -94 s mod-freq;
#X obj 93 197 r mod-freq;
#X obj 266 -65 r table-ampl;
#X floatatom 645 -151 5 0 0 0 - - table-ampl;
#X floatatom 829 32 5 0 0 0 - - -;
#X floatatom 829 216 5 0 0 0 - - -;
#X obj 829 163 snapshot~;
#X obj 997 131 tgl 15 0 empty togle-jump2 empty 17 7 0 10 -262144 -1
-1 1 1;
#X obj 966 99 * 1000;
#X obj 908 146 metro 100;
#X obj 966 46 /;
#X msg 942 46 1;
#X floatatom 845 257 5 0 0 0 - - -;
#X floatatom 845 307 5 0 0 0 - - -;
#X obj 829 279 +;
#X obj 350 -134 r tab-phase-1;
#X obj 843 52 r tab-phase-2;
#X obj 229 -103 tabosc4~ tab-jump1;
#X obj 829 69 tabosc4~ tab-jump2;
#X obj 829 329 * 1;
#X obj 370 358 outlet~;
#X obj 278 358 outlet~;
#X obj 734 -215 p50;
#X obj 61 411 r2~;
#X obj 61 358 tgl 15 0 empty empty empty 17 7 0 10 -262144 -1 -1 0
1;
#N canvas -9 430 999 684 controls 1;
#X obj 185 93 outlet;
#X obj 345 93 outlet;
#X obj 422 178 outlet;
#X obj 492 178 outlet;
#X obj 185 78 nbx 5 14 -1e+37 1e+37 0 0 empty empty noise_volume-ampl-1
0 -8 0 10 -262144 -1 -1 97 256;
#X obj 345 78 nbx 5 14 -1e+37 1e+37 0 0 empty empty noise_volume-ampl-2
0 -8 0 10 -262144 -1 -1 243 256;
#X msg 40 66 \; tab-phase-1 0;
#X msg 40 106 \; tab-phase-2 0;
#X obj 422 163 nbx 5 14 -1e+37 1e+37 0 0 empty empty add-jump2 0 -8
0 10 -262144 -1 -1 72 256;
#X obj 492 163 nbx 5 14 -1e+37 1e+37 0 0 empty empty mult-jump2 0 -8
0 10 -262144 -1 -1 66 256;
#X msg 421 93 \; togle-jump2 bang;
#X obj 595 93 outlet;
#X obj 685 93 outlet;
#X obj 595 78 nbx 5 14 -1e+37 1e+37 0 0 empty empty noise-band 0 -8
0 10 -262144 -1 -1 199 256;
#X obj 685 78 nbx 5 14 -1e+37 1e+37 0 0 empty empty tab-freq 0 -8 0
10 -262144 -1 -1 9 256;
#X obj 39 10 table tab-jump2 4099;
#X obj 39 -17 table tab-jump1 4099;
#N canvas 0 0 999 684 tab-resizer 0;
#X obj 538 270 pow;
#X floatatom 554 231 5 0 16 0 - - -;
#X obj 538 287 + 3;
#X msg 538 245 2;
#X floatatom 538 309 9 0 0 0 - - -;
#X obj 378 270 pow;
#X floatatom 394 231 5 0 16 0 - - -;
#X obj 378 287 + 3;
#X msg 378 245 2;
#X floatatom 378 309 9 0 0 0 - - -;
#X msg 538 343 \; tab-jump2 resize \$1;
#X msg 378 343 \; tab-jump1 resize \$1;
#X connect 0 0 2 0;
#X connect 1 0 0 1;
#X connect 1 0 3 0;
#X connect 2 0 4 0;
#X connect 3 0 0 0;
#X connect 4 0 10 0;
#X connect 5 0 7 0;
#X connect 6 0 5 1;
#X connect 6 0 8 0;
#X connect 7 0 9 0;
#X connect 8 0 5 0;
#X connect 9 0 11 0;
#X restore 39 -42 pd tab-resizer;
#X obj 755 93 outlet;
#X obj 755 78 nbx 5 14 -1e+37 1e+37 0 0 empty empty mod-freq 0 -8 0
10 -262144 -1 -1 -18 256;
#X obj 562 178 outlet;
#X obj 562 163 nbx 5 14 -1e+37 1e+37 0 0 empty empty freq-jump2 0 -8
0 10 -262144 -1 -1 42 256;
#X connect 4 0 0 0;
#X connect 5 0 1 0;
#X connect 8 0 2 0;
#X connect 9 0 3 0;
#X connect 13 0 11 0;
#X connect 14 0 12 0;
#X connect 19 0 18 0;
#X connect 21 0 20 0;
#X restore 572 162 pd controls;
#X obj 734 -135 p50;
#X obj 554 -165 p50;
#X obj 230 -48 *~ 1;
#X connect 0 0 3 1;
#X connect 0 0 35 0;
#X connect 0 0 37 1;
#X connect 0 0 37 2;
#X connect 0 1 34 0;
#X connect 0 1 35 0;
#X connect 0 1 37 1;
#X connect 0 1 37 2;
#X connect 1 0 12 0;
#X connect 2 0 13 0;
#X connect 3 0 5 0;
#X connect 4 0 14 0;
#X connect 5 0 34 0;
#X connect 8 0 0 2;
#X connect 9 0 0 3;
#X connect 10 0 31 0;
#X connect 11 0 0 0;
#X connect 15 0 3 0;
#X connect 16 0 42 1;
#X connect 18 0 24 1;
#X connect 18 0 25 0;
#X connect 18 0 32 0;
#X connect 19 0 28 0;
#X connect 20 0 19 0;
#X connect 21 0 23 0;
#X connect 22 0 23 1;
#X connect 23 0 20 0;
#X connect 24 0 22 0;
#X connect 25 0 24 0;
#X connect 26 0 28 1;
#X connect 27 0 33 1;
#X connect 28 0 33 0;
#X connect 29 0 31 1;
#X connect 30 0 32 1;
#X connect 31 0 42 0;
#X connect 32 0 20 0;
#X connect 33 0 17 0;
#X connect 36 0 2 0;
#X connect 38 0 37 0;
#X connect 39 0 6 0;
#X connect 39 1 7 0;
#X connect 39 2 27 0;
#X connect 39 3 26 0;
#X connect 39 4 18 0;
#X connect 39 5 36 0;
#X connect 39 6 41 0;
#X connect 39 7 40 0;
#X connect 40 0 4 0;
#X connect 41 0 1 0;
#X connect 42 0 0 1;
