#N canvas 45 2 1008 230 10;
#X obj -18 24 dac-writesf-8~;
#X obj 226 -83 inlet~;
#N canvas 0 0 999 684 filt-chan-N 0;
#X obj 160 -1 inlet~;
#X obj 159 262 outlet~;
#X obj 160 91 hip~;
#X obj 160 144 lop~;
#X obj 183 114 p50;
#X floatatom 183 131 9 0 0 0 - - -;
#X obj 318 46 hsl 512 15 10.02 30060.1 1 0 empty empty empty -2 -8
0 10 -262144 -1 -1 0 1;
#X obj 319 99 hsl 512 15 10.02 30060.1 1 0 empty empty empty -2 -8
0 10 -262144 -1 -1 51100 1;
#X obj 315 32 nbx 5 14 0 40000 0 0 empty empty empty 0 -8 0 10 -262144
-1 -1 0 256;
#X obj 287 -16 nbx 5 14 0.04 40000 1 0 empty empty empty 0 -8 0 10
-262144 -1 -1 0.04 1024;
#X obj 316 85 nbx 5 14 0 40000 0 0 empty empty empty 0 -8 0 10 -262144
-1 -1 0 256;
#X obj 183 61 p50;
#X floatatom 183 78 9 0 0 0 - - -;
#X obj 199 97 r fil-chan-N-lof;
#X obj 199 44 r fil-chan-N-hif;
#X connect 0 0 2 0;
#X connect 2 0 3 0;
#X connect 3 0 1 0;
#X connect 4 0 5 0;
#X connect 5 0 3 1;
#X connect 6 0 11 0;
#X connect 7 0 4 0;
#X connect 8 0 6 0;
#X connect 9 0 8 0;
#X connect 9 0 10 0;
#X connect 10 0 7 0;
#X connect 11 0 12 0;
#X connect 12 0 2 1;
#X connect 13 0 4 0;
#X connect 14 0 11 1;
#X restore 227 -51 pd filt-chan-N;
#X obj 308 -28 nbx 5 14 0 9 0 0 empty init-set-ONE empty 0 -8 0 10
-262144 -1 -1 0 256;
#N canvas 431 130 450 300 ramp-clip-chan-N 0;
#X obj 159 100 inlet~;
#X obj 159 200 outlet~;
#X obj 160 154 clip~ -1 1;
#X obj 225 123 * -1;
#X floatatom 225 140 5 0 0 0 - - -;
#X floatatom 225 109 5 0 0 0 - - -;
#X obj 225 81 inlet;
#X obj 176 121 p50;
#X obj 160 137 *~;
#X obj 176 62 inlet;
#X connect 0 0 8 0;
#X connect 2 0 1 0;
#X connect 3 0 4 0;
#X connect 4 0 2 1;
#X connect 5 0 3 0;
#X connect 5 0 2 2;
#X connect 6 0 5 0;
#X connect 7 0 8 1;
#X connect 8 0 2 0;
#X connect 9 0 7 0;
#X restore 227 -14 pd ramp-clip-chan-N;
#X obj 140 -184 hsl 100 16 -2 20 0 1 empty init-set-NIL empty -2 -8
0 10 -1 -258699 -1 900 1;
#X obj 121 -31 +;
#X obj 121 -166 vsl 36 128 1e-16 1 0 0 empty empty empty 0 -9 0 10
-1 -250685 -44926 1600 1;
#X floatatom 157 -14 9 0 0 0 - - -;
#X obj 121 -198 nbx 9 14 1e-16 1 1 0 empty empty empty 0 -8 0 10 -262144
-1 -1 1e-16 100;
#X obj 226 8 +~;
#N canvas 301 99 450 300 mxr-msg 0;
#X obj 2 -143 loadbang;
#X msg 2 -87 \; init-set-NIL-chan-N 0;
#X msg 2 -47 \; init-set-ONE-chan-N 1;
#X connect 0 0 1 0;
#X connect 0 0 2 0;
#X restore -17 -3 pd mxr-msg;
#X obj 476 -83 inlet~;
#N canvas 0 0 999 684 filt-chan-N 0;
#X obj 160 -1 inlet~;
#X obj 159 262 outlet~;
#X obj 160 91 hip~;
#X obj 160 144 lop~;
#X obj 183 114 p50;
#X floatatom 183 131 9 0 0 0 - - -;
#X obj 318 46 hsl 512 15 10.02 30060.1 1 0 empty empty empty -2 -8
0 10 -262144 -1 -1 0 1;
#X obj 319 99 hsl 512 15 10.02 30060.1 1 0 empty empty empty -2 -8
0 10 -262144 -1 -1 51100 1;
#X obj 315 32 nbx 5 14 0 40000 0 0 empty empty empty 0 -8 0 10 -262144
-1 -1 0 256;
#X obj 287 -16 nbx 5 14 0.04 40000 1 0 empty empty empty 0 -8 0 10
-262144 -1 -1 0.04 1024;
#X obj 316 85 nbx 5 14 0 40000 0 0 empty empty empty 0 -8 0 10 -262144
-1 -1 0 256;
#X obj 183 61 p50;
#X floatatom 183 78 9 0 0 0 - - -;
#X obj 199 97 r fil-chan-N-lof;
#X obj 199 44 r fil-chan-N-hif;
#X connect 0 0 2 0;
#X connect 2 0 3 0;
#X connect 3 0 1 0;
#X connect 4 0 5 0;
#X connect 5 0 3 1;
#X connect 6 0 11 0;
#X connect 7 0 4 0;
#X connect 8 0 6 0;
#X connect 9 0 8 0;
#X connect 9 0 10 0;
#X connect 10 0 7 0;
#X connect 11 0 12 0;
#X connect 12 0 2 1;
#X connect 13 0 4 0;
#X connect 14 0 11 1;
#X restore 477 -51 pd filt-chan-N;
#X obj 558 -28 nbx 5 14 0 9 0 0 empty init-set-ONE empty 0 -8 0 10
-262144 -1 -1 0 256;
#N canvas 431 130 450 300 ramp-clip-chan-N 0;
#X obj 159 100 inlet~;
#X obj 159 200 outlet~;
#X obj 160 154 clip~ -1 1;
#X obj 225 123 * -1;
#X floatatom 225 140 5 0 0 0 - - -;
#X floatatom 225 109 5 0 0 0 - - -;
#X obj 225 81 inlet;
#X obj 176 121 p50;
#X obj 160 137 *~;
#X obj 176 62 inlet;
#X connect 0 0 8 0;
#X connect 2 0 1 0;
#X connect 3 0 4 0;
#X connect 4 0 2 1;
#X connect 5 0 3 0;
#X connect 5 0 2 2;
#X connect 6 0 5 0;
#X connect 7 0 8 1;
#X connect 8 0 2 0;
#X connect 9 0 7 0;
#X restore 477 -14 pd ramp-clip-chan-N;
#X obj 390 -184 hsl 100 16 -2 20 0 1 empty init-set-NIL empty -2 -8
0 10 -1 -258699 -1 900 1;
#X obj 371 -31 +;
#X obj 371 -166 vsl 36 128 1e-16 1 0 0 empty empty empty 0 -9 0 10
-1 -250685 -44926 1800 1;
#X floatatom 407 -14 9 0 0 0 - - -;
#X obj 371 -198 nbx 9 14 1e-16 1 1 0 empty empty empty 0 -8 0 10 -262144
-1 -1 1e-16 100;
#X obj 476 8 +~;
#X obj 726 -83 inlet~;
#N canvas 0 0 999 684 filt-chan-N 0;
#X obj 160 -1 inlet~;
#X obj 159 262 outlet~;
#X obj 160 91 hip~;
#X obj 160 144 lop~;
#X obj 183 114 p50;
#X floatatom 183 131 9 0 0 0 - - -;
#X obj 318 46 hsl 512 15 10.02 30060.1 1 0 empty empty empty -2 -8
0 10 -262144 -1 -1 0 1;
#X obj 319 99 hsl 512 15 10.02 30060.1 1 0 empty empty empty -2 -8
0 10 -262144 -1 -1 51100 1;
#X obj 315 32 nbx 5 14 0 40000 0 0 empty empty empty 0 -8 0 10 -262144
-1 -1 0 256;
#X obj 287 -16 nbx 5 14 0.04 40000 1 0 empty empty empty 0 -8 0 10
-262144 -1 -1 0.04 1024;
#X obj 316 85 nbx 5 14 0 40000 0 0 empty empty empty 0 -8 0 10 -262144
-1 -1 0 256;
#X obj 183 61 p50;
#X floatatom 183 78 9 0 0 0 - - -;
#X obj 199 97 r fil-chan-N-lof;
#X obj 199 44 r fil-chan-N-hif;
#X connect 0 0 2 0;
#X connect 2 0 3 0;
#X connect 3 0 1 0;
#X connect 4 0 5 0;
#X connect 5 0 3 1;
#X connect 6 0 11 0;
#X connect 7 0 4 0;
#X connect 8 0 6 0;
#X connect 9 0 8 0;
#X connect 9 0 10 0;
#X connect 10 0 7 0;
#X connect 11 0 12 0;
#X connect 12 0 2 1;
#X connect 13 0 4 0;
#X connect 14 0 11 1;
#X restore 727 -51 pd filt-chan-N;
#X obj 808 -28 nbx 5 14 0 9 0 0 empty init-set-ONE empty 0 -8 0 10
-262144 -1 -1 0 256;
#N canvas 431 130 450 300 ramp-clip-chan-N 0;
#X obj 159 100 inlet~;
#X obj 159 200 outlet~;
#X obj 160 154 clip~ -1 1;
#X obj 225 123 * -1;
#X floatatom 225 140 5 0 0 0 - - -;
#X floatatom 225 109 5 0 0 0 - - -;
#X obj 225 81 inlet;
#X obj 176 121 p50;
#X obj 160 137 *~;
#X obj 176 62 inlet;
#X connect 0 0 8 0;
#X connect 2 0 1 0;
#X connect 3 0 4 0;
#X connect 4 0 2 1;
#X connect 5 0 3 0;
#X connect 5 0 2 2;
#X connect 6 0 5 0;
#X connect 7 0 8 1;
#X connect 8 0 2 0;
#X connect 9 0 7 0;
#X restore 727 -14 pd ramp-clip-chan-N;
#X obj 640 -184 hsl 100 16 -2 20 0 1 empty init-set-NIL empty -2 -8
0 10 -1 -258699 -1 900 1;
#X obj 621 -31 +;
#X obj 621 -166 vsl 36 128 1e-16 1 0 0 empty empty empty 0 -9 0 10
-1 -250685 -44926 0 1;
#X floatatom 657 -14 9 0 0 0 - - -;
#X obj 621 -198 nbx 9 14 1e-16 1 1 0 empty empty empty 0 -8 0 10 -262144
-1 -1 1e-16 100;
#X obj 726 8 +~;
#X obj 976 -83 inlet~;
#N canvas 0 0 999 684 filt-chan-N 0;
#X obj 160 -1 inlet~;
#X obj 159 262 outlet~;
#X obj 160 91 hip~;
#X obj 160 144 lop~;
#X obj 183 114 p50;
#X floatatom 183 131 9 0 0 0 - - -;
#X obj 318 46 hsl 512 15 10.02 30060.1 1 0 empty empty empty -2 -8
0 10 -262144 -1 -1 0 1;
#X obj 319 99 hsl 512 15 10.02 30060.1 1 0 empty empty empty -2 -8
0 10 -262144 -1 -1 51100 1;
#X obj 315 32 nbx 5 14 0 40000 0 0 empty empty empty 0 -8 0 10 -262144
-1 -1 0 256;
#X obj 287 -16 nbx 5 14 0.04 40000 1 0 empty empty empty 0 -8 0 10
-262144 -1 -1 0.04 1024;
#X obj 316 85 nbx 5 14 0 40000 0 0 empty empty empty 0 -8 0 10 -262144
-1 -1 0 256;
#X obj 183 61 p50;
#X floatatom 183 78 9 0 0 0 - - -;
#X obj 199 97 r fil-chan-N-lof;
#X obj 199 44 r fil-chan-N-hif;
#X connect 0 0 2 0;
#X connect 2 0 3 0;
#X connect 3 0 1 0;
#X connect 4 0 5 0;
#X connect 5 0 3 1;
#X connect 6 0 11 0;
#X connect 7 0 4 0;
#X connect 8 0 6 0;
#X connect 9 0 8 0;
#X connect 9 0 10 0;
#X connect 10 0 7 0;
#X connect 11 0 12 0;
#X connect 12 0 2 1;
#X connect 13 0 4 0;
#X connect 14 0 11 1;
#X restore 977 -51 pd filt-chan-N;
#X obj 1058 -28 nbx 5 14 0 9 0 0 empty init-set-ONE empty 0 -8 0 10
-262144 -1 -1 0 256;
#N canvas 431 130 450 300 ramp-clip-chan-N 0;
#X obj 159 100 inlet~;
#X obj 159 200 outlet~;
#X obj 160 154 clip~ -1 1;
#X obj 225 123 * -1;
#X floatatom 225 140 5 0 0 0 - - -;
#X floatatom 225 109 5 0 0 0 - - -;
#X obj 225 81 inlet;
#X obj 176 121 p50;
#X obj 160 137 *~;
#X obj 176 62 inlet;
#X connect 0 0 8 0;
#X connect 2 0 1 0;
#X connect 3 0 4 0;
#X connect 4 0 2 1;
#X connect 5 0 3 0;
#X connect 5 0 2 2;
#X connect 6 0 5 0;
#X connect 7 0 8 1;
#X connect 8 0 2 0;
#X connect 9 0 7 0;
#X restore 977 -14 pd ramp-clip-chan-N;
#X obj 890 -184 hsl 100 16 -2 20 0 1 empty init-set-NIL empty -2 -8
0 10 -1 -258699 -1 900 1;
#X obj 871 -31 +;
#X obj 871 -166 vsl 36 128 1e-16 1 0 0 empty empty empty 0 -9 0 10
-1 -250685 -44926 0 1;
#X floatatom 907 -14 9 0 0 0 - - -;
#X obj 871 -198 nbx 9 14 1e-16 1 1 0 empty empty empty 0 -8 0 10 -262144
-1 -1 1e-16 100;
#X obj 976 8 +~;
#X obj 1226 -83 inlet~;
#N canvas 0 0 999 684 filt-chan-N 0;
#X obj 160 -1 inlet~;
#X obj 159 262 outlet~;
#X obj 160 91 hip~;
#X obj 160 144 lop~;
#X obj 183 114 p50;
#X floatatom 183 131 9 0 0 0 - - -;
#X obj 318 46 hsl 512 15 10.02 30060.1 1 0 empty empty empty -2 -8
0 10 -262144 -1 -1 0 1;
#X obj 319 99 hsl 512 15 10.02 30060.1 1 0 empty empty empty -2 -8
0 10 -262144 -1 -1 51100 1;
#X obj 315 32 nbx 5 14 0 40000 0 0 empty empty empty 0 -8 0 10 -262144
-1 -1 0 256;
#X obj 287 -16 nbx 5 14 0.04 40000 1 0 empty empty empty 0 -8 0 10
-262144 -1 -1 0.04 1024;
#X obj 316 85 nbx 5 14 0 40000 0 0 empty empty empty 0 -8 0 10 -262144
-1 -1 0 256;
#X obj 183 61 p50;
#X floatatom 183 78 9 0 0 0 - - -;
#X obj 199 97 r fil-chan-N-lof;
#X obj 199 44 r fil-chan-N-hif;
#X connect 0 0 2 0;
#X connect 2 0 3 0;
#X connect 3 0 1 0;
#X connect 4 0 5 0;
#X connect 5 0 3 1;
#X connect 6 0 11 0;
#X connect 7 0 4 0;
#X connect 8 0 6 0;
#X connect 9 0 8 0;
#X connect 9 0 10 0;
#X connect 10 0 7 0;
#X connect 11 0 12 0;
#X connect 12 0 2 1;
#X connect 13 0 4 0;
#X connect 14 0 11 1;
#X restore 1227 -51 pd filt-chan-N;
#X obj 1308 -28 nbx 5 14 0 9 0 0 empty init-set-ONE empty 0 -8 0 10
-262144 -1 -1 0 256;
#N canvas 431 130 450 300 ramp-clip-chan-N 0;
#X obj 159 100 inlet~;
#X obj 159 200 outlet~;
#X obj 160 154 clip~ -1 1;
#X obj 225 123 * -1;
#X floatatom 225 140 5 0 0 0 - - -;
#X floatatom 225 109 5 0 0 0 - - -;
#X obj 225 81 inlet;
#X obj 176 121 p50;
#X obj 160 137 *~;
#X obj 176 62 inlet;
#X connect 0 0 8 0;
#X connect 2 0 1 0;
#X connect 3 0 4 0;
#X connect 4 0 2 1;
#X connect 5 0 3 0;
#X connect 5 0 2 2;
#X connect 6 0 5 0;
#X connect 7 0 8 1;
#X connect 8 0 2 0;
#X connect 9 0 7 0;
#X restore 1227 -14 pd ramp-clip-chan-N;
#X obj 1140 -184 hsl 100 16 -2 20 0 1 empty init-set-NIL empty -2 -8
0 10 -1 -258699 -1 900 1;
#X obj 1121 -31 +;
#X obj 1121 -166 vsl 36 128 1e-16 1 0 0 empty empty empty 0 -9 0 10
-1 -250685 -44926 0 1;
#X floatatom 1157 -14 9 0 0 0 - - -;
#X obj 1121 -198 nbx 9 14 1e-16 1 1 0 empty empty empty 0 -8 0 10 -262144
-1 -1 1e-16 100;
#X obj 1226 8 +~;
#X obj 1476 -83 inlet~;
#N canvas 0 0 999 684 filt-chan-N 0;
#X obj 160 -1 inlet~;
#X obj 159 262 outlet~;
#X obj 160 91 hip~;
#X obj 160 144 lop~;
#X obj 183 114 p50;
#X floatatom 183 131 9 0 0 0 - - -;
#X obj 318 46 hsl 512 15 10.02 30060.1 1 0 empty empty empty -2 -8
0 10 -262144 -1 -1 0 1;
#X obj 319 99 hsl 512 15 10.02 30060.1 1 0 empty empty empty -2 -8
0 10 -262144 -1 -1 51100 1;
#X obj 315 32 nbx 5 14 0 40000 0 0 empty empty empty 0 -8 0 10 -262144
-1 -1 0 256;
#X obj 287 -16 nbx 5 14 0.04 40000 1 0 empty empty empty 0 -8 0 10
-262144 -1 -1 0.04 1024;
#X obj 316 85 nbx 5 14 0 40000 0 0 empty empty empty 0 -8 0 10 -262144
-1 -1 0 256;
#X obj 183 61 p50;
#X floatatom 183 78 9 0 0 0 - - -;
#X obj 199 97 r fil-chan-N-lof;
#X obj 199 44 r fil-chan-N-hif;
#X connect 0 0 2 0;
#X connect 2 0 3 0;
#X connect 3 0 1 0;
#X connect 4 0 5 0;
#X connect 5 0 3 1;
#X connect 6 0 11 0;
#X connect 7 0 4 0;
#X connect 8 0 6 0;
#X connect 9 0 8 0;
#X connect 9 0 10 0;
#X connect 10 0 7 0;
#X connect 11 0 12 0;
#X connect 12 0 2 1;
#X connect 13 0 4 0;
#X connect 14 0 11 1;
#X restore 1477 -51 pd filt-chan-N;
#X obj 1558 -28 nbx 5 14 0 9 0 0 empty init-set-ONE empty 0 -8 0 10
-262144 -1 -1 0 256;
#N canvas 431 130 450 300 ramp-clip-chan-N 0;
#X obj 159 100 inlet~;
#X obj 159 200 outlet~;
#X obj 160 154 clip~ -1 1;
#X obj 225 123 * -1;
#X floatatom 225 140 5 0 0 0 - - -;
#X floatatom 225 109 5 0 0 0 - - -;
#X obj 225 81 inlet;
#X obj 176 121 p50;
#X obj 160 137 *~;
#X obj 176 62 inlet;
#X connect 0 0 8 0;
#X connect 2 0 1 0;
#X connect 3 0 4 0;
#X connect 4 0 2 1;
#X connect 5 0 3 0;
#X connect 5 0 2 2;
#X connect 6 0 5 0;
#X connect 7 0 8 1;
#X connect 8 0 2 0;
#X connect 9 0 7 0;
#X restore 1477 -14 pd ramp-clip-chan-N;
#X obj 1390 -184 hsl 100 16 -2 20 0 1 empty init-set-NIL empty -2 -8
0 10 -1 -258699 -1 900 1;
#X obj 1371 -31 +;
#X obj 1371 -166 vsl 36 128 1e-16 1 0 0 empty empty empty 0 -9 0 10
-1 -250685 -44926 0 1;
#X floatatom 1407 -14 9 0 0 0 - - -;
#X obj 1371 -198 nbx 9 14 1e-16 1 1 0 empty empty empty 0 -8 0 10 -262144
-1 -1 1e-16 100;
#X obj 1476 8 +~;
#X obj 1726 -83 inlet~;
#N canvas 0 0 999 684 filt-chan-N 0;
#X obj 160 -1 inlet~;
#X obj 159 262 outlet~;
#X obj 160 91 hip~;
#X obj 160 144 lop~;
#X obj 183 114 p50;
#X floatatom 183 131 9 0 0 0 - - -;
#X obj 318 46 hsl 512 15 10.02 30060.1 1 0 empty empty empty -2 -8
0 10 -262144 -1 -1 0 1;
#X obj 319 99 hsl 512 15 10.02 30060.1 1 0 empty empty empty -2 -8
0 10 -262144 -1 -1 0 1;
#X obj 315 32 nbx 5 14 0 40000 0 0 empty empty empty 0 -8 0 10 -262144
-1 -1 0 256;
#X obj 287 -16 nbx 5 14 0.04 40000 1 0 empty empty empty 0 -8 0 10
-262144 -1 -1 0.04 1024;
#X obj 316 85 nbx 5 14 0 40000 0 0 empty empty empty 0 -8 0 10 -262144
-1 -1 0 256;
#X obj 183 61 p50;
#X floatatom 183 78 9 0 0 0 - - -;
#X obj 199 97 r fil-chan-N-lof;
#X obj 199 44 r fil-chan-N-hif;
#X connect 0 0 2 0;
#X connect 2 0 3 0;
#X connect 3 0 1 0;
#X connect 4 0 5 0;
#X connect 5 0 3 1;
#X connect 6 0 11 0;
#X connect 7 0 4 0;
#X connect 8 0 6 0;
#X connect 9 0 8 0;
#X connect 9 0 10 0;
#X connect 10 0 7 0;
#X connect 11 0 12 0;
#X connect 12 0 2 1;
#X connect 13 0 4 0;
#X connect 14 0 11 1;
#X restore 1727 -51 pd filt-chan-N;
#X obj 1808 -28 nbx 5 14 0 9 0 0 empty init-set-ONE empty 0 -8 0 10
-262144 -1 -1 0 256;
#N canvas 431 130 450 300 ramp-clip-chan-N 0;
#X obj 159 100 inlet~;
#X obj 159 200 outlet~;
#X obj 160 154 clip~ -1 1;
#X obj 225 123 * -1;
#X floatatom 225 140 5 0 0 0 - - -;
#X floatatom 225 109 5 0 0 0 - - -;
#X obj 225 81 inlet;
#X obj 176 121 p50;
#X obj 160 137 *~;
#X obj 176 62 inlet;
#X connect 0 0 8 0;
#X connect 2 0 1 0;
#X connect 3 0 4 0;
#X connect 4 0 2 1;
#X connect 5 0 3 0;
#X connect 5 0 2 2;
#X connect 6 0 5 0;
#X connect 7 0 8 1;
#X connect 8 0 2 0;
#X connect 9 0 7 0;
#X restore 1727 -14 pd ramp-clip-chan-N;
#X obj 1640 -184 hsl 100 16 -2 20 0 1 empty init-set-NIL empty -2 -8
0 10 -1 -258699 -1 900 1;
#X obj 1621 -31 +;
#X obj 1621 -166 vsl 36 128 1e-16 1 0 0 empty empty empty 0 -9 0 10
-1 -250685 -44926 0 1;
#X floatatom 1657 -14 9 0 0 0 - - -;
#X obj 1621 -198 nbx 9 14 1e-16 1 1 0 empty empty empty 0 -8 0 10 -262144
-1 -1 1e-16 100;
#X obj 1726 8 +~;
#X obj 1976 -83 inlet~;
#N canvas 0 0 999 684 filt-chan-N 0;
#X obj 160 -1 inlet~;
#X obj 159 262 outlet~;
#X obj 160 91 hip~;
#X obj 160 144 lop~;
#X obj 183 114 p50;
#X floatatom 183 131 9 0 0 0 - - -;
#X obj 318 46 hsl 512 15 10.02 30060.1 1 0 empty empty empty -2 -8
0 10 -262144 -1 -1 0 1;
#X obj 319 99 hsl 512 15 10.02 30060.1 1 0 empty empty empty -2 -8
0 10 -262144 -1 -1 0 1;
#X obj 315 32 nbx 5 14 0 40000 0 0 empty empty empty 0 -8 0 10 -262144
-1 -1 0 256;
#X obj 287 -16 nbx 5 14 0.04 40000 1 0 empty empty empty 0 -8 0 10
-262144 -1 -1 0.04 1024;
#X obj 316 85 nbx 5 14 0 40000 0 0 empty empty empty 0 -8 0 10 -262144
-1 -1 0 256;
#X obj 183 61 p50;
#X floatatom 183 78 9 0 0 0 - - -;
#X obj 199 97 r fil-chan-N-lof;
#X obj 199 44 r fil-chan-N-hif;
#X connect 0 0 2 0;
#X connect 2 0 3 0;
#X connect 3 0 1 0;
#X connect 4 0 5 0;
#X connect 5 0 3 1;
#X connect 6 0 11 0;
#X connect 7 0 4 0;
#X connect 8 0 6 0;
#X connect 9 0 8 0;
#X connect 9 0 10 0;
#X connect 10 0 7 0;
#X connect 11 0 12 0;
#X connect 12 0 2 1;
#X connect 13 0 4 0;
#X connect 14 0 11 1;
#X restore 1977 -51 pd filt-chan-N;
#X obj 2058 -28 nbx 5 14 0 9 0 0 empty init-set-ONE empty 0 -8 0 10
-262144 -1 -1 0 256;
#N canvas 431 130 450 300 ramp-clip-chan-N 0;
#X obj 159 100 inlet~;
#X obj 159 200 outlet~;
#X obj 160 154 clip~ -1 1;
#X obj 225 123 * -1;
#X floatatom 225 140 5 0 0 0 - - -;
#X floatatom 225 109 5 0 0 0 - - -;
#X obj 225 81 inlet;
#X obj 176 121 p50;
#X obj 160 137 *~;
#X obj 176 62 inlet;
#X connect 0 0 8 0;
#X connect 2 0 1 0;
#X connect 3 0 4 0;
#X connect 4 0 2 1;
#X connect 5 0 3 0;
#X connect 5 0 2 2;
#X connect 6 0 5 0;
#X connect 7 0 8 1;
#X connect 8 0 2 0;
#X connect 9 0 7 0;
#X restore 1977 -14 pd ramp-clip-chan-N;
#X obj 1890 -184 hsl 100 16 -2 20 0 1 empty init-set-NIL empty -2 -8
0 10 -1 -258699 -1 900 1;
#X obj 1871 -31 +;
#X obj 1871 -166 vsl 36 128 1e-16 1 0 0 empty empty empty 0 -9 0 10
-1 -250685 -44926 0 1;
#X floatatom 1907 -14 9 0 0 0 - - -;
#X obj 1871 -198 nbx 9 14 1e-16 1 1 0 empty empty empty 0 -8 0 10 -262144
-1 -1 1e-16 100;
#X obj 1976 8 +~;
#X connect 1 0 2 0;
#X connect 2 0 4 0;
#X connect 3 0 4 2;
#X connect 4 0 10 0;
#X connect 5 0 6 1;
#X connect 6 0 4 1;
#X connect 6 0 8 0;
#X connect 7 0 6 0;
#X connect 9 0 7 0;
#X connect 10 0 0 0;
#X connect 12 0 13 0;
#X connect 13 0 15 0;
#X connect 14 0 15 2;
#X connect 15 0 21 0;
#X connect 16 0 17 1;
#X connect 17 0 15 1;
#X connect 17 0 19 0;
#X connect 18 0 17 0;
#X connect 20 0 18 0;
#X connect 21 0 0 1;
#X connect 22 0 23 0;
#X connect 23 0 25 0;
#X connect 24 0 25 2;
#X connect 25 0 31 0;
#X connect 26 0 27 1;
#X connect 27 0 25 1;
#X connect 27 0 29 0;
#X connect 28 0 27 0;
#X connect 30 0 28 0;
#X connect 31 0 0 2;
#X connect 32 0 33 0;
#X connect 33 0 35 0;
#X connect 34 0 35 2;
#X connect 35 0 41 0;
#X connect 36 0 37 1;
#X connect 37 0 35 1;
#X connect 37 0 39 0;
#X connect 38 0 37 0;
#X connect 40 0 38 0;
#X connect 41 0 0 3;
#X connect 42 0 43 0;
#X connect 43 0 45 0;
#X connect 44 0 45 2;
#X connect 45 0 51 0;
#X connect 46 0 47 1;
#X connect 47 0 45 1;
#X connect 47 0 49 0;
#X connect 48 0 47 0;
#X connect 50 0 48 0;
#X connect 51 0 0 4;
#X connect 52 0 53 0;
#X connect 53 0 55 0;
#X connect 54 0 55 2;
#X connect 55 0 61 0;
#X connect 56 0 57 1;
#X connect 57 0 55 1;
#X connect 57 0 59 0;
#X connect 58 0 57 0;
#X connect 60 0 58 0;
#X connect 61 0 0 5;
#X connect 62 0 63 0;
#X connect 63 0 65 0;
#X connect 64 0 65 2;
#X connect 65 0 71 0;
#X connect 66 0 67 1;
#X connect 67 0 65 1;
#X connect 67 0 69 0;
#X connect 68 0 67 0;
#X connect 70 0 68 0;
#X connect 71 0 0 6;
#X connect 72 0 73 0;
#X connect 73 0 75 0;
#X connect 74 0 75 2;
#X connect 75 0 81 0;
#X connect 76 0 77 1;
#X connect 77 0 75 1;
#X connect 77 0 79 0;
#X connect 78 0 77 0;
#X connect 80 0 78 0;
#X connect 81 0 0 7;
