#N canvas 20 127 999 684 10;
#X obj 173 129 osc~;
#X floatatom 203 38 5 0 0 0 - - -;
#X obj 223 129 osc~;
#X floatatom 253 38 5 0 0 0 - - -;
#X obj 273 129 osc~;
#X floatatom 303 38 5 0 0 0 - - -;
#X obj 323 129 osc~;
#X floatatom 353 38 5 0 0 0 - - -;
#X obj 373 129 osc~;
#X floatatom 403 38 5 0 0 0 - - -;
#X obj 423 129 osc~;
#X floatatom 453 38 5 0 0 0 - - -;
#X obj 473 129 osc~;
#X floatatom 503 38 5 0 0 0 - - -;
#X obj 523 129 osc~;
#X floatatom 553 38 5 0 0 0 - - -;
#X obj 173 159 +~;
#X obj 172 185 +~;
#X obj 173 214 +~;
#X obj 172 237 +~;
#X obj 172 265 +~;
#X obj 173 293 +~;
#X obj 172 316 +~;
#X floatatom 144 -32 5 0 0 0 - - -;
#X obj 173 83 +;
#X obj 223 83 +;
#X obj 273 83 +;
#X obj 323 83 +;
#X obj 373 83 +;
#X obj 423 83 +;
#X obj 473 83 +;
#X obj 523 83 +;
#X obj 523 61 bng 15 250 50 0 empty empty empty 17 7 0 10 -262144 -1
-1;
#X obj 473 61 bng 15 250 50 0 empty empty empty 17 7 0 10 -262144 -1
-1;
#X obj 423 61 bng 15 250 50 0 empty empty empty 17 7 0 10 -262144 -1
-1;
#X obj 373 61 bng 15 250 50 0 empty empty empty 17 7 0 10 -262144 -1
-1;
#X obj 323 61 bng 15 250 50 0 empty empty empty 17 7 0 10 -262144 -1
-1;
#X obj 273 61 bng 15 250 50 0 empty empty empty 17 7 0 10 -262144 -1
-1;
#X obj 223 61 bng 15 250 50 0 empty empty empty 17 7 0 10 -262144 -1
-1;
#X obj 173 61 bng 15 250 50 0 empty empty empty 17 7 0 10 -262144 -1
-1;
#X obj 603 129 osc~;
#X floatatom 633 38 5 0 0 0 - - -;
#X obj 653 129 osc~;
#X floatatom 683 38 5 0 0 0 - - -;
#X obj 703 129 osc~;
#X floatatom 733 38 5 0 0 0 - - -;
#X obj 753 129 osc~;
#X floatatom 783 38 5 0 0 0 - - -;
#X obj 803 129 osc~;
#X floatatom 833 38 5 0 0 0 - - -;
#X obj 853 129 osc~;
#X floatatom 883 38 5 0 0 0 - - -;
#X obj 903 129 osc~;
#X floatatom 933 38 5 0 0 0 - - -;
#X obj 953 129 osc~;
#X floatatom 983 38 5 0 0 0 - - -;
#X obj 603 159 +~;
#X obj 602 185 +~;
#X obj 603 214 +~;
#X obj 602 237 +~;
#X obj 602 265 +~;
#X obj 603 293 +~;
#X obj 602 316 +~;
#X floatatom 574 -32 5 0 0 0 - - -;
#X obj 603 83 +;
#X obj 653 83 +;
#X obj 703 83 +;
#X obj 753 83 +;
#X obj 803 83 +;
#X obj 853 83 +;
#X obj 903 83 +;
#X obj 953 83 +;
#X obj 953 61 bng 15 250 50 0 empty empty empty 17 7 0 10 -262144 -1
-1;
#X obj 903 61 bng 15 250 50 0 empty empty empty 17 7 0 10 -262144 -1
-1;
#X obj 853 61 bng 15 250 50 0 empty empty empty 17 7 0 10 -262144 -1
-1;
#X obj 803 61 bng 15 250 50 0 empty empty empty 17 7 0 10 -262144 -1
-1;
#X obj 753 61 bng 15 250 50 0 empty empty empty 17 7 0 10 -262144 -1
-1;
#X obj 703 61 bng 15 250 50 0 empty empty empty 17 7 0 10 -262144 -1
-1;
#X obj 653 61 bng 15 250 50 0 empty empty empty 17 7 0 10 -262144 -1
-1;
#X obj 603 61 bng 15 250 50 0 empty empty empty 17 7 0 10 -262144 -1
-1;
#X obj 171 411 +~;
#X obj 344 -46 nbx 5 14 -1e+37 1e+37 0 0 empty empty empty 0 -8 0 10
-262144 -1 -1 0 256;
#X obj 391 452 *~;
#X floatatom 434 399 5 0 0 0 - - -;
#X obj 813 516 osc~;
#X obj 863 516 osc~;
#X obj 913 516 osc~;
#X obj 963 516 osc~;
#X obj 1013 516 osc~;
#X obj 1063 516 osc~;
#X obj 1113 516 osc~;
#X obj 1163 516 osc~;
#X obj 813 546 +~;
#X obj 812 572 +~;
#X obj 813 601 +~;
#X obj 812 624 +~;
#X obj 812 652 +~;
#X obj 813 680 +~;
#X obj 812 703 +~;
#X floatatom 784 355 5 0 0 0 - - -;
#X obj 1243 516 osc~;
#X obj 1293 516 osc~;
#X obj 1343 516 osc~;
#X obj 1393 516 osc~;
#X obj 1443 516 osc~;
#X obj 1493 516 osc~;
#X obj 1543 516 osc~;
#X obj 1593 516 osc~;
#X obj 1243 546 +~;
#X obj 1242 572 +~;
#X obj 1243 601 +~;
#X obj 1242 624 +~;
#X obj 1242 652 +~;
#X obj 1243 680 +~;
#X obj 1242 703 +~;
#X floatatom 1214 355 5 0 0 0 - - -;
#X obj 811 798 +~;
#X obj 984 341 nbx 5 14 -1e+37 1e+37 0 0 empty empty empty 0 -8 0 10
-262144 -1 -1 2240.25 256;
#X obj 813 470 +~;
#X obj 863 470 +~;
#X obj 913 470 +~;
#X obj 963 470 +~;
#X obj 1013 470 +~;
#X obj 1063 470 +~;
#X obj 1113 470 +~;
#X obj 1163 470 +~;
#X obj 1243 470 +~;
#X obj 1293 470 +~;
#X obj 1343 470 +~;
#X obj 1393 470 +~;
#X obj 1443 470 +~;
#X obj 1493 470 +~;
#X obj 1543 470 +~;
#X obj 1593 470 +~;
#X obj 491 452 *~;
#X floatatom 534 399 5 0 0 0 - - -;
#X obj 984 185 vsl 15 128 22 22000 1 0 empty empty empty 0 -9 0 10
-24198 -1 -1 8500 1;
#X obj 344 -212 vsl 15 128 22 22000 1 0 empty empty empty 0 -9 0 10
-24198 -1 -1 0 1;
#X obj 349 555 *~;
#X obj 365 523 tgl 15 0 empty empty empty 17 7 0 10 -262144 -1 -1 0
1;
#X floatatom 378 584 5 0 0 0 - - -;
#X obj 348 605 bp~ 1;
#X obj 424 538 line;
#X floatatom 447 515 5 0 0 0 - - -;
#X obj 447 475 loadbang;
#X msg 447 494 500;
#X floatatom 426 564 5 0 0 0 - - -;
#X obj 310 474 vsl 15 128 22 22000 1 0 empty empty empty 0 -9 0 10
-261681 -1 -1 0 1;
#X floatatom 1273 388 5 0 0 0 - - -;
#X floatatom 1323 388 5 0 0 0 - - -;
#X floatatom 1373 388 5 0 0 0 - - -;
#X floatatom 1423 388 5 0 0 0 - - -;
#X floatatom 1473 388 5 0 0 0 - - -;
#X floatatom 1523 388 5 0 0 0 - - -;
#X floatatom 1573 388 5 0 0 0 - - -;
#X floatatom 1623 388 5 0 0 0 - - -;
#X obj 1243 433 +;
#X obj 1293 433 +;
#X obj 1343 433 +;
#X obj 1393 433 +;
#X obj 1443 433 +;
#X obj 1493 433 +;
#X obj 1543 433 +;
#X obj 1593 433 +;
#X obj 1593 411 bng 15 250 50 0 empty empty empty 17 7 0 10 -262144
-1 -1;
#X obj 1543 411 bng 15 250 50 0 empty empty empty 17 7 0 10 -262144
-1 -1;
#X obj 1493 411 bng 15 250 50 0 empty empty empty 17 7 0 10 -262144
-1 -1;
#X obj 1443 411 bng 15 250 50 0 empty empty empty 17 7 0 10 -262144
-1 -1;
#X obj 1393 411 bng 15 250 50 0 empty empty empty 17 7 0 10 -262144
-1 -1;
#X obj 1343 411 bng 15 250 50 0 empty empty empty 17 7 0 10 -262144
-1 -1;
#X obj 1293 411 bng 15 250 50 0 empty empty empty 17 7 0 10 -262144
-1 -1;
#X obj 1243 411 bng 15 250 50 0 empty empty empty 17 7 0 10 -262144
-1 -1;
#X floatatom 843 388 5 0 0 0 - - -;
#X floatatom 893 388 5 0 0 0 - - -;
#X floatatom 943 388 5 0 0 0 - - -;
#X floatatom 993 388 5 0 0 0 - - -;
#X floatatom 1043 388 5 0 0 0 - - -;
#X floatatom 1093 388 5 0 0 0 - - -;
#X floatatom 1143 388 5 0 0 0 - - -;
#X floatatom 1193 388 5 0 0 0 - - -;
#X obj 813 433 +;
#X obj 863 433 +;
#X obj 913 433 +;
#X obj 963 433 +;
#X obj 1013 433 +;
#X obj 1063 433 +;
#X obj 1113 433 +;
#X obj 1163 433 +;
#X obj 1163 411 bng 15 250 50 0 empty empty empty 17 7 0 10 -262144
-1 -1;
#X obj 1113 411 bng 15 250 50 0 empty empty empty 17 7 0 10 -262144
-1 -1;
#X obj 1063 411 bng 15 250 50 0 empty empty empty 17 7 0 10 -262144
-1 -1;
#X obj 1013 411 bng 15 250 50 0 empty empty empty 17 7 0 10 -262144
-1 -1;
#X obj 963 411 bng 15 250 50 0 empty empty empty 17 7 0 10 -262144
-1 -1;
#X obj 913 411 bng 15 250 50 0 empty empty empty 17 7 0 10 -262144
-1 -1;
#X obj 863 411 bng 15 250 50 0 empty empty empty 17 7 0 10 -262144
-1 -1;
#X obj 813 411 bng 15 250 50 0 empty empty empty 17 7 0 10 -262144
-1 -1;
#X obj 269 709 #bop~;
#X obj 348 761 outlet~;
#X obj 574 -125 inlet;
#X obj 144 -125 inlet;
#X obj 1214 304 inlet;
#X obj 784 304 inlet;
#X obj 348 783 outlet~;
#X obj 534 369 inlet;
#X obj 434 369 inlet;
#X obj 416 -120 r top-left;
#X obj 391 -3 unpack 0 0 0 0 0 0 0 0;
#X obj 821 -3 unpack 0 0 0 0 0 0 0 0;
#X obj 821 -26 r top-right;
#X msg 715 -209 \; top-left 0 0 0 0 0 0 0 0 \; top-right 0 0 0 0 0
0 0 0;
#X obj 901 357 unpack 0 0 0 0 0 0 0 0;
#X obj 901 334 r bot-left;
#X obj 1331 357 unpack 0 0 0 0 0 0 0 0;
#X obj 1331 334 r bot-right;
#X msg 905 -209 \; bot-left 0 0 0 0 0 0 0 0 \; bot-right 0 0 0 0 0
0 0 0;
#X connect 0 0 16 0;
#X connect 1 0 24 1;
#X connect 1 0 39 0;
#X connect 2 0 16 1;
#X connect 3 0 25 1;
#X connect 3 0 38 0;
#X connect 4 0 17 1;
#X connect 5 0 26 1;
#X connect 5 0 37 0;
#X connect 6 0 18 1;
#X connect 7 0 27 1;
#X connect 7 0 36 0;
#X connect 8 0 19 1;
#X connect 9 0 28 1;
#X connect 9 0 35 0;
#X connect 10 0 20 1;
#X connect 11 0 29 1;
#X connect 11 0 34 0;
#X connect 12 0 21 1;
#X connect 13 0 30 1;
#X connect 13 0 33 0;
#X connect 14 0 22 1;
#X connect 15 0 31 1;
#X connect 15 0 32 0;
#X connect 16 0 17 0;
#X connect 17 0 18 0;
#X connect 18 0 19 0;
#X connect 19 0 20 0;
#X connect 20 0 21 0;
#X connect 21 0 22 0;
#X connect 22 0 80 0;
#X connect 23 0 24 0;
#X connect 23 0 25 0;
#X connect 23 0 26 0;
#X connect 23 0 27 0;
#X connect 23 0 28 0;
#X connect 23 0 29 0;
#X connect 23 0 30 0;
#X connect 23 0 31 0;
#X connect 24 0 0 0;
#X connect 25 0 2 0;
#X connect 26 0 4 0;
#X connect 27 0 6 0;
#X connect 28 0 8 0;
#X connect 29 0 10 0;
#X connect 30 0 12 0;
#X connect 31 0 14 0;
#X connect 32 0 31 0;
#X connect 33 0 30 0;
#X connect 34 0 29 0;
#X connect 35 0 28 0;
#X connect 36 0 27 0;
#X connect 37 0 26 0;
#X connect 38 0 25 0;
#X connect 39 0 24 0;
#X connect 40 0 56 0;
#X connect 41 0 64 1;
#X connect 41 0 79 0;
#X connect 42 0 56 1;
#X connect 43 0 65 1;
#X connect 43 0 78 0;
#X connect 44 0 57 1;
#X connect 45 0 66 1;
#X connect 45 0 77 0;
#X connect 46 0 58 1;
#X connect 47 0 67 1;
#X connect 47 0 76 0;
#X connect 48 0 59 1;
#X connect 49 0 68 1;
#X connect 49 0 75 0;
#X connect 50 0 60 1;
#X connect 51 0 69 1;
#X connect 51 0 74 0;
#X connect 52 0 61 1;
#X connect 53 0 70 1;
#X connect 53 0 73 0;
#X connect 54 0 62 1;
#X connect 55 0 71 1;
#X connect 55 0 72 0;
#X connect 56 0 57 0;
#X connect 57 0 58 0;
#X connect 58 0 59 0;
#X connect 59 0 60 0;
#X connect 60 0 61 0;
#X connect 61 0 62 0;
#X connect 62 0 80 1;
#X connect 63 0 64 0;
#X connect 63 0 65 0;
#X connect 63 0 66 0;
#X connect 63 0 67 0;
#X connect 63 0 68 0;
#X connect 63 0 69 0;
#X connect 63 0 70 0;
#X connect 63 0 71 0;
#X connect 64 0 40 0;
#X connect 65 0 42 0;
#X connect 66 0 44 0;
#X connect 67 0 46 0;
#X connect 68 0 48 0;
#X connect 69 0 50 0;
#X connect 70 0 52 0;
#X connect 71 0 54 0;
#X connect 72 0 71 0;
#X connect 73 0 70 0;
#X connect 74 0 69 0;
#X connect 75 0 68 0;
#X connect 76 0 67 0;
#X connect 77 0 66 0;
#X connect 78 0 65 0;
#X connect 79 0 64 0;
#X connect 80 0 82 0;
#X connect 80 0 134 0;
#X connect 80 0 138 0;
#X connect 81 0 23 0;
#X connect 81 0 63 0;
#X connect 82 0 118 1;
#X connect 82 0 119 1;
#X connect 82 0 120 1;
#X connect 82 0 121 1;
#X connect 82 0 122 1;
#X connect 82 0 123 1;
#X connect 82 0 124 1;
#X connect 82 0 125 1;
#X connect 83 0 82 1;
#X connect 84 0 92 0;
#X connect 85 0 92 1;
#X connect 86 0 93 1;
#X connect 87 0 94 1;
#X connect 88 0 95 1;
#X connect 89 0 96 1;
#X connect 90 0 97 1;
#X connect 91 0 98 1;
#X connect 92 0 93 0;
#X connect 93 0 94 0;
#X connect 94 0 95 0;
#X connect 95 0 96 0;
#X connect 96 0 97 0;
#X connect 97 0 98 0;
#X connect 98 0 116 0;
#X connect 99 0 180 0;
#X connect 99 0 181 0;
#X connect 99 0 182 0;
#X connect 99 0 183 0;
#X connect 99 0 184 0;
#X connect 99 0 185 0;
#X connect 99 0 186 0;
#X connect 99 0 187 0;
#X connect 100 0 108 0;
#X connect 101 0 108 1;
#X connect 102 0 109 1;
#X connect 103 0 110 1;
#X connect 104 0 111 1;
#X connect 105 0 112 1;
#X connect 106 0 113 1;
#X connect 107 0 114 1;
#X connect 108 0 109 0;
#X connect 109 0 110 0;
#X connect 110 0 111 0;
#X connect 111 0 112 0;
#X connect 112 0 113 0;
#X connect 113 0 114 0;
#X connect 114 0 116 1;
#X connect 115 0 156 0;
#X connect 115 0 157 0;
#X connect 115 0 158 0;
#X connect 115 0 159 0;
#X connect 115 0 160 0;
#X connect 115 0 161 0;
#X connect 115 0 162 0;
#X connect 115 0 163 0;
#X connect 116 0 196 1;
#X connect 116 0 196 0;
#X connect 116 0 202 0;
#X connect 117 0 99 0;
#X connect 117 0 115 0;
#X connect 118 0 84 0;
#X connect 119 0 85 0;
#X connect 120 0 86 0;
#X connect 121 0 87 0;
#X connect 122 0 88 0;
#X connect 123 0 89 0;
#X connect 124 0 90 0;
#X connect 125 0 91 0;
#X connect 126 0 100 0;
#X connect 127 0 101 0;
#X connect 128 0 102 0;
#X connect 129 0 103 0;
#X connect 130 0 104 0;
#X connect 131 0 105 0;
#X connect 132 0 106 0;
#X connect 133 0 107 0;
#X connect 134 0 126 1;
#X connect 134 0 127 1;
#X connect 134 0 128 1;
#X connect 134 0 129 1;
#X connect 134 0 130 1;
#X connect 134 0 131 1;
#X connect 134 0 132 1;
#X connect 134 0 133 1;
#X connect 135 0 134 1;
#X connect 136 0 117 0;
#X connect 137 0 81 0;
#X connect 138 0 141 0;
#X connect 139 0 138 1;
#X connect 139 0 142 0;
#X connect 140 0 141 2;
#X connect 141 0 196 1;
#X connect 141 0 196 0;
#X connect 141 0 197 0;
#X connect 142 0 138 1;
#X connect 143 0 142 1;
#X connect 144 0 145 0;
#X connect 145 0 143 0;
#X connect 146 0 142 0;
#X connect 147 0 141 1;
#X connect 148 0 156 1;
#X connect 148 0 171 0;
#X connect 149 0 157 1;
#X connect 149 0 170 0;
#X connect 150 0 158 1;
#X connect 150 0 169 0;
#X connect 151 0 159 1;
#X connect 151 0 168 0;
#X connect 152 0 160 1;
#X connect 152 0 167 0;
#X connect 153 0 161 1;
#X connect 153 0 166 0;
#X connect 154 0 162 1;
#X connect 154 0 165 0;
#X connect 155 0 163 1;
#X connect 155 0 164 0;
#X connect 156 0 126 0;
#X connect 157 0 127 0;
#X connect 158 0 128 0;
#X connect 159 0 129 0;
#X connect 160 0 130 0;
#X connect 161 0 131 0;
#X connect 162 0 132 0;
#X connect 163 0 133 0;
#X connect 164 0 163 0;
#X connect 165 0 162 0;
#X connect 166 0 161 0;
#X connect 167 0 160 0;
#X connect 168 0 159 0;
#X connect 169 0 158 0;
#X connect 170 0 157 0;
#X connect 171 0 156 0;
#X connect 172 0 180 1;
#X connect 172 0 195 0;
#X connect 173 0 181 1;
#X connect 173 0 194 0;
#X connect 174 0 182 1;
#X connect 174 0 193 0;
#X connect 175 0 183 1;
#X connect 175 0 192 0;
#X connect 176 0 184 1;
#X connect 176 0 191 0;
#X connect 177 0 185 1;
#X connect 177 0 190 0;
#X connect 178 0 186 1;
#X connect 178 0 189 0;
#X connect 179 0 187 1;
#X connect 179 0 188 0;
#X connect 180 0 118 0;
#X connect 181 0 119 0;
#X connect 182 0 120 0;
#X connect 183 0 121 0;
#X connect 184 0 122 0;
#X connect 185 0 123 0;
#X connect 186 0 124 0;
#X connect 187 0 125 0;
#X connect 188 0 187 0;
#X connect 189 0 186 0;
#X connect 190 0 185 0;
#X connect 191 0 184 0;
#X connect 192 0 183 0;
#X connect 193 0 182 0;
#X connect 194 0 181 0;
#X connect 195 0 180 0;
#X connect 198 0 63 0;
#X connect 199 0 23 0;
#X connect 200 0 115 0;
#X connect 201 0 99 0;
#X connect 203 0 135 0;
#X connect 204 0 83 0;
#X connect 205 0 206 0;
#X connect 206 0 1 0;
#X connect 206 1 3 0;
#X connect 206 2 5 0;
#X connect 206 3 7 0;
#X connect 206 4 9 0;
#X connect 206 5 11 0;
#X connect 206 6 13 0;
#X connect 206 7 15 0;
#X connect 207 0 41 0;
#X connect 207 1 43 0;
#X connect 207 2 45 0;
#X connect 207 3 47 0;
#X connect 207 4 49 0;
#X connect 207 5 51 0;
#X connect 207 6 53 0;
#X connect 207 7 55 0;
#X connect 208 0 207 0;
#X connect 210 0 172 0;
#X connect 210 1 173 0;
#X connect 210 2 174 0;
#X connect 210 3 175 0;
#X connect 210 4 176 0;
#X connect 210 5 177 0;
#X connect 210 6 178 0;
#X connect 210 7 179 0;
#X connect 211 0 210 0;
#X connect 212 0 148 0;
#X connect 212 1 149 0;
#X connect 212 2 150 0;
#X connect 212 3 151 0;
#X connect 212 4 152 0;
#X connect 212 5 153 0;
#X connect 212 6 154 0;
#X connect 212 7 155 0;
#X connect 213 0 212 0;
