#N canvas -5 3 999 684 10;
#X obj 756 456 bop~;
#X obj 95 -37 vsl 24 512 22 22000 1 0 empty empty empty 0 -9 0 10 -24198
-1 -1 18456 1;
#X obj 125 80 hsl 512 24 22 22000 1 0 empty empty empty -2 -8 0 10
-250685 -1 -1 19026 1;
#X obj 65 -37 vsl 24 512 22 22000 1 0 empty empty empty 0 -9 0 10 -24198
-1 -1 13056 1;
#X obj 125 109 hsl 512 24 22 22000 1 0 empty empty empty -2 -8 0 10
-250685 -1 -1 19026 1;
#X obj 845 -17 vsl 24 512 22 22000 1 0 empty empty empty 0 -9 0 10
-24198 -1 -1 907 1;
#X obj 295 390 hsl 512 24 22 22000 1 0 empty empty empty -2 -8 0 10
-250685 -1 -1 24816 1;
#X obj 815 -17 vsl 24 512 22 22000 1 0 empty empty empty 0 -9 0 10
-24198 -1 -1 907 1;
#X obj 295 419 hsl 512 24 22 22000 1 0 empty empty empty -2 -8 0 10
-250685 -1 -1 24816 1;
#X obj 301 451 beafM ---===;
#X obj 131 141 beafM ===---;
#X obj 726 -71 nbx 5 14 -1e+37 1e+37 0 0 empty empty empty 0 -8 0 10
-262144 -1 -1 24.87 256;
#X obj 46 -71 nbx 5 14 -1e+37 1e+37 0 0 empty empty empty 0 -8 0 10
-262144 -1 -1 69 256;
#X obj 126 39 nbx 5 14 -1e+37 1e+37 0 0 empty empty empty 0 -8 0 10
-262144 -1 -1 288 256;
#X obj 306 359 nbx 5 14 -1e+37 1e+37 0 0 empty empty empty 0 -8 0 10
-262144 -1 -1 630 256;
#X connect 1 0 10 1;
#X connect 2 0 10 2;
#X connect 3 0 10 0;
#X connect 4 0 10 3;
#X connect 5 0 9 1;
#X connect 6 0 9 2;
#X connect 7 0 9 0;
#X connect 8 0 9 3;
#X connect 9 0 0 1;
#X connect 9 1 0 1;
#X connect 10 0 0 0;
#X connect 10 1 0 0;
#X connect 11 0 7 0;
#X connect 11 0 5 0;
#X connect 12 0 3 0;
#X connect 12 0 1 0;
#X connect 13 0 2 0;
#X connect 13 0 4 0;
#X connect 14 0 6 0;
#X connect 14 0 8 0;
