#N canvas 0 0 452 456 10;
#X msg 61 131 start;
#X msg 61 151 stop;
#X msg 62 101 open -bytes 4 -nextstep -rate 96000 /tmp/recording-22
;
#X floatatom 62 43 5 0 0 0 - - -;
#X obj 5 171 inlet~;
#X obj 61 187 writesf~ 1;
#X msg 62 72 set open -bytes 4 -nextstep -rate 96000 /tmp/recording-\$1
;
#X connect 0 0 5 0;
#X connect 1 0 5 0;
#X connect 2 0 5 0;
#X connect 3 0 6 0;
#X connect 4 0 5 0;
#X connect 6 0 2 0;
