#N canvas 0 0 450 300 10;
#X obj 193 111 *~;
#X obj 193 163 clip~;
#X obj 194 52 inlet~;
#X obj 210 95 inlet~;
#X obj 223 131 inlet;
#X obj 193 182 outlet~;
#X obj 223 147 / -1;
#X connect 0 0 1 0;
#X connect 1 0 5 0;
#X connect 2 0 0 0;
#X connect 3 0 0 1;
#X connect 4 0 6 0;
#X connect 4 0 1 2;
#X connect 6 0 1 1;
