#N canvas 0 0 450 300 10;
#X obj 172 81 inlet;
#X obj 172 171 float;
#X obj 211 171 +;
#X obj 227 82 inlet;
#X obj 405 154 inlet;
#X obj 382 214 line;
#X obj 382 188 pack;
#X obj 382 257 outlet;
#X obj 265 161 select;
#X obj 302 140 *;
#X msg 265 195 0;
#X connect 0 0 1 0;
#X connect 1 0 2 0;
#X connect 2 0 1 1;
#X connect 2 0 6 0;
#X connect 3 0 2 1;
#X connect 3 0 9 1;
#X connect 4 0 6 1;
#X connect 5 0 7 0;
#X connect 6 0 5 0;
#X connect 9 0 8 1;
#X connect 10 0 1 0;
