#N canvas 315 190 450 300 10;
#X obj 172 81 inlet;
#X obj 172 171 float;
#X obj 211 171 +;
#X obj 227 82 inlet;
#X obj 172 221 outlet;
#X connect 0 0 1 0;
#X connect 1 0 2 0;
#X connect 1 0 4 0;
#X connect 2 0 1 1;
#X connect 3 0 2 1;
