#N canvas 117 27 630 382 10;
#X msg 156 76 bang;
#X floatatom 156 185 5 0 0 0 - - -;
#X floatatom 188 108 5 0 0 0 - - -;
#X obj 156 133 countfloat;
#X msg 195 80 0;
#X text 140 22 the second inlet is the number to add;
#X obj 483 59 metro;
#X floatatom 521 28 5 0 0 0 - - -;
#X msg 483 -9 bang;
#X floatatom 356 160 5 0 0 0 - - -;
#X obj 470 256 line;
#X floatatom 470 286 5 0 0 0 - - -;
#X obj 470 199 pack 0 0;
#X msg 427 29 stop;
#X obj 497 120 bng 15 250 50 0 empty empty empty 17 7 0 10 -262144
-1 -1;
#X obj 330 -54 metro;
#X msg 321 -92 bang;
#X msg 212 -66 stop;
#X obj 349 -18 bng 15 250 50 0 empty empty empty 17 7 0 10 -262144
-1 -1;
#X obj 580 -25 * 3;
#X msg 292 -71 -1;
#X connect 0 0 3 0;
#X connect 1 0 12 0;
#X connect 2 0 3 1;
#X connect 3 0 1 0;
#X connect 4 0 3 0;
#X connect 6 0 0 0;
#X connect 6 0 7 0;
#X connect 6 0 14 0;
#X connect 7 0 6 1;
#X connect 7 0 12 1;
#X connect 7 0 19 0;
#X connect 8 0 6 0;
#X connect 9 0 2 0;
#X connect 9 0 7 0;
#X connect 10 0 11 0;
#X connect 12 0 10 0;
#X connect 13 0 6 0;
#X connect 15 0 18 0;
#X connect 15 0 4 0;
#X connect 16 0 15 0;
#X connect 16 0 8 0;
#X connect 16 0 20 0;
#X connect 17 0 15 0;
#X connect 19 0 15 1;
#X connect 20 0 2 0;
