#N canvas -73 443 999 684 10;
#X obj 115 250 clump~;
#X obj 134 90 clump~;
#X obj 151 62 sig~;
#X obj 184 63 / 1.1;
#X obj 245 260 clump~;
#X obj 116 276 +~;
#X obj 116 309 clip~ -1 1;
#X obj 345 250 clump~;
#X obj 364 90 clump~;
#X obj 381 62 sig~;
#X obj 475 260 clump~;
#X obj 346 276 +~;
#X obj 253 340 clip~ -1 1;
#X obj 414 63 / 0.1;
#X obj 236 361 +~;
#X obj 379 433 clump~;
#X obj 397 411 sig~;
#X obj 380 490 /~ 4;
#X obj 580 411 mafon~;
#X obj 380 524 outlet~;
#X obj 440 524 outlet~;
#X obj 500 524 outlet~;
#X obj 397 378 inlet;
#N canvas 12 367 450 300 controls 1;
#X obj 105 91 outlet;
#X obj 155 91 outlet;
#X obj 205 91 outlet;
#X obj 255 91 outlet;
#X obj 305 91 outlet;
#X obj 105 -43 vsl 15 128 0 1.1 0 0 empty empty empty 0 -9 0 10 -262144
-1 -1 2500 1;
#X obj 155 -43 vsl 15 128 0 1.1 0 0 empty empty empty 0 -9 0 10 -262144
-1 -1 2200 1;
#X obj 205 -43 vsl 15 128 0 1.1 0 0 empty empty empty 0 -9 0 10 -262144
-1 -1 5200 1;
#X obj 257 -43 vsl 15 128 0 1.1 0 0 empty empty empty 0 -9 0 10 -262144
-1 -1 2600 1;
#X obj 305 -43 vsl 15 128 0 1.1 0 0 empty empty empty 0 -9 0 10 -262144
-1 -1 12700 1;
#X obj -5 91 outlet;
#X obj 45 91 outlet;
#X obj -5 -43 vsl 15 128 0 1.1 0 0 empty empty empty 0 -9 0 10 -262144
-1 -1 1300 1;
#X obj 45 -43 vsl 15 128 0 1.1 0 0 empty empty empty 0 -9 0 10 -262144
-1 -1 1600 1;
#X connect 5 0 0 0;
#X connect 6 0 1 0;
#X connect 7 0 2 0;
#X connect 8 0 3 0;
#X connect 9 0 4 0;
#X connect 12 0 10 0;
#X connect 13 0 11 0;
#X restore 486 -20 pd controls;
#X obj 48 6 inlet~;
#X obj 151 3 inlet;
#X obj 381 3 inlet;
#X connect 0 0 5 0;
#X connect 0 0 7 0;
#X connect 1 0 0 1;
#X connect 1 0 4 1;
#X connect 2 0 1 1;
#X connect 3 0 1 2;
#X connect 4 0 5 1;
#X connect 4 0 10 0;
#X connect 5 0 6 0;
#X connect 5 0 18 1;
#X connect 6 0 14 0;
#X connect 7 0 11 0;
#X connect 8 0 7 1;
#X connect 8 0 10 1;
#X connect 9 0 8 1;
#X connect 10 0 11 1;
#X connect 11 0 12 0;
#X connect 11 0 18 3;
#X connect 12 0 14 1;
#X connect 13 0 8 2;
#X connect 14 0 15 0;
#X connect 15 0 17 0;
#X connect 16 0 15 1;
#X connect 17 0 19 0;
#X connect 18 0 20 0;
#X connect 18 1 21 0;
#X connect 22 0 16 0;
#X connect 23 0 3 1;
#X connect 23 1 13 1;
#X connect 23 2 0 2;
#X connect 23 3 4 2;
#X connect 23 4 7 2;
#X connect 23 5 10 2;
#X connect 23 6 15 2;
#X connect 24 0 1 0;
#X connect 24 0 0 0;
#X connect 24 0 4 0;
#X connect 24 0 8 0;
#X connect 25 0 2 0;
#X connect 25 0 3 0;
#X connect 25 0 18 0;
#X connect 26 0 9 0;
#X connect 26 0 13 0;
#X connect 26 0 18 2;
