#N canvas 377 100 450 300 10;
#X obj 197 146 dac~ 1 2 3 4 5 6 7 8;
#X obj 353 168 re-8-aiff~;
#X obj 227 9 inlet~;
#X obj 217 -1 inlet~;
#X obj 246 29 inlet~;
#X obj 237 19 inlet~;
#X obj 265 49 inlet~;
#X obj 256 39 inlet~;
#X obj 284 69 inlet~;
#X obj 274 59 inlet~;
#X connect 2 0 0 1;
#X connect 2 0 1 1;
#X connect 3 0 1 0;
#X connect 3 0 0 0;
#X connect 4 0 0 3;
#X connect 4 0 1 3;
#X connect 5 0 0 2;
#X connect 5 0 1 2;
#X connect 6 0 0 5;
#X connect 6 0 1 5;
#X connect 7 0 0 4;
#X connect 7 0 1 4;
#X connect 8 0 0 7;
#X connect 8 0 1 7;
#X connect 9 0 1 6;
#X connect 9 0 0 6;
