#N canvas 0 0 450 300 10;
#X obj 379 96 vsl 15 128 0 127 0 0 empty empty empty 0 -9 0 10 -262144
-1 -1 0 1;
#X obj 372 389 outlet;
#X obj 422 389 outlet;
#X msg 422 258 122;
#X msg 468 358 0;
#X msg 372 327 49;
#X msg 437 227 set \$1;
#X obj 468 329 delay 123;
#X obj 516 279 * 1.2;
#X msg 330 263 set \$1;
#X floatatom 546 242 5 0 0 0 - - -;
#X obj 330 96 vsl 15 128 0 127 0 0 empty empty empty 0 -9 0 10 -262144
-1 -1 0 1;
#X connect 0 0 6 0;
#X connect 0 0 8 0;
#X connect 3 0 2 0;
#X connect 3 0 5 0;
#X connect 3 0 7 0;
#X connect 4 0 2 0;
#X connect 5 0 1 0;
#X connect 6 0 3 0;
#X connect 7 0 4 0;
#X connect 7 0 5 0;
#X connect 8 0 7 1;
#X connect 9 0 5 0;
#X connect 10 0 8 1;
#X connect 11 0 9 0;
