#N canvas -226 313 903 461 10;
#X obj 64 72 samopal-double~;
#N canvas -398 511 986 479 controls-sapdb 0;
#X obj 36 14 nbx 5 14 -1e+37 1e+37 0 0 empty empty freh-m1 0 -8 0 10
-262144 -1 -1 -48 256;
#X obj 51 33 nbx 5 14 -1e+37 1e+37 0 0 empty empty empty 0 -8 0 10
-262144 -1 -1 101 256;
#X obj 51 143 nbx 5 14 -1e+37 1e+37 0 0 empty empty order-dhm1 0 -8
0 10 -262144 -1 -258699 4 256;
#X obj 276 28 outlet;
#X obj 309 47 outlet;
#X obj 356 157 outlet;
#X obj 116 14 nbx 5 14 -1e+37 1e+37 0 0 empty empty freh-m2 0 -8 0
10 -262144 -1 -1 32 256;
#X obj 131 33 nbx 5 14 -1e+37 1e+37 0 0 empty empty empty 0 -8 0 10
-262144 -1 -1 38 256;
#X obj 131 143 nbx 5 14 -1e+37 1e+37 0 0 empty empty order-dhm2 0 -8
0 10 -262144 -1 -258699 59 256;
#X obj 565 28 outlet;
#X obj 611 47 outlet;
#X obj 657 157 outlet;
#X obj 70 183 hsl 128 15 0 0.693 0 0 empty empty ampl-m0 -2 -8 0 10
-262144 -1 -1 12700 1;
#X obj 220 183 hsl 128 15 0 0.693 0 0 empty empty ampl-n73 -2 -8 0
10 -262144 -1 -1 12700 1;
#X obj 867 198 outlet;
#X obj 927 198 outlet;
#X obj 1127 238 outlet;
#X obj 1217 238 outlet;
#X msg 51 71 \; samopal-phase bang;
#X obj 230 224 nbx 5 14 -1e+37 1e+37 0 0 empty empty empty 0 -8 0 10
-262144 -1 -1 163 256;
#X obj 290 224 nbx 5 14 -1e+37 1e+37 0 0 empty empty empty 0 -8 0 10
-262144 -1 -1 117 256;
#X msg 228 86 \; zbj0-phase0 1;
#X connect 0 0 3 0;
#X connect 1 0 4 0;
#X connect 2 0 5 0;
#X connect 6 0 9 0;
#X connect 7 0 10 0;
#X connect 8 0 11 0;
#X connect 12 0 14 0;
#X connect 13 0 15 0;
#X connect 18 0 21 0;
#X connect 19 0 16 0;
#X connect 20 0 17 0;
#X restore 86 -37 pd controls-sapdb;
#X obj 59 142 max~;
#X obj 119 142 max~;
#X obj 90 179 min~;
#X obj 36 247 +~;
#N canvas 0 0 450 300 noise73~ 0;
#X obj 161 122 noise~;
#X obj 197 158 inlet~;
#X obj 160 185 vcf~ 440 73;
#X obj 159 239 outlet~;
#X connect 0 0 2 0;
#X connect 1 0 2 1;
#X connect 2 0 3 0;
#X restore 227 339 pd noise73~;
#X obj 243 264 +~;
#X obj 227 294 *~;
#X obj 260 238 p50~;
#X obj 226 238 p50~;
#X obj 50 334 p50~;
#X obj 35 355 *~;
#X obj 320 334 p50~;
#X obj 305 355 *~;
#X obj 111 10 fline;
#X obj 161 10 fline;
#X obj 166 371 +~;
#X obj 429 382 dac~ 5 6;
#X floatatom 454 319 5 0 0 0 - - -;
#X obj 430 355 lop~ 212;
#X connect 0 0 2 0;
#X connect 0 0 5 0;
#X connect 0 1 2 1;
#X connect 0 2 3 0;
#X connect 0 2 5 0;
#X connect 0 3 3 1;
#X connect 1 0 0 0;
#X connect 1 1 0 1;
#X connect 1 2 15 0;
#X connect 1 3 0 3;
#X connect 1 4 0 4;
#X connect 1 5 16 0;
#X connect 1 6 11 0;
#X connect 1 7 13 0;
#X connect 1 8 10 0;
#X connect 1 9 9 0;
#X connect 2 0 4 0;
#X connect 3 0 4 1;
#X connect 4 0 5 1;
#X connect 5 0 7 0;
#X connect 5 0 12 0;
#X connect 6 0 14 0;
#X connect 7 0 8 1;
#X connect 8 0 6 0;
#X connect 9 0 7 1;
#X connect 10 0 8 0;
#X connect 11 0 12 1;
#X connect 12 0 17 0;
#X connect 13 0 14 1;
#X connect 14 0 17 1;
#X connect 15 0 0 2;
#X connect 16 0 0 5;
#X connect 17 0 18 0;
#X connect 17 0 20 0;
#X connect 19 0 20 1;
#X connect 20 0 18 1;
