#N canvas 0 27 1001 603 10;
#X obj 186 88 osc~ 23;
#X obj 187 146 *~ 23;
#X obj 187 119 +~ 23;
#X obj 186 167 osc~ 23;
#X obj 187 225 *~ 23;
#X obj 186 245 osc~ 23;
#X obj 187 303 *~ 23;
#X obj 187 276 +~ 23;
#X obj 186 324 osc~ 23;
#X obj 187 382 *~ 23;
#X obj 187 355 +~ 23;
#X obj 186 402 osc~ 23;
#X obj 187 460 *~ 23;
#X obj 187 433 +~ 23;
#X obj 186 481 osc~ 23;
#X obj 187 539 *~ 23;
#X obj 187 512 +~ 23;
#X obj 186 559 osc~ 23;
#X obj 187 617 *~ 23;
#X obj 187 590 +~ 23;
#X obj 186 638 osc~ 23;
#X obj 187 696 *~ 23;
#X obj 187 669 +~ 23;
#X obj 245 88 osc~ 23;
#X obj 246 146 *~ 23;
#X obj 246 119 +~ 23;
#X obj 245 167 osc~ 23;
#X obj 246 225 *~ 23;
#X obj 246 198 +~ 23;
#X obj 245 245 osc~ 23;
#X obj 246 303 *~ 23;
#X obj 246 276 +~ 23;
#X obj 245 324 osc~ 23;
#X obj 246 382 *~ 23;
#X obj 246 355 +~ 23;
#X obj 245 402 osc~ 23;
#X obj 246 460 *~ 23;
#X obj 246 433 +~ 23;
#X obj 245 481 osc~ 23;
#X obj 246 539 *~ 23;
#X obj 246 512 +~ 23;
#X obj 245 559 osc~ 23;
#X obj 246 617 *~ 23;
#X obj 246 590 +~ 23;
#X obj 245 638 osc~ 23;
#X obj 246 696 *~ 23;
#X obj 246 669 +~ 23;
#X obj 305 88 osc~ 23;
#X obj 306 146 *~ 23;
#X obj 306 119 +~ 23;
#X obj 305 167 osc~ 23;
#X obj 306 225 *~ 23;
#X obj 306 198 +~ 23;
#X obj 305 245 osc~ 23;
#X obj 306 303 *~ 23;
#X obj 306 276 +~ 23;
#X obj 305 324 osc~ 23;
#X obj 306 382 *~ 23;
#X obj 306 355 +~ 23;
#X obj 305 402 osc~ 23;
#X obj 306 460 *~ 23;
#X obj 306 433 +~ 23;
#X obj 305 481 osc~ 23;
#X obj 187 198 +~ 23;
#X obj 305 559 osc~ 23;
#X obj 306 539 *~ 23;
#X obj 306 512 +~ 23;
#X obj -289 88 osc~ 23;
#X obj -288 146 *~ 23;
#X obj -288 119 +~ 23;
#X obj -289 167 osc~ 23;
#X obj -288 225 *~ 23;
#X obj -289 245 osc~ 23;
#X obj -288 303 *~ 23;
#X obj -288 276 +~ 23;
#X obj -289 324 osc~ 23;
#X obj -288 382 *~ 23;
#X obj -288 355 +~ 23;
#X obj -289 402 osc~ 23;
#X obj -288 460 *~ 23;
#X obj -288 433 +~ 23;
#X obj -289 481 osc~ 23;
#X obj -288 539 *~ 23;
#X obj -288 512 +~ 23;
#X obj -289 559 osc~ 23;
#X obj -288 617 *~ 23;
#X obj -288 590 +~ 23;
#X obj -289 638 osc~ 23;
#X obj -288 696 *~ 23;
#X obj -288 669 +~ 23;
#X obj -230 88 osc~ 23;
#X obj -229 146 *~ 23;
#X obj -229 119 +~ 23;
#X obj -230 167 osc~ 23;
#X obj -229 225 *~ 23;
#X obj -229 198 +~ 23;
#X obj -230 245 osc~ 23;
#X obj -229 303 *~ 23;
#X obj -229 276 +~ 23;
#X obj -230 324 osc~ 23;
#X obj -229 382 *~ 23;
#X obj -229 355 +~ 23;
#X obj -230 402 osc~ 23;
#X obj -229 460 *~ 23;
#X obj -229 433 +~ 23;
#X obj -230 481 osc~ 23;
#X obj -229 539 *~ 23;
#X obj -229 512 +~ 23;
#X obj -230 559 osc~ 23;
#X obj -229 617 *~ 23;
#X obj -229 590 +~ 23;
#X obj -230 638 osc~ 23;
#X obj -229 696 *~ 23;
#X obj -229 669 +~ 23;
#X obj -170 88 osc~ 23;
#X obj -169 146 *~ 23;
#X obj -169 119 +~ 23;
#X obj -170 167 osc~ 23;
#X obj -169 225 *~ 23;
#X obj -169 198 +~ 23;
#X obj -170 245 osc~ 23;
#X obj -169 303 *~ 23;
#X obj -169 276 +~ 23;
#X obj -170 324 osc~ 23;
#X obj -169 382 *~ 23;
#X obj -169 355 +~ 23;
#X obj -170 402 osc~ 23;
#X obj -169 460 *~ 23;
#X obj -169 433 +~ 23;
#X obj -170 481 osc~ 23;
#X obj -288 198 +~ 23;
#X obj -170 559 osc~ 23;
#X obj -169 539 *~ 23;
#X obj -169 512 +~ 23;
#X obj -79 644 *~;
#X obj 396 644 *~;
#X obj 413 449 line~;
#X msg 413 364 0 23;
#X msg 413 404 1 23;
#X obj -64 449 line~;
#X msg -64 364 0 23;
#X msg -64 404 1 23;
#X obj 522 389 bng 15 250 50 0 empty empty empty 0 -6 0 8 -262144 -1
-1;
#X obj 522 349 bng 15 250 50 0 empty empty empty 0 -6 0 8 -262144 -1
-1;
#X obj 396 663 lop~;
#X floatatom 419 644 5 0 0 0 - - -;
#X obj 395 687 dac~ 2;
#X obj 419 614 line;
#X msg 419 551 0 101010;
#X msg 474 597 23 101010;
#X obj -78 663 lop~;
#X floatatom -55 644 5 0 0 0 - - -;
#X obj -55 614 line;
#X msg -55 551 0 101010;
#X msg 0 597 23 101010;
#X obj -78 687 dac~ 1;
#X obj 521 179 hsl 512 23 23 23000 0 0 empty empty empty -2 -6 0 8
-262144 -1 -1 26900 1;
#X obj 29 519 phasor~;
#X obj 87 557 *~;
#X obj 30 541 +~ 23;
#X obj 89 589 bp~ 44 44;
#X obj 532 200 hsl 512 23 23 23000 0 0 empty empty empty -2 -6 0 8
-262144 -1 -1 18121 1;
#X msg 89 157 0 0;
#X floatatom 465 186 5 0 0 0 - - -;
#X obj 465 87 bng 15 250 50 0 empty empty empty 0 -6 0 8 -262144 -1
-1;
#X obj 465 113 metro 580;
#X obj 465 155 random 23032;
#X floatatom 544 134 5 0 0 0 - - -;
#X obj 544 35 bng 15 250 50 0 empty empty empty 0 -6 0 8 -262144 -1
-1;
#X obj 544 103 random 23032;
#X obj 544 61 metro 290;
#X floatatom 645 99 5 0 0 0 - - -;
#X obj 645 0 bng 15 250 50 0 empty empty empty 0 -6 0 8 -262144 -1
-1;
#X obj 645 26 metro 580;
#X obj 645 68 random 23032;
#X floatatom 724 47 5 0 0 0 - - -;
#X obj 724 -52 bng 15 250 50 0 empty empty empty 0 -6 0 8 -262144 -1
-1;
#X obj 724 16 random 23032;
#X obj 724 -26 metro 290;
#X connect 0 0 2 0;
#X connect 0 0 135 0;
#X connect 1 0 3 0;
#X connect 2 0 1 0;
#X connect 3 0 63 0;
#X connect 3 0 135 0;
#X connect 4 0 5 0;
#X connect 5 0 7 0;
#X connect 5 0 135 0;
#X connect 6 0 8 0;
#X connect 7 0 6 0;
#X connect 8 0 10 0;
#X connect 8 0 135 0;
#X connect 10 0 9 0;
#X connect 11 0 13 0;
#X connect 11 0 135 0;
#X connect 12 0 14 0;
#X connect 13 0 12 0;
#X connect 14 0 16 0;
#X connect 14 0 135 0;
#X connect 15 0 17 0;
#X connect 16 0 15 0;
#X connect 17 0 19 0;
#X connect 17 0 135 0;
#X connect 18 0 20 0;
#X connect 19 0 18 0;
#X connect 20 0 22 0;
#X connect 20 0 135 0;
#X connect 21 0 23 0;
#X connect 22 0 21 0;
#X connect 23 0 25 0;
#X connect 23 0 135 0;
#X connect 24 0 26 0;
#X connect 25 0 24 0;
#X connect 26 0 28 0;
#X connect 26 0 135 0;
#X connect 27 0 29 0;
#X connect 28 0 27 0;
#X connect 29 0 31 0;
#X connect 29 0 135 0;
#X connect 30 0 32 0;
#X connect 31 0 30 0;
#X connect 32 0 34 0;
#X connect 32 0 135 0;
#X connect 34 0 33 0;
#X connect 35 0 37 0;
#X connect 35 0 135 0;
#X connect 36 0 38 0;
#X connect 37 0 36 0;
#X connect 38 0 40 0;
#X connect 38 0 135 0;
#X connect 39 0 41 0;
#X connect 40 0 39 0;
#X connect 41 0 43 0;
#X connect 41 0 135 0;
#X connect 42 0 44 0;
#X connect 43 0 42 0;
#X connect 44 0 46 0;
#X connect 44 0 135 0;
#X connect 45 0 47 0;
#X connect 46 0 45 0;
#X connect 47 0 49 0;
#X connect 47 0 135 0;
#X connect 48 0 50 0;
#X connect 49 0 48 0;
#X connect 50 0 52 0;
#X connect 50 0 135 0;
#X connect 51 0 53 0;
#X connect 52 0 51 0;
#X connect 53 0 55 0;
#X connect 53 0 135 0;
#X connect 54 0 56 0;
#X connect 55 0 54 0;
#X connect 56 0 58 0;
#X connect 56 0 135 0;
#X connect 58 0 57 0;
#X connect 59 0 61 0;
#X connect 59 0 135 0;
#X connect 60 0 62 0;
#X connect 61 0 60 0;
#X connect 62 0 66 0;
#X connect 62 0 135 0;
#X connect 63 0 4 0;
#X connect 64 0 135 0;
#X connect 65 0 64 0;
#X connect 66 0 65 0;
#X connect 67 0 69 0;
#X connect 67 0 134 0;
#X connect 68 0 70 0;
#X connect 69 0 68 0;
#X connect 70 0 130 0;
#X connect 70 0 134 0;
#X connect 71 0 72 0;
#X connect 72 0 74 0;
#X connect 72 0 134 0;
#X connect 73 0 75 0;
#X connect 74 0 73 0;
#X connect 75 0 77 0;
#X connect 75 0 134 0;
#X connect 77 0 76 0;
#X connect 78 0 80 0;
#X connect 78 0 134 0;
#X connect 79 0 81 0;
#X connect 80 0 79 0;
#X connect 81 0 83 0;
#X connect 81 0 134 0;
#X connect 82 0 84 0;
#X connect 83 0 82 0;
#X connect 84 0 86 0;
#X connect 84 0 134 0;
#X connect 85 0 87 0;
#X connect 86 0 85 0;
#X connect 87 0 89 0;
#X connect 87 0 134 0;
#X connect 88 0 90 0;
#X connect 89 0 88 0;
#X connect 90 0 92 0;
#X connect 90 0 134 0;
#X connect 91 0 93 0;
#X connect 92 0 91 0;
#X connect 93 0 95 0;
#X connect 93 0 134 0;
#X connect 94 0 96 0;
#X connect 95 0 94 0;
#X connect 96 0 98 0;
#X connect 96 0 134 0;
#X connect 97 0 99 0;
#X connect 98 0 97 0;
#X connect 99 0 101 0;
#X connect 99 0 134 0;
#X connect 101 0 100 0;
#X connect 102 0 104 0;
#X connect 102 0 134 0;
#X connect 103 0 105 0;
#X connect 104 0 103 0;
#X connect 105 0 107 0;
#X connect 105 0 134 0;
#X connect 106 0 108 0;
#X connect 107 0 106 0;
#X connect 108 0 110 0;
#X connect 108 0 134 0;
#X connect 109 0 111 0;
#X connect 110 0 109 0;
#X connect 111 0 113 0;
#X connect 111 0 134 0;
#X connect 112 0 114 0;
#X connect 113 0 112 0;
#X connect 114 0 116 0;
#X connect 114 0 134 0;
#X connect 115 0 117 0;
#X connect 116 0 115 0;
#X connect 117 0 119 0;
#X connect 117 0 134 0;
#X connect 118 0 120 0;
#X connect 119 0 118 0;
#X connect 120 0 122 0;
#X connect 120 0 134 0;
#X connect 121 0 123 0;
#X connect 122 0 121 0;
#X connect 123 0 125 0;
#X connect 123 0 134 0;
#X connect 125 0 124 0;
#X connect 126 0 128 0;
#X connect 126 0 134 0;
#X connect 127 0 129 0;
#X connect 128 0 127 0;
#X connect 129 0 133 0;
#X connect 129 0 134 0;
#X connect 130 0 71 0;
#X connect 131 0 134 0;
#X connect 132 0 131 0;
#X connect 133 0 132 0;
#X connect 134 0 150 0;
#X connect 134 0 158 1;
#X connect 135 0 144 0;
#X connect 135 0 158 1;
#X connect 136 0 135 1;
#X connect 137 0 136 0;
#X connect 137 0 114 1;
#X connect 137 0 90 1;
#X connect 137 0 67 1;
#X connect 138 0 136 0;
#X connect 138 0 64 1;
#X connect 139 0 134 1;
#X connect 140 0 139 0;
#X connect 140 0 47 1;
#X connect 140 0 23 1;
#X connect 140 0 0 1;
#X connect 141 0 139 0;
#X connect 141 0 131 1;
#X connect 142 0 138 0;
#X connect 142 0 141 0;
#X connect 143 0 137 0;
#X connect 143 0 140 0;
#X connect 144 0 146 0;
#X connect 145 0 144 1;
#X connect 145 0 160 2;
#X connect 147 0 145 0;
#X connect 148 0 147 0;
#X connect 149 0 147 0;
#X connect 150 0 155 0;
#X connect 151 0 150 1;
#X connect 151 0 160 1;
#X connect 152 0 151 0;
#X connect 153 0 152 0;
#X connect 154 0 152 0;
#X connect 156 0 157 0;
#X connect 157 0 159 0;
#X connect 158 0 160 0;
#X connect 159 0 158 0;
#X connect 160 0 150 0;
#X connect 160 0 144 0;
#X connect 161 0 151 0;
#X connect 161 0 145 0;
#X connect 162 0 147 0;
#X connect 162 0 152 0;
#X connect 162 0 139 0;
#X connect 162 0 136 0;
#X connect 163 0 161 0;
#X connect 164 0 165 0;
#X connect 164 0 166 0;
#X connect 165 0 166 0;
#X connect 165 0 168 0;
#X connect 165 0 172 0;
#X connect 165 0 176 0;
#X connect 166 0 163 0;
#X connect 167 0 166 1;
#X connect 168 0 169 0;
#X connect 168 0 170 0;
#X connect 169 0 167 0;
#X connect 170 0 169 0;
#X connect 171 0 165 1;
#X connect 172 0 173 0;
#X connect 172 0 174 0;
#X connect 173 0 174 0;
#X connect 174 0 171 0;
#X connect 175 0 174 1;
#X connect 175 0 170 1;
#X connect 176 0 177 0;
#X connect 176 0 178 0;
#X connect 177 0 175 0;
#X connect 178 0 177 0;
#X connect 178 0 172 0;
#X connect 178 0 168 0;
#X connect 178 0 164 0;
