#N canvas 23 385 450 300 10;
#X obj 315 8 harmon~;
#X obj 184 174 dac~;
#N canvas 0 0 999 684 delin 1;
#X obj 152 6 inlet~;
#X obj 152 199 delwrite~ hc1 1024;
#X obj 151 161 vd~ hc1;
#X obj 151 255 outlet~;
#X floatatom 279 100 5 0 0 0 hc1-time dl-hc1-time -;
#X floatatom 308 170 5 0 0 0 hc1-fampl dl-hc1-fampl -;
#X floatatom 308 216 5 0 0 0 hc1-oampl dl-hc1-oampl -;
#X obj 152 183 expr~ $v1 * $f2 * 0.001;
#X obj 152 229 expr~ $v1 * $f2 * 0.001;
#X obj 151 135 expr~ $v1 * $f2 + 1;
#X obj 152 83 osc~ 0;
#X obj 279 114 p50;
#X floatatom 83 37 5 0 0 0 hc1-opf dl-hc1-opf -;
#X obj 205 84 phasor~;
#X obj 152 51 +;
#X obj 205 51 +;
#X obj 205 -16 r dl-hc1-phasor-offset;
#X obj 205 34 t b f;
#X obj 152 -40 r dl-hc1-oscil-offset;
#X obj 152 34 t b f;
#X obj 472 6 inlet~;
#X obj 471 255 outlet~;
#X floatatom 599 100 5 0 0 0 hc2-time dl-hc2-time -;
#X floatatom 628 170 5 0 0 0 hc2-fampl dl-hc2-fampl -;
#X floatatom 628 216 5 0 0 0 hc2-oampl dl-hc2-oampl -;
#X obj 472 183 expr~ $v1 * $f2 * 0.001;
#X obj 472 229 expr~ $v1 * $f2 * 0.001;
#X obj 471 135 expr~ $v1 * $f2 + 1;
#X obj 472 83 osc~ 0;
#X obj 599 114 p50;
#X floatatom 403 37 5 0 0 0 hc2-opf dl-hc2-opf -;
#X obj 525 84 phasor~;
#X obj 472 51 +;
#X obj 525 51 +;
#X obj 525 34 t b f;
#X obj 472 34 t b f;
#X obj 472 -40 r dl-hc2-oscil-offset;
#X obj 525 -16 r dl-hc2-phasor-offset;
#X obj 472 199 delwrite~ hc2 1024;
#X obj 471 161 vd~ hc2;
#X obj 792 6 inlet~;
#X obj 791 255 outlet~;
#X floatatom 919 100 5 0 0 0 hc3-time dl-hc3-time -;
#X floatatom 948 170 5 0 0 0 hc3-fampl dl-hc3-fampl -;
#X floatatom 948 216 5 0 0 0 hc3-oampl dl-hc3-oampl -;
#X obj 792 183 expr~ $v1 * $f2 * 0.001;
#X obj 792 229 expr~ $v1 * $f2 * 0.001;
#X obj 791 135 expr~ $v1 * $f2 + 1;
#X obj 792 83 osc~ 0;
#X obj 919 114 p50;
#X floatatom 723 37 5 0 0 0 hc3-opf dl-hc3-opf -;
#X obj 845 84 phasor~;
#X obj 792 51 +;
#X obj 845 51 +;
#X obj 845 34 t b f;
#X obj 792 34 t b f;
#X obj 1112 6 inlet~;
#X obj 1111 255 outlet~;
#X floatatom 1239 100 5 0 0 0 hc4-time dl-hc4-time -;
#X floatatom 1268 170 5 0 0 0 hc4-fampl dl-hc4-fampl -;
#X floatatom 1268 216 5 0 0 0 hc4-oampl dl-hc4-oampl -;
#X obj 1112 183 expr~ $v1 * $f2 * 0.001;
#X obj 1112 229 expr~ $v1 * $f2 * 0.001;
#X obj 1111 135 expr~ $v1 * $f2 + 1;
#X obj 1112 83 osc~ 0;
#X obj 1239 114 p50;
#X floatatom 1043 37 5 0 0 0 hc4-opf dl-hc4-opf -;
#X obj 1165 84 phasor~;
#X obj 1112 51 +;
#X obj 1165 51 +;
#X obj 1165 34 t b f;
#X obj 1112 34 t b f;
#X obj 792 -40 r dl-hc3-oscil-offset;
#X obj 845 -16 r dl-hc3-phasor-offset;
#X obj 1112 -40 r dl-hc4-oscil-offset;
#X obj 1165 -16 r dl-hc4-phasor-offset;
#X obj 792 199 delwrite~ hc3 1024;
#X obj 1112 199 delwrite~ hc4 1024;
#X obj 791 161 vd~ hc3;
#X obj 1112 161 vd~ hc4;
#X connect 0 0 1 0;
#X connect 2 0 7 0;
#X connect 4 0 11 0;
#X connect 5 0 7 1;
#X connect 6 0 8 1;
#X connect 7 0 1 0;
#X connect 7 0 8 0;
#X connect 8 0 3 0;
#X connect 9 0 2 0;
#X connect 10 0 9 0;
#X connect 11 0 9 1;
#X connect 12 0 14 0;
#X connect 12 0 15 0;
#X connect 13 0 9 0;
#X connect 14 0 10 0;
#X connect 15 0 13 0;
#X connect 16 0 17 0;
#X connect 17 0 15 0;
#X connect 17 1 15 1;
#X connect 18 0 19 0;
#X connect 19 0 14 0;
#X connect 19 1 14 1;
#X connect 20 0 38 0;
#X connect 22 0 29 0;
#X connect 23 0 25 1;
#X connect 24 0 26 1;
#X connect 25 0 26 0;
#X connect 25 0 38 0;
#X connect 26 0 21 0;
#X connect 27 0 39 0;
#X connect 28 0 27 0;
#X connect 29 0 27 1;
#X connect 30 0 32 0;
#X connect 30 0 33 0;
#X connect 31 0 27 0;
#X connect 32 0 28 0;
#X connect 33 0 31 0;
#X connect 34 0 33 0;
#X connect 34 1 33 1;
#X connect 35 0 32 0;
#X connect 35 1 32 1;
#X connect 36 0 35 0;
#X connect 37 0 34 0;
#X connect 39 0 25 0;
#X connect 40 0 76 0;
#X connect 42 0 49 0;
#X connect 43 0 45 1;
#X connect 44 0 46 1;
#X connect 45 0 46 0;
#X connect 45 0 76 0;
#X connect 46 0 41 0;
#X connect 47 0 78 0;
#X connect 48 0 47 0;
#X connect 49 0 47 1;
#X connect 50 0 52 0;
#X connect 50 0 53 0;
#X connect 51 0 47 0;
#X connect 52 0 48 0;
#X connect 53 0 51 0;
#X connect 54 0 53 0;
#X connect 54 1 53 1;
#X connect 55 0 52 0;
#X connect 55 1 52 1;
#X connect 56 0 77 0;
#X connect 58 0 65 0;
#X connect 59 0 61 1;
#X connect 60 0 62 1;
#X connect 61 0 62 0;
#X connect 61 0 77 0;
#X connect 62 0 57 0;
#X connect 63 0 79 0;
#X connect 64 0 63 0;
#X connect 65 0 63 1;
#X connect 66 0 68 0;
#X connect 66 0 69 0;
#X connect 67 0 63 0;
#X connect 68 0 64 0;
#X connect 69 0 67 0;
#X connect 70 0 69 0;
#X connect 70 1 69 1;
#X connect 71 0 68 0;
#X connect 71 1 68 1;
#X connect 72 0 55 0;
#X connect 73 0 54 0;
#X connect 74 0 71 0;
#X connect 75 0 70 0;
#X connect 78 0 45 0;
#X connect 79 0 61 0;
#X restore 251 82 pd delin;
#X obj 37 147 p50~;
#X obj 21 195 *~;
#X obj 40 122 hsl 128 20 0 1 0 0 empty empty empty -2 -8 0 10 -262144
-1 -1 5500 1;
#N canvas 300 24 1036 583 dl-controls 0;
#X obj 104 77 cnv 50 200 100 empty empty empty 20 12 0 14 -241291 -66577
0;
#X floatatom 257 102 5 0 0 0 hc1-oscil-offset - dl-hc1-oscil-offset
;
#X floatatom 257 122 5 0 0 0 hc1-phasor-offset - dl-hc1-phasor-offset
;
#X floatatom 265 79 5 0 0 0 hc1-opf - dl-hc1-opf;
#X floatatom 166 80 5 0 0 0 hc1-time - dl-hc1-time;
#X floatatom 207 140 5 0 0 0 hc1-fampl - dl-hc1-fampl;
#X floatatom 207 161 5 0 0 0 hc1-oampl - dl-hc1-oampl;
#X obj 314 77 cnv 50 200 100 empty empty empty 20 12 0 14 -241291 -66577
0;
#X floatatom 467 102 5 0 0 0 hc2-oscil-offset - dl-hc2-oscil-offset
;
#X floatatom 467 122 5 0 0 0 hc2-phasor-offset - dl-hc2-phasor-offset
;
#X floatatom 475 79 5 0 0 0 hc2-opf - dl-hc2-opf;
#X floatatom 376 80 5 0 0 0 hc2-time - dl-hc2-time;
#X floatatom 417 140 5 0 0 0 hc2-fampl - dl-hc2-fampl;
#X floatatom 417 161 5 0 0 0 hc2-oampl - dl-hc2-oampl;
#X obj 524 77 cnv 50 200 100 empty empty empty 20 12 0 14 -241291 -66577
0;
#X floatatom 677 102 5 0 0 0 hc3-oscil-offset - dl-hc3-oscil-offset
;
#X floatatom 677 122 5 0 0 0 hc3-phasor-offset - dl-hc3-phasor-offset
;
#X floatatom 685 79 5 0 0 0 hc3-opf - dl-hc3-opf;
#X floatatom 586 80 5 0 0 0 hc3-time - dl-hc3-time;
#X floatatom 627 140 5 0 0 0 hc3-fampl - dl-hc3-fampl;
#X floatatom 627 161 5 0 0 0 hc3-oampl - dl-hc3-oampl;
#X obj 734 77 cnv 50 200 100 empty empty empty 20 12 0 14 -241291 -66577
0;
#X floatatom 887 102 5 0 0 0 hc4-oscil-offset - dl-hc4-oscil-offset
;
#X floatatom 887 122 5 0 0 0 hc4-phasor-offset - dl-hc4-phasor-offset
;
#X floatatom 895 79 5 0 0 0 hc4-opf - dl-hc4-opf;
#X floatatom 796 80 5 0 0 0 hc4-time - dl-hc4-time;
#X floatatom 837 140 5 0 0 0 hc4-fampl - dl-hc4-fampl;
#X floatatom 837 161 5 0 0 0 hc4-oampl - dl-hc4-oampl;
#X obj 44 -51 vsl 15 128 0 1024 0 0 empty empty empty 0 -9 0 10 -262144
-1 -1 300 1;
#X obj 73 -118 vsl 15 128 0 127 0 0 empty empty empty 0 -9 0 10 -262144
-1 -1 10100 1;
#X obj 138 -216 unpack 0 0 0 0 0 0 0 0 0 0 0 0 0 0 0 0;
#X obj 138 -240 r harmod-ampl;
#X obj 223 -115 expr ($f1 + $f2 + $f3 + $f4) / 4;
#X obj 433 -85 expr ($f1 + $f2 + $f3 + $f4) / 4;
#X obj 643 -65 expr ($f1 + $f2 + $f3 + $f4) / 4;
#X obj 853 -35 expr ($f1 + $f2 + $f3 + $f4) / 4;
#X obj 219 -7 tgl 15 0 empty empty empty 17 7 0 10 -262144 -1 -1 1
1;
#X obj 138 -66 t b;
#X msg 138 -10 bang;
#X obj 207 7 expr $f1 * $f2 * 100;
#X obj 429 -7 tgl 15 0 empty empty empty 17 7 0 10 -262144 -1 -1 1
1;
#X obj 417 7 expr $f1 * $f2 * 100;
#X obj 639 -7 tgl 15 0 empty empty empty 17 7 0 10 -262144 -1 -1 1
1;
#X obj 627 7 expr $f1 * $f2 * 100;
#X obj 849 -7 tgl 15 0 empty empty empty 17 7 0 10 -262144 -1 -1 1
1;
#X obj 837 7 expr $f1 * $f2 * 100;
#X obj 73 62 fline;
#X obj 73 34 mtof;
#X connect 28 0 4 0;
#X connect 28 0 11 0;
#X connect 28 0 18 0;
#X connect 28 0 25 0;
#X connect 29 0 47 0;
#X connect 30 0 32 0;
#X connect 30 1 32 1;
#X connect 30 2 32 2;
#X connect 30 3 32 3;
#X connect 30 4 33 0;
#X connect 30 5 33 1;
#X connect 30 6 33 2;
#X connect 30 7 33 3;
#X connect 30 8 34 0;
#X connect 30 9 34 1;
#X connect 30 10 34 2;
#X connect 30 11 34 3;
#X connect 30 12 35 0;
#X connect 30 13 35 1;
#X connect 30 14 35 2;
#X connect 30 15 35 3;
#X connect 31 0 30 0;
#X connect 31 0 37 0;
#X connect 32 0 39 1;
#X connect 33 0 41 1;
#X connect 34 0 43 1;
#X connect 35 0 45 1;
#X connect 36 0 39 0;
#X connect 37 0 38 0;
#X connect 38 0 39 0;
#X connect 38 0 41 0;
#X connect 38 0 43 0;
#X connect 38 0 45 0;
#X connect 39 0 5 0;
#X connect 40 0 41 0;
#X connect 41 0 12 0;
#X connect 42 0 43 0;
#X connect 43 0 19 0;
#X connect 44 0 45 0;
#X connect 45 0 26 0;
#X connect 46 0 3 0;
#X connect 46 0 10 0;
#X connect 46 0 17 0;
#X connect 46 0 24 0;
#X connect 47 0 46 0;
#X restore 132 28 pd dl-controls;
#N canvas -48 339 999 684 hc-controls 0;
#X floatatom 123 36 5 0 0 0 fund - fund-top;
#X floatatom 123 227 5 0 0 0 fund - fund-bot;
#X floatatom 160 56 5 0 0 0 - - -;
#X floatatom 200 56 5 0 0 0 - - -;
#X floatatom 240 56 5 0 0 0 - - -;
#X floatatom 280 56 5 0 0 0 - - -;
#X floatatom 320 56 5 0 0 0 - - -;
#X floatatom 360 56 5 0 0 0 - - -;
#X floatatom 400 56 5 0 0 0 - - -;
#X floatatom 440 56 5 0 0 0 - - -;
#X floatatom 490 56 5 0 0 0 - - -;
#X floatatom 530 56 5 0 0 0 - - -;
#X floatatom 570 56 5 0 0 0 - - -;
#X floatatom 610 56 5 0 0 0 - - -;
#X floatatom 650 56 5 0 0 0 - - -;
#X floatatom 690 56 5 0 0 0 - - -;
#X floatatom 730 56 5 0 0 0 - - -;
#X floatatom 770 56 5 0 0 0 - - -;
#X obj 160 75 vsl 15 128 0 6 0 0 empty empty empty 0 -9 0 10 -262144
-1 -1 2300 1;
#X obj 200 75 vsl 15 128 0 6 0 0 empty empty empty 0 -9 0 10 -262144
-1 -1 8900 1;
#X obj 240 75 vsl 15 128 0 6 0 0 empty empty empty 0 -9 0 10 -262144
-1 -1 1500 1;
#X obj 280 75 vsl 15 128 0 6 0 0 empty empty empty 0 -9 0 10 -262144
-1 -1 2700 1;
#X obj 320 75 vsl 15 128 0 6 0 0 empty empty empty 0 -9 0 10 -262144
-1 -1 1200 1;
#X obj 360 75 vsl 15 128 0 6 0 0 empty empty empty 0 -9 0 10 -262144
-1 -1 1600 1;
#X obj 400 75 vsl 15 128 0 6 0 0 empty empty empty 0 -9 0 10 -262144
-1 -1 9500 1;
#X obj 440 75 vsl 15 128 0 6 0 0 empty empty empty 0 -9 0 10 -262144
-1 -1 10600 1;
#X obj 490 75 vsl 15 128 0 6 0 0 empty empty empty 0 -9 0 10 -262144
-1 -1 2100 1;
#X obj 530 75 vsl 15 128 0 6 0 0 empty empty empty 0 -9 0 10 -262144
-1 -1 1900 1;
#X obj 570 75 vsl 15 128 0 6 0 0 empty empty empty 0 -9 0 10 -262144
-1 -1 5900 1;
#X obj 610 75 vsl 15 128 0 6 0 0 empty empty empty 0 -9 0 10 -262144
-1 -1 3900 1;
#X obj 650 75 vsl 15 128 0 6 0 0 empty empty empty 0 -9 0 10 -262144
-1 -1 11700 1;
#X obj 690 75 vsl 15 128 0 6 0 0 empty empty empty 0 -9 0 10 -262144
-1 -1 1800 1;
#X obj 730 75 vsl 15 128 0 6 0 0 empty empty empty 0 -9 0 10 -262144
-1 -1 1300 1;
#X obj 770 75 vsl 15 128 0 6 0 0 empty empty empty 0 -9 0 10 -262144
-1 -1 2500 1;
#X obj 819 96 s harmod-top;
#X obj 819 70 pack 0 0 0 0 0 0 0 0 0 0 0 0 0 0 0 0;
#X obj 819 206 pack 0 0 0 0 0 0 0 0 0 0 0 0 0 0 0 0;
#X obj 819 232 s harmod-ampl;
#X floatatom 160 246 5 0 0 0 - - -;
#X floatatom 200 246 5 0 0 0 - - -;
#X floatatom 240 246 5 0 0 0 - - -;
#X floatatom 280 246 5 0 0 0 - - -;
#X floatatom 320 246 5 0 0 0 - - -;
#X floatatom 360 246 5 0 0 0 - - -;
#X floatatom 400 246 5 0 0 0 - - -;
#X floatatom 440 246 5 0 0 0 - - -;
#X floatatom 490 246 5 0 0 0 - - -;
#X floatatom 530 246 5 0 0 0 - - -;
#X floatatom 570 246 5 0 0 0 - - -;
#X floatatom 610 246 5 0 0 0 - - -;
#X floatatom 650 246 5 0 0 0 - - -;
#X floatatom 690 246 5 0 0 0 - - -;
#X floatatom 730 246 5 0 0 0 - - -;
#X floatatom 770 246 5 0 0 0 - - -;
#X obj 819 260 pack 0 0 0 0 0 0 0 0 0 0 0 0 0 0 0 0;
#X obj 819 286 s harmod-bot;
#X msg 819 19 bang;
#X msg 123 2 bang;
#X connect 2 0 35 0;
#X connect 3 0 35 1;
#X connect 4 0 35 2;
#X connect 5 0 35 3;
#X connect 6 0 35 4;
#X connect 7 0 35 5;
#X connect 8 0 35 6;
#X connect 9 0 35 7;
#X connect 10 0 35 8;
#X connect 11 0 35 9;
#X connect 12 0 35 10;
#X connect 13 0 35 11;
#X connect 14 0 35 12;
#X connect 15 0 35 13;
#X connect 16 0 35 14;
#X connect 17 0 35 15;
#X connect 18 0 36 0;
#X connect 19 0 36 1;
#X connect 20 0 36 2;
#X connect 21 0 36 3;
#X connect 22 0 36 4;
#X connect 23 0 36 5;
#X connect 24 0 36 6;
#X connect 25 0 36 7;
#X connect 26 0 36 8;
#X connect 27 0 36 9;
#X connect 28 0 36 10;
#X connect 29 0 36 11;
#X connect 30 0 36 12;
#X connect 31 0 36 13;
#X connect 32 0 36 14;
#X connect 33 0 36 15;
#X connect 35 0 34 0;
#X connect 36 0 37 0;
#X connect 38 0 54 0;
#X connect 39 0 54 1;
#X connect 40 0 54 2;
#X connect 41 0 54 3;
#X connect 42 0 54 4;
#X connect 43 0 54 5;
#X connect 44 0 54 6;
#X connect 45 0 54 7;
#X connect 46 0 54 8;
#X connect 47 0 54 9;
#X connect 48 0 54 10;
#X connect 49 0 54 11;
#X connect 50 0 54 12;
#X connect 51 0 54 13;
#X connect 52 0 54 14;
#X connect 53 0 54 15;
#X connect 54 0 55 0;
#X connect 56 0 35 0;
#X connect 56 0 36 0;
#X connect 56 0 54 0;
#X connect 57 0 0 0;
#X connect 57 0 56 0;
#X connect 57 0 1 0;
#X restore 132 5 pd hc-controls;
#X connect 0 0 4 0;
#X connect 0 1 2 0;
#X connect 0 2 2 1;
#X connect 0 3 2 2;
#X connect 0 4 2 3;
#X connect 2 0 1 0;
#X connect 2 0 1 1;
#X connect 2 1 1 0;
#X connect 2 1 1 1;
#X connect 2 2 1 0;
#X connect 2 2 1 1;
#X connect 2 3 1 0;
#X connect 2 3 1 1;
#X connect 3 0 4 1;
#X connect 4 0 1 1;
#X connect 4 0 1 0;
#X connect 5 0 3 0;
