#N canvas -170 376 999 684 10;
#X floatatom 148 120 5 0 0 0 - - -;
#X floatatom 128 183 5 0 0 0 - - -;
#X floatatom 128 89 5 0 0 0 - - -;
#X floatatom 248 120 5 0 0 0 - - -;
#X floatatom 228 183 5 0 0 0 - - -;
#X floatatom 228 89 5 0 0 0 - - -;
#X floatatom 338 120 5 0 0 0 - - -;
#X floatatom 318 183 5 0 0 0 - - -;
#X floatatom 318 89 5 0 0 0 - - -;
#X floatatom 438 120 5 0 0 0 - - -;
#X floatatom 418 183 5 0 0 0 - - -;
#X floatatom 418 89 5 0 0 0 - - -;
#X obj 175 395 *~;
#X floatatom 538 513 5 0 0 0 - - -;
#X floatatom 538 439 5 0 0 0 - - -;
#X floatatom 638 513 5 0 0 0 - - -;
#X floatatom 638 439 5 0 0 0 - - -;
#X floatatom 728 513 5 0 0 0 - - -;
#X floatatom 728 439 5 0 0 0 - - -;
#X floatatom 828 513 5 0 0 0 - - -;
#X floatatom 828 439 5 0 0 0 - - -;
#X msg 1011 353 bang;
#X obj 128 160 hu~ 1;
#X obj 116 359 +~;
#X floatatom 132 341 5 0 0 0 - - -;
#X obj 176 438 *~ 0.01;
#X obj 538 490 hu~ 1;
#X obj 228 160 hu~ 1;
#X obj 318 160 hu~ 1;
#X obj 418 160 hu~ 1;
#X obj 638 490 hu~ 1;
#X obj 728 490 hu~ 1;
#X obj 828 490 hu~ 1;
#X floatatom 1118 120 5 0 0 0 - - -;
#X floatatom 1098 183 5 0 0 0 - - -;
#X floatatom 1098 89 5 0 0 0 - - -;
#X floatatom 1218 120 5 0 0 0 - - -;
#X floatatom 1198 183 5 0 0 0 - - -;
#X floatatom 1198 89 5 0 0 0 - - -;
#X floatatom 1308 120 5 0 0 0 - - -;
#X floatatom 1288 183 5 0 0 0 - - -;
#X floatatom 1288 89 5 0 0 0 - - -;
#X floatatom 1408 120 5 0 0 0 - - -;
#X floatatom 1388 183 5 0 0 0 - - -;
#X floatatom 1388 89 5 0 0 0 - - -;
#X obj 1145 395 *~;
#X floatatom 1508 513 5 0 0 0 - - -;
#X floatatom 1508 439 5 0 0 0 - - -;
#X floatatom 1608 513 5 0 0 0 - - -;
#X floatatom 1608 439 5 0 0 0 - - -;
#X floatatom 1698 513 5 0 0 0 - - -;
#X floatatom 1698 439 5 0 0 0 - - -;
#X floatatom 1798 513 5 0 0 0 - - -;
#X floatatom 1798 439 5 0 0 0 - - -;
#X msg 1981 353 bang;
#X obj 1098 160 hu~ 1;
#X obj 1086 359 +~;
#X floatatom 1102 341 5 0 0 0 - - -;
#X obj 1146 438 *~ 0.01;
#X obj 1508 490 hu~ 1;
#X obj 1198 160 hu~ 1;
#X obj 1288 160 hu~ 1;
#X obj 1388 160 hu~ 1;
#X obj 1608 490 hu~ 1;
#X obj 1698 490 hu~ 1;
#X obj 1798 490 hu~ 1;
#X floatatom 148 670 5 0 0 0 - - -;
#X floatatom 128 733 5 0 0 0 - - -;
#X floatatom 128 639 5 0 0 0 - - -;
#X floatatom 248 670 5 0 0 0 - - -;
#X floatatom 228 733 5 0 0 0 - - -;
#X floatatom 228 639 5 0 0 0 - - -;
#X floatatom 338 670 5 0 0 0 - - -;
#X floatatom 318 733 5 0 0 0 - - -;
#X floatatom 318 639 5 0 0 0 - - -;
#X floatatom 438 670 5 0 0 0 - - -;
#X floatatom 418 733 5 0 0 0 - - -;
#X floatatom 418 639 5 0 0 0 - - -;
#X obj 175 945 *~;
#X floatatom 538 1063 5 0 0 0 - - -;
#X floatatom 538 989 5 0 0 0 - - -;
#X floatatom 638 1063 5 0 0 0 - - -;
#X floatatom 638 989 5 0 0 0 - - -;
#X floatatom 728 1063 5 0 0 0 - - -;
#X floatatom 728 989 5 0 0 0 - - -;
#X floatatom 828 1063 5 0 0 0 - - -;
#X floatatom 828 989 5 0 0 0 - - -;
#X msg 1011 903 bang;
#X obj 128 710 hu~ 1;
#X obj 116 909 +~;
#X floatatom 132 891 5 0 0 0 - - -;
#X obj 176 988 *~ 0.01;
#X obj 538 1040 hu~ 1;
#X obj 228 710 hu~ 1;
#X obj 318 710 hu~ 1;
#X obj 418 710 hu~ 1;
#X obj 638 1040 hu~ 1;
#X obj 728 1040 hu~ 1;
#X obj 828 1040 hu~ 1;
#X floatatom 1118 670 5 0 0 0 - - -;
#X floatatom 1098 733 5 0 0 0 - - -;
#X floatatom 1098 639 5 0 0 0 - - -;
#X floatatom 1218 670 5 0 0 0 - - -;
#X floatatom 1198 733 5 0 0 0 - - -;
#X floatatom 1198 639 5 0 0 0 - - -;
#X floatatom 1308 670 5 0 0 0 - - -;
#X floatatom 1288 733 5 0 0 0 - - -;
#X floatatom 1288 639 5 0 0 0 - - -;
#X floatatom 1408 670 5 0 0 0 - - -;
#X floatatom 1388 733 5 0 0 0 - - -;
#X floatatom 1388 639 5 0 0 0 - - -;
#X obj 1145 945 *~;
#X floatatom 1508 1063 5 0 0 0 - - -;
#X floatatom 1508 989 5 0 0 0 - - -;
#X floatatom 1608 1063 5 0 0 0 - - -;
#X floatatom 1608 989 5 0 0 0 - - -;
#X floatatom 1698 1063 5 0 0 0 - - -;
#X floatatom 1698 989 5 0 0 0 - - -;
#X floatatom 1798 1063 5 0 0 0 - - -;
#X floatatom 1798 989 5 0 0 0 - - -;
#X msg 1981 903 bang;
#X obj 1098 710 hu~ 1;
#X obj 1086 909 +~;
#X floatatom 1102 891 5 0 0 0 - - -;
#X obj 1146 988 *~ 0.01;
#X obj 1508 1040 hu~ 1;
#X obj 1198 710 hu~ 1;
#X obj 1288 710 hu~ 1;
#X obj 1388 710 hu~ 1;
#X obj 1608 1040 hu~ 1;
#X obj 1698 1040 hu~ 1;
#X obj 1798 1040 hu~ 1;
#X obj 34 571 r fund-fline-top;
#X obj 444 901 r fund-fline-bot;
#X obj 1414 901 r fund-fline-bot;
#X obj 1004 571 r fund-fline-top;
#X obj 1004 21 r fund-fline-top;
#X obj 1414 351 r fund-fline-bot;
#X obj 34 21 r fund-fline-top;
#N canvas 34 267 932 380 process 0;
#X obj 215 134 s fund-fline-top;
#X obj 345 134 s fund-fline-bot;
#X obj 215 81 r fund-top;
#X obj 215 109 fline;
#X obj 345 109 fline;
#X obj 345 81 r fund-bot;
#X connect 2 0 3 0;
#X connect 3 0 0 0;
#X connect 4 0 1 0;
#X connect 5 0 4 0;
#X restore 206 -55 pd process;
#X obj 444 351 r fund-fline-bot;
#X obj -179 -89 r harmod-top;
#X obj -179 -65 unpack 0 0 0 0 0 0 0 0 0 0 0 0 0 0 0 0;
#X obj 676 217 unpack 0 0 0 0 0 0 0 0 0 0 0 0 0 0 0 0;
#X obj 676 193 r harmod-bot;
#X obj 212 -86 unpack 0 0 0 0 0 0 0 0 0 0 0 0 0 0 0 0;
#X obj 212 -110 r harmod-ampl;
#X obj -136 723 outlet~;
#X obj 176 478 outlet~;
#X obj 176 1038 outlet~;
#X obj 1146 1038 outlet~;
#X obj 1146 478 outlet~;
#X obj 148 139 p50~;
#X obj 248 139 p50~;
#X obj 338 139 p50~;
#X obj 438 139 p50~;
#X obj 338 689 p50~;
#X obj 438 689 p50~;
#X obj 248 689 p50~;
#X obj 148 689 p50~;
#X obj 1408 689 p50~;
#X obj 1308 689 p50~;
#X obj 1218 689 p50~;
#X obj 1118 689 p50~;
#X obj 1408 139 p50~;
#X obj 1308 139 p50~;
#X obj 1218 139 p50~;
#X obj 1118 139 p50~;
#X connect 0 0 152 0;
#X connect 2 0 22 0;
#X connect 3 0 153 0;
#X connect 5 0 27 0;
#X connect 6 0 154 0;
#X connect 8 0 28 0;
#X connect 9 0 155 0;
#X connect 11 0 29 0;
#X connect 12 0 25 0;
#X connect 14 0 26 0;
#X connect 16 0 30 0;
#X connect 18 0 31 0;
#X connect 20 0 32 0;
#X connect 21 0 22 3;
#X connect 21 0 26 3;
#X connect 21 0 27 2;
#X connect 21 0 28 3;
#X connect 21 0 29 3;
#X connect 21 0 30 3;
#X connect 21 0 31 3;
#X connect 21 0 32 3;
#X connect 22 0 1 0;
#X connect 22 1 12 1;
#X connect 22 1 26 2;
#X connect 23 0 12 0;
#X connect 24 0 23 1;
#X connect 25 0 147 0;
#X connect 25 0 148 0;
#X connect 26 0 13 0;
#X connect 26 1 23 0;
#X connect 27 0 4 0;
#X connect 27 1 12 1;
#X connect 27 1 30 2;
#X connect 28 0 7 0;
#X connect 28 1 12 1;
#X connect 28 1 31 2;
#X connect 29 0 10 0;
#X connect 29 1 12 1;
#X connect 29 1 32 2;
#X connect 30 0 15 0;
#X connect 30 1 23 0;
#X connect 31 0 17 0;
#X connect 31 1 23 0;
#X connect 32 0 19 0;
#X connect 32 1 23 0;
#X connect 33 0 167 0;
#X connect 35 0 55 0;
#X connect 36 0 166 0;
#X connect 38 0 60 0;
#X connect 39 0 165 0;
#X connect 41 0 61 0;
#X connect 42 0 164 0;
#X connect 44 0 62 0;
#X connect 45 0 58 0;
#X connect 47 0 59 0;
#X connect 49 0 63 0;
#X connect 51 0 64 0;
#X connect 53 0 65 0;
#X connect 54 0 55 3;
#X connect 54 0 59 3;
#X connect 54 0 60 2;
#X connect 54 0 61 3;
#X connect 54 0 62 3;
#X connect 54 0 63 3;
#X connect 54 0 64 3;
#X connect 54 0 65 3;
#X connect 55 0 34 0;
#X connect 55 1 45 1;
#X connect 55 1 59 2;
#X connect 56 0 45 0;
#X connect 57 0 56 1;
#X connect 58 0 147 0;
#X connect 58 0 151 0;
#X connect 59 0 46 0;
#X connect 59 1 56 0;
#X connect 60 0 37 0;
#X connect 60 1 45 1;
#X connect 60 1 63 2;
#X connect 61 0 40 0;
#X connect 61 1 45 1;
#X connect 61 1 64 2;
#X connect 62 0 43 0;
#X connect 62 1 45 1;
#X connect 62 1 65 2;
#X connect 63 0 48 0;
#X connect 63 1 56 0;
#X connect 64 0 50 0;
#X connect 64 1 56 0;
#X connect 65 0 52 0;
#X connect 65 1 56 0;
#X connect 66 0 159 0;
#X connect 68 0 88 0;
#X connect 69 0 158 0;
#X connect 71 0 93 0;
#X connect 72 0 156 0;
#X connect 74 0 94 0;
#X connect 75 0 157 0;
#X connect 77 0 95 0;
#X connect 78 0 91 0;
#X connect 80 0 92 0;
#X connect 82 0 96 0;
#X connect 84 0 97 0;
#X connect 86 0 98 0;
#X connect 87 0 88 3;
#X connect 87 0 92 3;
#X connect 87 0 93 2;
#X connect 87 0 94 3;
#X connect 87 0 95 3;
#X connect 87 0 96 3;
#X connect 87 0 97 3;
#X connect 87 0 98 3;
#X connect 88 0 67 0;
#X connect 88 1 78 1;
#X connect 88 1 92 2;
#X connect 89 0 78 0;
#X connect 90 0 89 1;
#X connect 91 0 147 0;
#X connect 91 0 149 0;
#X connect 92 0 79 0;
#X connect 92 1 89 0;
#X connect 93 0 70 0;
#X connect 93 1 78 1;
#X connect 93 1 96 2;
#X connect 94 0 73 0;
#X connect 94 1 78 1;
#X connect 94 1 97 2;
#X connect 95 0 76 0;
#X connect 95 1 78 1;
#X connect 95 1 98 2;
#X connect 96 0 81 0;
#X connect 96 1 89 0;
#X connect 97 0 83 0;
#X connect 97 1 89 0;
#X connect 98 0 85 0;
#X connect 98 1 89 0;
#X connect 99 0 163 0;
#X connect 101 0 121 0;
#X connect 102 0 162 0;
#X connect 104 0 126 0;
#X connect 105 0 161 0;
#X connect 107 0 127 0;
#X connect 108 0 160 0;
#X connect 110 0 128 0;
#X connect 111 0 124 0;
#X connect 113 0 125 0;
#X connect 115 0 129 0;
#X connect 117 0 130 0;
#X connect 119 0 131 0;
#X connect 120 0 121 3;
#X connect 120 0 125 3;
#X connect 120 0 126 2;
#X connect 120 0 127 3;
#X connect 120 0 128 3;
#X connect 120 0 129 3;
#X connect 120 0 130 3;
#X connect 120 0 131 3;
#X connect 121 0 100 0;
#X connect 121 1 111 1;
#X connect 121 1 125 2;
#X connect 122 0 111 0;
#X connect 123 0 122 1;
#X connect 124 0 147 0;
#X connect 124 0 150 0;
#X connect 125 0 112 0;
#X connect 125 1 122 0;
#X connect 126 0 103 0;
#X connect 126 1 111 1;
#X connect 126 1 129 2;
#X connect 127 0 106 0;
#X connect 127 1 111 1;
#X connect 127 1 130 2;
#X connect 128 0 109 0;
#X connect 128 1 111 1;
#X connect 128 1 131 2;
#X connect 129 0 114 0;
#X connect 129 1 122 0;
#X connect 130 0 116 0;
#X connect 130 1 122 0;
#X connect 131 0 118 0;
#X connect 131 1 122 0;
#X connect 132 0 88 1;
#X connect 132 0 93 1;
#X connect 132 0 94 1;
#X connect 132 0 95 1;
#X connect 133 0 92 1;
#X connect 133 0 96 1;
#X connect 133 0 97 1;
#X connect 133 0 98 1;
#X connect 134 0 125 1;
#X connect 134 0 129 1;
#X connect 134 0 130 1;
#X connect 134 0 131 1;
#X connect 135 0 121 1;
#X connect 135 0 126 1;
#X connect 135 0 127 1;
#X connect 135 0 128 1;
#X connect 136 0 55 1;
#X connect 136 0 60 1;
#X connect 136 0 61 1;
#X connect 136 0 62 1;
#X connect 137 0 59 1;
#X connect 137 0 63 1;
#X connect 137 0 64 1;
#X connect 137 0 65 1;
#X connect 138 0 22 1;
#X connect 138 0 27 1;
#X connect 138 0 28 1;
#X connect 138 0 29 1;
#X connect 140 0 26 1;
#X connect 140 0 30 1;
#X connect 140 0 31 1;
#X connect 140 0 32 1;
#X connect 141 0 142 0;
#X connect 142 0 2 0;
#X connect 142 1 5 0;
#X connect 142 2 8 0;
#X connect 142 3 11 0;
#X connect 142 4 35 0;
#X connect 142 5 38 0;
#X connect 142 6 41 0;
#X connect 142 7 44 0;
#X connect 142 8 68 0;
#X connect 142 9 71 0;
#X connect 142 10 74 0;
#X connect 142 11 77 0;
#X connect 142 12 101 0;
#X connect 142 13 104 0;
#X connect 142 14 107 0;
#X connect 142 15 110 0;
#X connect 143 0 14 0;
#X connect 143 1 16 0;
#X connect 143 2 18 0;
#X connect 143 3 20 0;
#X connect 143 4 47 0;
#X connect 143 5 49 0;
#X connect 143 6 51 0;
#X connect 143 7 53 0;
#X connect 143 8 80 0;
#X connect 143 9 82 0;
#X connect 143 10 84 0;
#X connect 143 11 86 0;
#X connect 143 12 113 0;
#X connect 143 13 115 0;
#X connect 143 14 117 0;
#X connect 143 15 119 0;
#X connect 144 0 143 0;
#X connect 145 0 0 0;
#X connect 145 1 3 0;
#X connect 145 2 6 0;
#X connect 145 3 9 0;
#X connect 145 4 33 0;
#X connect 145 5 36 0;
#X connect 145 6 39 0;
#X connect 145 7 42 0;
#X connect 145 8 66 0;
#X connect 145 9 69 0;
#X connect 145 10 72 0;
#X connect 145 11 75 0;
#X connect 145 12 99 0;
#X connect 145 13 102 0;
#X connect 145 14 105 0;
#X connect 145 15 108 0;
#X connect 146 0 145 0;
#X connect 152 0 22 2;
#X connect 153 0 27 2;
#X connect 154 0 28 2;
#X connect 155 0 29 2;
#X connect 156 0 94 2;
#X connect 157 0 95 2;
#X connect 158 0 93 2;
#X connect 159 0 88 2;
#X connect 160 0 128 2;
#X connect 161 0 127 2;
#X connect 162 0 126 2;
#X connect 163 0 121 2;
#X connect 164 0 62 2;
#X connect 165 0 61 2;
#X connect 166 0 60 2;
#X connect 167 0 55 2;
