#N canvas -120 380 700 397 10;
#X obj 277 156 phasor~;
#X obj 277 123 *;
#X obj 217 106 inlet;
#X obj 278 189 cos~;
#X obj 279 229 *~;
#X obj 411 78 inlet;
#X obj 280 268 outlet~;
#X obj 411 100 t b f;
#X obj 393 139 delay;
#X obj 215 140 outlet;
#X msg 336 139 0;
#X obj 277 93 inlet;
#X obj 361 212 inlet~;
#X connect 0 0 3 0;
#X connect 1 0 0 0;
#X connect 1 0 9 0;
#X connect 2 0 1 1;
#X connect 3 0 4 0;
#X connect 4 0 6 0;
#X connect 5 0 7 0;
#X connect 7 0 8 0;
#X connect 7 1 8 1;
#X connect 8 0 10 0;
#X connect 10 0 0 1;
#X connect 11 0 1 0;
#X connect 12 0 4 1;
