#N canvas 106 412 450 300 10;
#X obj 151 105 metro;
#X obj 181 59 inlet;
#X obj 151 130 t b;
#X obj 121 169 + 1;
#X obj 121 147 f;
#X obj 151 76 tgl 15 0 empty empty empty 17 7 0 10 -262144 -1 -1 1
1;
#X obj 137 186 mod 2;
#X obj 47 258 outlet~;
#X obj 234 146 inlet;
#X obj 6 164 sig~;
#X obj 7 258 outlet~;
#X obj 151 21 loadbang;
#X floatatom 234 173 5 0 0 0 - - -;
#X obj 47 164 vline~;
#X msg 47 13 0;
#X obj 47 -7 r isq-phase;
#X obj 293 239 pack 0 0;
#X obj 293 269 outlet;
#X connect 0 0 2 0;
#X connect 0 0 16 0;
#X connect 1 0 0 1;
#X connect 2 0 4 0;
#X connect 2 0 12 0;
#X connect 3 0 6 0;
#X connect 4 0 3 0;
#X connect 4 0 9 0;
#X connect 4 0 13 0;
#X connect 4 0 16 1;
#X connect 5 0 0 0;
#X connect 6 0 4 1;
#X connect 8 0 12 0;
#X connect 9 0 10 0;
#X connect 11 0 5 0;
#X connect 12 0 13 1;
#X connect 13 0 7 0;
#X connect 14 0 4 0;
#X connect 15 0 14 0;
#X connect 16 0 17 0;
