#N canvas 2 5 643 376 10;
#X obj 143 88 isq~;
#X floatatom 143 18 5 0 0 0 - - -;
#X floatatom 329 10 5 0 10 0 - - -;
#X obj 93 268 table o2 4096;
#X obj 93 248 table o1 4096;
#X obj 152 144 tabwrite~ o1;
#X obj 152 164 tabwrite~ o2;
#X msg 324 90 bang;
#X obj 65 133 /~ 1.5;
#X obj 65 153 /~ 1.5;
#X obj 274 29 t b f;
#X obj 364 142 tgl 15 0 empty empty empty 17 7 0 10 -262144 -1 -1 1
1;
#X obj 367 169 metro 200;
#X text 195 203 sometimes ( when some action is made - i.e. user interaction
) \, aparent imperfect square wave can be observed .. \, but generaly
\, when it is untouched \, you can see the graphs are both right!;
#X obj 218 51 expr $f1 / $f2;
#X connect 0 0 8 0;
#X connect 0 1 9 0;
#X connect 1 0 0 0;
#X connect 1 0 14 0;
#X connect 2 0 10 0;
#X connect 7 0 5 0;
#X connect 7 0 6 0;
#X connect 8 0 5 0;
#X connect 9 0 6 0;
#X connect 10 0 1 0;
#X connect 10 1 14 1;
#X connect 11 0 12 0;
#X connect 12 0 5 0;
#X connect 12 0 6 0;
#X connect 14 0 0 1;
