#N canvas 44 381 999 684 10;
#X msg 116 -11 0;
#X obj 93 74 osc~;
#X obj 93 49 *~;
#X obj 93 194 osc~;
#X obj 93 169 *~;
#X obj 32 90 /~ 4;
#X obj 23 123 outlet~;
#X obj 9 33 inlet~;
#X obj 198 153 inlet~;
#X obj 148 153 inlet;
#X obj -41 33 inlet;
#X obj 32 210 /~ 4;
#X obj 43 243 outlet~;
#X obj 185 264 -~ 0.244922;
#X obj 185 134 -~ 0.244922;
#X connect 0 0 1 1;
#X connect 0 0 3 1;
#X connect 1 0 5 0;
#X connect 2 0 1 0;
#X connect 3 0 11 0;
#X connect 4 0 3 0;
#X connect 5 0 14 0;
#X connect 7 0 2 1;
#X connect 8 0 4 1;
#X connect 9 0 4 0;
#X connect 10 0 2 0;
#X connect 11 0 13 0;
#X connect 13 0 12 0;
#X connect 14 0 6 0;
