#N canvas 0 0 450 300 10;
#X obj 109 97 adc~ 7 8;
#X obj 103 203 mafon~;
#X floatatom 57 160 5 0 0 0 - - -;
#X floatatom 97 160 5 0 0 0 - - -;
#X obj 108 240 dac~ 7 8;
#X connect 0 0 1 1;
#X connect 0 1 1 3;
#X connect 1 0 4 1;
#X connect 1 1 4 0;
#X connect 2 0 1 0;
#X connect 3 0 1 2;
