#N canvas 200 27 643 467 10;
#X floatatom 14 186 5 0 0 0 - - -;
#X obj 14 87 bng 15 250 50 0 empty empty empty 0 -6 0 8 -262144 -1
-1;
#X obj 14 113 metro 580;
#X obj 14 155 random 23032;
#X floatatom 93 134 5 0 0 0 - - -;
#X obj 93 35 bng 15 250 50 0 empty empty empty 0 -6 0 8 -262144 -1
-1;
#X obj 93 103 random 23032;
#X obj 93 61 metro 290;
#X floatatom 194 99 5 0 0 0 - - -;
#X obj 194 0 bng 15 250 50 0 empty empty empty 0 -6 0 8 -262144 -1
-1;
#X obj 194 26 metro 580;
#X obj 194 68 random 23032;
#X floatatom 273 47 5 0 0 0 - - -;
#X obj 273 -52 bng 15 250 50 0 empty empty empty 0 -6 0 8 -262144 -1
-1;
#X obj 273 16 random 23032;
#X obj 273 -26 metro 290;
#X connect 1 0 2 0;
#X connect 1 0 3 0;
#X connect 2 0 3 0;
#X connect 2 0 5 0;
#X connect 2 0 9 0;
#X connect 2 0 13 0;
#X connect 3 0 0 0;
#X connect 4 0 3 1;
#X connect 5 0 6 0;
#X connect 5 0 7 0;
#X connect 6 0 4 0;
#X connect 7 0 6 0;
#X connect 8 0 2 1;
#X connect 9 0 10 0;
#X connect 9 0 11 0;
#X connect 10 0 11 0;
#X connect 11 0 8 0;
#X connect 12 0 11 1;
#X connect 12 0 7 1;
#X connect 13 0 14 0;
#X connect 13 0 15 0;
#X connect 14 0 12 0;
#X connect 15 0 14 0;
#X connect 15 0 9 0;
#X connect 15 0 5 0;
#X connect 15 0 1 0;
