#N canvas 0 0 999 684 10;
#X msg 295 287 bang;
#X floatatom 295 396 5 0 0 0 - - -;
#X floatatom 327 319 5 0 0 0 - - -;
#X obj 295 344 countfloat;
#X msg 334 291 0;
#X obj 622 270 metro;
#X floatatom 660 239 5 0 0 0 - - -;
#X msg 622 202 bang;
#X obj 609 467 line;
#X floatatom 609 497 5 0 0 0 - - -;
#X obj 609 410 pack 0 0;
#X msg 566 240 stop;
#X obj 636 331 bng 15 250 50 0 empty empty empty 17 7 0 10 -262144
-1 -1;
#X obj 469 157 metro;
#X msg 469 39 bang;
#X msg 526 39 stop;
#X obj 488 193 bng 15 250 50 0 empty empty empty 17 7 0 10 -262144
-1 -1;
#X obj 724 140 *;
#X obj 740 77 inlet;
#X floatatom 740 107 5 0 0 0 - - -;
#X obj 551 -70 inlet;
#X obj 660 96 inlet;
#X obj 830 302 inlet;
#X obj 295 501 outlet;
#X obj 609 547 outlet;
#X text 600 -69 1st inlet - togle both metros;
#X text 789 80 2nd and 3rd inlets are for the timings so in miliseconds
2nd will do metro and bang the adder \, while after xTIMES what n the
3rd will bang a ZERO into the adder.;
#X text 516 303 the 4th inlet will take what it needs to add;
#X obj 799 436 /;
#X floatatom 815 413 5 1 1e+11 0 - - -;
#X obj 719 467 line;
#X floatatom 719 497 5 0 0 0 - - -;
#X obj 719 410 pack 0 0;
#X text 327 578 one outlet will give a number and the other will give
a growing number (lined) \, there another optional number from the
2nd line - the timng for that is a fraction of the metro timing \,
so that line increases the number quicker \, just before it changes.
;
#X connect 0 0 3 0;
#X connect 1 0 10 0;
#X connect 1 0 23 0;
#X connect 1 0 32 0;
#X connect 2 0 3 1;
#X connect 3 0 1 0;
#X connect 4 0 3 0;
#X connect 5 0 0 0;
#X connect 5 0 6 0;
#X connect 5 0 12 0;
#X connect 6 0 5 1;
#X connect 6 0 10 1;
#X connect 6 0 17 0;
#X connect 6 0 28 0;
#X connect 7 0 5 0;
#X connect 8 0 9 0;
#X connect 9 0 24 0;
#X connect 10 0 8 0;
#X connect 11 0 5 0;
#X connect 13 0 16 0;
#X connect 13 0 4 0;
#X connect 14 0 13 0;
#X connect 14 0 7 0;
#X connect 15 0 13 0;
#X connect 17 0 13 1;
#X connect 18 0 19 0;
#X connect 19 0 17 1;
#X connect 20 0 13 0;
#X connect 20 0 5 0;
#X connect 21 0 6 0;
#X connect 22 0 2 0;
#X connect 28 0 32 1;
#X connect 29 0 28 1;
#X connect 30 0 31 0;
#X connect 32 0 30 0;
