#N canvas 0 0 999 684 10;
#N canvas 0 0 999 684 (subpatch) 0;
#X array tab-2 4 float 1;
#A 0 -0.0714278 0 0.414281 0;
#X coords 0 1 3 -1 200 140 1;
#X restore 235 255 graph;
#X floatatom 337 11 5 0 0 0 - - -;
#X obj 337 46 osc~;
#X obj 354 90 +~;
#X obj 354 131 *~;
#X floatatom 436 76 5 0 0 0 - - -;
#X floatatom 436 117 5 0 0 0 - - -;
#X obj 340 -24 hsl 128 15 0 8 0 0 empty empty empty -2 -8 0 10 -262144
-1 -1 1500 1;
#X obj 514 90 +~;
#X obj 514 131 *~;
#X floatatom 596 76 5 0 0 0 - - -;
#X floatatom 596 117 5 0 0 0 - - -;
#X floatatom 727 11 5 0 0 0 - - -;
#X obj 730 -24 hsl 128 15 0 8 0 0 empty empty empty -2 -8 0 10 -262144
-1 -1 7400 1;
#X floatatom 727 -59 5 0 0 0 - - -;
#X obj 730 -94 hsl 128 15 0 8 0 0 empty empty empty -2 -8 0 10 -262144
-1 -1 2300 1;
#X obj 411 147 tabosc4~ tab-2;
#X obj 570 148 tabosc4~ tab-2;
#X obj 388 90 +;
#X obj 400 96 bng 15 250 50 0 empty empty empty 17 7 0 10 -262144 -1
-1;
#X obj 476 10 vsl 15 128 -64 63 0 0 empty nill-slide empty 0 -9 0 10
-262144 -1 -1 7100 1;
#X obj 496 10 vsl 15 128 -16 15 0 0 empty nill-slide empty 0 -9 0 10
-262144 -1 -1 9455 1;
#X obj 388 131 +;
#X obj 400 137 bng 15 250 50 0 empty empty empty 17 7 0 10 -262144
-1 -1;
#X obj 548 90 +;
#X obj 560 96 bng 15 250 50 0 empty empty empty 17 7 0 10 -262144 -1
-1;
#X obj 548 131 +;
#X obj 560 137 bng 15 250 50 0 empty empty empty 17 7 0 10 -262144
-1 -1;
#X obj 636 10 vsl 15 128 -64 63 0 0 empty nill-slide empty 0 -9 0 10
-262144 -1 -1 6000 1;
#X obj 656 10 vsl 15 128 -16 15 0 0 empty nill-slide empty 0 -9 0 10
-262144 -1 -1 6855 1;
#X obj 793 131 r phase-rset-all;
#X obj 411 185 outlet~;
#X obj 594 252 nbx 5 14 -1e+37 1e+37 0 0 empty empty empty 0 -8 0 10
-262144 -1 -1 1 256;
#N canvas 0 0 450 300 (subpatch) 0;
#X array tab-out 1000 float 2;
#X coords 0 1 1000 -1 200 140 1;
#X restore 644 423 graph;
#X obj 642 382 tabwrite~ tab-out;
#X msg 642 336 bang;
#X msg 717 304 \; phase-rset-all 0;
#X msg 777 236 \; nill-slide 0;
#X msg 41 59 32;
#X msg 42 100 4.394;
#X msg 91 59 -2;
#X msg 92 100 1.464;
#X obj 0 -69 loadbang;
#X msg 945 -76 2.771;
#X msg 894 -6 0.251;
#X msg 946 -6 7.181;
#X obj 871 -134 loadbang;
#X obj 571 274 *~ 1;
#X connect 1 0 2 0;
#X connect 2 0 3 0;
#X connect 2 0 8 0;
#X connect 3 0 4 0;
#X connect 4 0 16 0;
#X connect 5 0 18 1;
#X connect 5 0 18 0;
#X connect 5 0 19 0;
#X connect 6 0 23 0;
#X connect 6 0 22 1;
#X connect 7 0 1 0;
#X connect 8 0 9 0;
#X connect 9 0 17 0;
#X connect 10 0 25 0;
#X connect 10 0 24 1;
#X connect 11 0 27 0;
#X connect 11 0 26 1;
#X connect 12 0 6 0;
#X connect 12 0 26 0;
#X connect 13 0 12 0;
#X connect 14 0 18 0;
#X connect 14 0 24 0;
#X connect 15 0 14 0;
#X connect 16 0 47 0;
#X connect 17 0 47 0;
#X connect 18 0 3 1;
#X connect 19 0 18 0;
#X connect 20 0 5 0;
#X connect 21 0 6 0;
#X connect 22 0 4 1;
#X connect 23 0 22 0;
#X connect 24 0 8 1;
#X connect 25 0 24 0;
#X connect 26 0 9 1;
#X connect 27 0 26 0;
#X connect 28 0 10 0;
#X connect 29 0 11 0;
#X connect 30 0 17 1;
#X connect 30 0 16 1;
#X connect 32 0 47 1;
#X connect 35 0 34 0;
#X connect 38 0 5 0;
#X connect 39 0 6 0;
#X connect 40 0 10 0;
#X connect 41 0 11 0;
#X connect 42 0 38 0;
#X connect 42 0 39 0;
#X connect 42 0 40 0;
#X connect 42 0 41 0;
#X connect 43 0 14 0;
#X connect 44 0 1 0;
#X connect 45 0 12 0;
#X connect 46 0 43 0;
#X connect 46 0 45 0;
#X connect 46 0 44 0;
#X connect 47 0 31 0;
#X connect 47 0 34 0;
