#N canvas 286 -8 999 684 10;
#X obj 10 -44 snapshot~;
#X obj 10 -6 *;
#X floatatom 38 -20 5 0 0 0 - - -;
#X msg 76 -61 bang;
#X msg 76 -105 1;
#X obj 76 -81 metro 1e-10;
#X text 155 23 1 Hertz cosine sweepper module \, can sweep numbers
as cosine goes;
#X floatatom 91 97 15 0 0 0 - - -;
#X obj 11 -104 osc~ 1;
#X connect 0 0 1 0;
#X connect 1 0 7 0;
#X connect 2 0 1 1;
#X connect 3 0 0 0;
#X connect 4 0 5 0;
#X connect 4 0 8 1;
#X connect 5 0 3 0;
#X connect 8 0 0 0;
