#N canvas 0 0 794 354 10;
#X obj 175 34 adc~ 7 8;
#X obj 174 115 mudl~;
#X obj 225 115 mudl~;
#X floatatom 204 97 5 0 0 0 - - -;
#X floatatom 255 95 5 0 0 0 - - -;
#X obj 323 131 mudl~;
#X obj 374 131 mudl~;
#X floatatom 353 113 5 0 0 0 - - -;
#X floatatom 404 111 5 0 0 0 - - -;
#X obj 204 450 dac~ 3 4;
#X obj 198 337 clip~ -1 1;
#X obj 278 337 clip~ -1 1;
#X obj 277 304 /~ 2;
#X obj 197 304 /~ 2;
#X connect 0 0 1 0;
#X connect 0 1 2 0;
#X connect 1 0 5 0;
#X connect 1 0 13 0;
#X connect 2 0 6 0;
#X connect 2 0 12 0;
#X connect 3 0 1 1;
#X connect 4 0 2 1;
#X connect 5 0 13 0;
#X connect 6 0 12 0;
#X connect 7 0 5 1;
#X connect 8 0 6 1;
#X connect 10 0 9 0;
#X connect 11 0 9 1;
#X connect 12 0 11 0;
#X connect 13 0 10 0;
