#N canvas -2 -15 999 684 10;
#X obj 368 168 clump~;
#X floatatom 405 136 5 0 0 0 - - -;
#X obj 386 67 osc~;
#X obj 387 102 +~;
#X floatatom 433 88 4 -10 10 0 - - -;
#X floatatom 386 22 5 0 0 0 - - -;
#X obj 386 40 fline;
#X obj 436 -35 hsl 128 15 -2 2 0 0 empty empty empty -2 -8 0 10 -262144
-1 -1 8100 1;
#X obj 508 168 clump~;
#X floatatom 545 136 5 0 0 0 - - -;
#X obj 526 67 osc~;
#X obj 527 102 +~;
#X floatatom 573 88 4 -10 10 0 - - -;
#X obj 526 40 fline;
#X obj 576 -35 hsl 128 15 -2 2 0 0 empty empty empty -2 -8 0 10 -262144
-1 -1 9100 1;
#X obj 526 15 / 20;
#X obj 648 168 clump~;
#X floatatom 685 136 5 0 0 0 - - -;
#X obj 666 67 osc~;
#X obj 667 102 +~;
#X floatatom 713 88 4 -10 10 0 - - -;
#X obj 666 40 fline;
#X obj 716 -35 hsl 128 15 -2 2 0 0 empty empty empty -2 -8 0 10 -262144
-1 -1 3700 1;
#X obj 666 15 / 40;
#X obj 368 190 *~ 0.1;
#X obj 508 190 *~ 0.2;
#X obj 648 190 *~ 0.4;
#X obj 424 307 *~ 3;
#X obj 423 339 clip~ -1 1;
#X obj 783 97 loadbang;
#X msg 783 119 1;
#X obj 220 28 inlet~;
#X obj 424 402 outlet~;
#X obj 386 -29 inlet;
#X connect 0 0 24 0;
#X connect 1 0 0 2;
#X connect 2 0 3 0;
#X connect 3 0 0 1;
#X connect 4 0 3 1;
#X connect 5 0 6 0;
#X connect 5 0 15 0;
#X connect 6 0 2 0;
#X connect 7 0 4 0;
#X connect 8 0 25 0;
#X connect 9 0 8 2;
#X connect 10 0 11 0;
#X connect 11 0 8 1;
#X connect 12 0 11 1;
#X connect 13 0 10 0;
#X connect 14 0 12 0;
#X connect 15 0 13 0;
#X connect 15 0 23 0;
#X connect 16 0 26 0;
#X connect 17 0 16 2;
#X connect 18 0 19 0;
#X connect 19 0 16 1;
#X connect 20 0 19 1;
#X connect 21 0 18 0;
#X connect 22 0 20 0;
#X connect 23 0 21 0;
#X connect 24 0 27 0;
#X connect 25 0 27 0;
#X connect 26 0 27 0;
#X connect 27 0 28 0;
#X connect 28 0 32 0;
#X connect 29 0 30 0;
#X connect 30 0 17 0;
#X connect 30 0 9 0;
#X connect 30 0 1 0;
#X connect 31 0 0 0;
#X connect 31 0 8 0;
#X connect 31 0 16 0;
#X connect 33 0 5 0;
