#N canvas 421 170 375 449 10;
#X obj 163 -2 snapshot~;
#X obj 163 36 *;
#X floatatom 179 18 5 0 0 0 - - -;
#X obj 164 -62 osc~ 1;
#X obj 229 -19 metro 1e-10;
#X floatatom 164 -78 12 0 0 0 - - -;
#X obj 163 128 /;
#X floatatom 191 114 5 0 0 0 - - -;
#X msg -57 -95 1;
#X obj 164 -32 +~;
#X floatatom 180 -48 5 0 0 0 - - -;
#X obj 163 93 snapshot~;
#X obj 229 76 metro 1e-10;
#X obj 229 -63 tgl 40 0 empty empty empty 0 -6 0 8 -262144 -1 -1 1
1;
#X obj 229 32 tgl 40 0 empty empty empty 0 -6 0 8 -262144 -1 -1 0 1
;
#X obj 164 -185 inlet;
#X obj 229 -56 inlet;
#X obj 229 44 inlet;
#X obj 29 53 outlet;
#X obj 56 145 outlet;
#X obj 272 -65 inlet;
#X obj 302 1 inlet;
#X obj 311 97 inlet;
#X obj 34 -221 vsl 26 256 0 0.1 0 0 empty empty empty 0 -9 0 10 -262144
-1 -1 13800 1;
#X floatatom 124 75 5 0 0 0 - - -;
#X floatatom 124 166 5 0 0 0 - - -;
#X text 312 65 the values for metros has to be changed according to
the sampling law .. may be;
#X obj -57 -122 loadbang;
#X obj 201 -121 r phase-numoscil;
#X connect 0 0 1 0;
#X connect 1 0 18 0;
#X connect 1 0 24 0;
#X connect 2 0 1 1;
#X connect 3 0 9 0;
#X connect 4 0 0 0;
#X connect 5 0 3 0;
#X connect 6 0 19 0;
#X connect 6 0 25 0;
#X connect 7 0 6 1;
#X connect 8 0 7 0;
#X connect 8 0 2 0;
#X connect 8 0 5 0;
#X connect 9 0 0 0;
#X connect 9 0 11 0;
#X connect 10 0 9 1;
#X connect 11 0 6 0;
#X connect 12 0 11 0;
#X connect 13 0 4 0;
#X connect 14 0 12 0;
#X connect 15 0 5 0;
#X connect 16 0 13 0;
#X connect 17 0 14 0;
#X connect 20 0 10 0;
#X connect 21 0 2 0;
#X connect 22 0 7 0;
#X connect 23 0 5 0;
#X connect 27 0 8 0;
#X connect 28 0 3 1;
