#N canvas 10 210 823 606 10;
#X msg 251 94 0;
#X msg 216 65 0;
#X obj 139 134 /~;
#X obj 139 159 clip~ -1 1;
#X obj 138 182 outlet~;
#X text 171 135 apperently the output has a tangent shape //;
#X obj 155 66 inlet~;
#X obj 216 36 inlet;
#X obj 251 56 inlet;
#X obj 138 82 osc~;
#X obj 154 111 osc~;
#X connect 0 0 10 1;
#X connect 1 0 9 1;
#X connect 2 0 3 0;
#X connect 3 0 4 0;
#X connect 6 0 9 0;
#X connect 6 0 10 0;
#X connect 7 0 1 0;
#X connect 8 0 0 0;
#X connect 9 0 2 0;
#X connect 10 0 2 1;
