#N canvas 0 0 526 356 10;
#X obj 310 60 pack 0 50;
#X obj 310 15 inlet;
#X obj 310 138 outlet;
#X obj 310 84 line;
#X obj 368 39 tgl 15 0 empty empty empty 17 7 0 10 -262144 -1 -1 50
50;
#X obj 368 10 inlet;
#X obj 450 22 loadbang;
#X connect 0 0 3 0;
#X connect 1 0 0 0;
#X connect 3 0 2 0;
#X connect 4 0 0 1;
#X connect 5 0 4 0;
#X connect 6 0 4 0;
