#N canvas 0 0 450 300 10;
#X obj 115 97 inlet~;
#X obj 152 47 inlet;
#X obj 116 273 clump~;
#X obj 135 113 clump~;
#X obj 152 80 sig~;
#X obj 172 64 / 1.1;
#X obj 243 256 inlet;
#X obj 218 47 inlet;
#X obj 116 298 outlet~;
#X connect 0 0 3 0;
#X connect 0 0 2 0;
#X connect 1 0 4 0;
#X connect 1 0 5 0;
#X connect 2 0 8 0;
#X connect 3 0 2 1;
#X connect 4 0 3 1;
#X connect 5 0 3 2;
#X connect 6 0 2 2;
#X connect 7 0 5 1;
