#N canvas 0 100 995 668 10;
#X obj 391 215 phasor~;
#X obj 311 328 *~;
#X obj 250 337 tgl 15 0 empty empty empty 17 7 0 10 -262144 -1 -1 1
1;
#X obj -55 265 cos~;
#X obj 29 263 cos~;
#X obj 28 231 *~ 3.8;
#X obj -55 231 *~ 2.9;
#X obj -6 232 *~ 5;
#X obj 28 463 cos~;
#X obj 29 430 +~;
#X obj 49 317 *~ 11;
#X obj 234 365 /~;
#X obj 326 302 vline~;
#X msg 326 277 1 100 \, 0 100 100;
#X obj 65 192 / 100;
#X obj -18 192 / 100;
#X obj -146 215 inlet;
#X obj -282 198 inlet;
#X obj -339 285 inlet;
#X obj -18 168 inlet;
#X obj 65 168 inlet;
#X obj 350 464 outlet~;
#X obj 250 260 loadbang;
#X obj 134 300 inlet;
#X msg 250 198 798;
#X text -204 23 so here the 1st inlet takes the message for vline \,
then the 2nd one takes the freq \, the one after \, i.e. 4th - the
cooficent 1 \, fallowed by two more and the very last one - the gain
cooficent (7th);
#X connect 0 0 5 0;
#X connect 0 0 6 0;
#X connect 0 0 7 0;
#X connect 0 0 9 1;
#X connect 1 0 21 0;
#X connect 2 0 11 1;
#X connect 3 0 10 0;
#X connect 4 0 10 0;
#X connect 5 0 4 0;
#X connect 6 0 3 0;
#X connect 7 0 10 0;
#X connect 8 0 11 0;
#X connect 9 0 8 0;
#X connect 10 0 9 0;
#X connect 11 0 1 0;
#X connect 12 0 1 1;
#X connect 13 0 12 0;
#X connect 13 0 0 1;
#X connect 14 0 5 1;
#X connect 15 0 6 1;
#X connect 16 0 7 1;
#X connect 17 0 0 0;
#X connect 18 0 12 0;
#X connect 18 0 0 1;
#X connect 19 0 15 0;
#X connect 20 0 14 0;
#X connect 22 0 13 0;
#X connect 22 0 2 0;
#X connect 22 0 24 0;
#X connect 23 0 10 1;
#X connect 24 0 0 0;
