#N canvas 330 105 450 300 10;
#X obj 132 143 resphas~;
#X obj 142 -46 vsl 15 128 22 22000 1 0 empty empty empty 0 -9 0 10
-262144 -1 -1 2900 1;
#X msg 38 71 1 1000 \, 0 200 200;
#X obj 131 208 dac~;
#X floatatom 168 105 5 0 0 0 - - -;
#X floatatom 209 105 5 0 0 0 - - -;
#X floatatom 249 105 5 0 0 0 - - -;
#X obj 172 -46 vsl 15 128 0 512 0 0 empty empty empty 0 -9 0 10 -262144
-1 -1 5100 1;
#X obj 131 182 clip~ -0.2 0.2;
#X connect 0 0 8 0;
#X connect 1 0 0 1;
#X connect 2 0 0 0;
#X connect 4 0 0 2;
#X connect 5 0 0 3;
#X connect 6 0 0 4;
#X connect 7 0 4 0;
#X connect 7 0 6 0;
#X connect 8 0 3 0;
#X connect 8 0 3 1;
