#N canvas -155 300 999 684 10;
#X obj 299 79 phasor~;
#X obj 282 43 /~ -10;
#X obj 368 124 /~ -1.5;
#X obj 240 155 clip~ -0.4 1;
#X obj 128 257 clip~ -0.1 0;
#X obj 308 236 +~;
#X obj 184 227 /~ 1.8;
#X obj 146 301 clip~ -0.8 0.8;
#X obj 309 272 /~ 2.1;
#X obj 150 668 -~ -0.4;
#X floatatom 474 34 5 0 0 0 - - -;
#X obj 312 314 /~ -1.5;
#X obj 184 345 clip~ -0.4 1;
#X obj 51 345 clip~ -0.1 0;
#X obj 187 383 +~;
#X obj 107 315 /~ 1.8;
#X obj 152 414 clip~ -0.8 0.8;
#X obj 308 356 /~ 2.1;
#X obj 281 422 /~ -1.5;
#X obj 153 453 clip~ -0.4 1;
#X obj 386 478 clip~ -0.1 0;
#X obj 150 491 +~;
#X obj 442 448 /~ 1.8;
#X obj 487 547 clip~ -0.8 0.8;
#X obj 237 653 /~ -2.1;
#X obj 452 414 /~ -1.5;
#X obj 324 445 clip~ -0.4 1;
#X obj 208 483 clip~ -0.1 0;
#X obj 392 526 +~;
#X obj 264 453 /~ 1.8;
#X obj 309 552 clip~ -0.8 0.8;
#X obj 259 611 /~;
#X obj 366 581 /~ 3;
#X obj 416 696 osc~;
#X obj 561 678 expr~ ($v1 + $f2) *$v3;
#X floatatom 658 578 5 0 44 0 - - -;
#X obj 733 648 expr~ ($v1 + $f2) *$v3 * $f4;
#X floatatom 925 586 5 0 5 0 - - -;
#X obj 759 674 phasor~;
#X obj 827 678 cos~;
#X obj 731 733 *~ 0.27;
#X obj 870 711 *~ 0.06;
#X obj 1179 79 phasor~;
#X obj 1162 43 /~ -10;
#X obj 1248 124 /~ -1.5;
#X obj 1120 155 clip~ -0.4 1;
#X obj 1008 257 clip~ -0.1 0;
#X obj 1188 236 +~;
#X obj 1064 227 /~ 1.8;
#X obj 1026 301 clip~ -0.8 0.8;
#X obj 1189 272 /~ 2.1;
#X obj 1030 668 -~ -0.4;
#X floatatom 1354 34 5 0 0 0 - - -;
#X obj 1192 314 /~ -1.5;
#X obj 1064 345 clip~ -0.4 1;
#X obj 931 345 clip~ -0.1 0;
#X obj 1067 383 +~;
#X obj 987 315 /~ 1.8;
#X obj 1032 414 clip~ -0.8 0.8;
#X obj 1188 356 /~ 2.1;
#X obj 1161 422 /~ -1.5;
#X obj 1033 453 clip~ -0.4 1;
#X obj 1266 478 clip~ -0.1 0;
#X obj 1030 491 +~;
#X obj 1322 448 /~ 1.8;
#X obj 1367 547 clip~ -0.8 0.8;
#X obj 1117 653 /~ -2.1;
#X obj 1332 414 /~ -1.5;
#X obj 1204 445 clip~ -0.4 1;
#X obj 1088 483 clip~ -0.1 0;
#X obj 1272 526 +~;
#X obj 1144 453 /~ 1.8;
#X obj 1189 552 clip~ -0.8 0.8;
#X obj 1139 611 /~;
#X obj 1246 581 /~ 3;
#X obj 1296 696 osc~;
#X obj 1441 678 expr~ ($v1 + $f2) *$v3;
#X floatatom 1538 578 5 22 77 0 - - -;
#X obj 1613 648 expr~ ($v1 + $f2) *$v3 * $f4;
#X floatatom 1805 586 5 0 5 0 - - -;
#X obj 1639 674 phasor~;
#X obj 1707 678 cos~;
#X obj 1611 733 *~ 0.27;
#X obj 1750 711 *~ 0.06;
#X msg 735 93 0;
#X obj 820 756 outlet~;
#X obj 1700 756 outlet~;
#X obj 1760 756 outlet~;
#X obj 889 749 outlet~;
#X obj 735 64 r samopal-phase;
#X obj 510 6 inlet;
#X obj 647 535 inlet;
#X obj 917 535 inlet;
#X obj 1547 535 inlet;
#X obj 1817 535 inlet;
#X obj 1342 9 inlet;
#X connect 0 0 2 0;
#X connect 1 0 0 0;
#X connect 2 0 3 0;
#X connect 2 0 5 1;
#X connect 3 0 5 0;
#X connect 4 0 7 0;
#X connect 5 0 6 0;
#X connect 5 0 7 0;
#X connect 5 0 8 0;
#X connect 6 0 4 0;
#X connect 6 0 7 0;
#X connect 7 0 8 0;
#X connect 7 0 34 0;
#X connect 7 0 36 0;
#X connect 8 0 11 0;
#X connect 9 0 31 1;
#X connect 9 0 34 0;
#X connect 9 0 36 0;
#X connect 10 0 1 0;
#X connect 11 0 12 0;
#X connect 11 0 14 1;
#X connect 12 0 14 0;
#X connect 13 0 16 0;
#X connect 14 0 15 0;
#X connect 14 0 16 0;
#X connect 14 0 17 0;
#X connect 15 0 13 0;
#X connect 15 0 16 0;
#X connect 16 0 17 0;
#X connect 17 0 18 0;
#X connect 17 0 25 0;
#X connect 18 0 19 0;
#X connect 18 0 21 1;
#X connect 19 0 21 0;
#X connect 20 0 23 0;
#X connect 21 0 22 0;
#X connect 21 0 23 0;
#X connect 21 0 24 0;
#X connect 21 0 34 2;
#X connect 21 0 36 2;
#X connect 22 0 20 0;
#X connect 22 0 23 0;
#X connect 23 0 24 0;
#X connect 24 0 9 0;
#X connect 25 0 26 0;
#X connect 25 0 28 1;
#X connect 26 0 28 0;
#X connect 27 0 30 0;
#X connect 28 0 29 0;
#X connect 28 0 30 0;
#X connect 28 0 31 0;
#X connect 28 0 34 2;
#X connect 28 0 36 2;
#X connect 29 0 27 0;
#X connect 29 0 30 0;
#X connect 30 0 31 0;
#X connect 31 0 32 0;
#X connect 32 0 34 0;
#X connect 32 0 36 0;
#X connect 33 0 40 0;
#X connect 34 0 33 0;
#X connect 35 0 34 1;
#X connect 35 0 36 1;
#X connect 36 0 38 0;
#X connect 37 0 36 3;
#X connect 38 0 39 0;
#X connect 38 0 41 0;
#X connect 39 0 41 0;
#X connect 40 0 85 0;
#X connect 41 0 88 0;
#X connect 42 0 44 0;
#X connect 43 0 42 0;
#X connect 44 0 45 0;
#X connect 44 0 47 1;
#X connect 45 0 47 0;
#X connect 46 0 49 0;
#X connect 47 0 48 0;
#X connect 47 0 49 0;
#X connect 47 0 50 0;
#X connect 48 0 46 0;
#X connect 48 0 49 0;
#X connect 49 0 50 0;
#X connect 49 0 76 0;
#X connect 49 0 78 0;
#X connect 50 0 53 0;
#X connect 51 0 73 1;
#X connect 51 0 76 0;
#X connect 51 0 78 0;
#X connect 52 0 43 0;
#X connect 53 0 54 0;
#X connect 53 0 56 1;
#X connect 54 0 56 0;
#X connect 55 0 58 0;
#X connect 56 0 57 0;
#X connect 56 0 58 0;
#X connect 56 0 59 0;
#X connect 57 0 55 0;
#X connect 57 0 58 0;
#X connect 58 0 59 0;
#X connect 59 0 60 0;
#X connect 59 0 67 0;
#X connect 60 0 61 0;
#X connect 60 0 63 1;
#X connect 61 0 63 0;
#X connect 62 0 65 0;
#X connect 63 0 64 0;
#X connect 63 0 65 0;
#X connect 63 0 66 0;
#X connect 63 0 76 2;
#X connect 63 0 78 2;
#X connect 64 0 62 0;
#X connect 64 0 65 0;
#X connect 65 0 66 0;
#X connect 66 0 51 0;
#X connect 67 0 68 0;
#X connect 67 0 70 1;
#X connect 68 0 70 0;
#X connect 69 0 72 0;
#X connect 70 0 71 0;
#X connect 70 0 72 0;
#X connect 70 0 73 0;
#X connect 70 0 76 2;
#X connect 70 0 78 2;
#X connect 71 0 69 0;
#X connect 71 0 72 0;
#X connect 72 0 73 0;
#X connect 73 0 74 0;
#X connect 74 0 76 0;
#X connect 74 0 78 0;
#X connect 75 0 82 0;
#X connect 76 0 75 0;
#X connect 77 0 76 1;
#X connect 77 0 78 1;
#X connect 78 0 80 0;
#X connect 79 0 78 3;
#X connect 80 0 81 0;
#X connect 80 0 83 0;
#X connect 81 0 83 0;
#X connect 82 0 86 0;
#X connect 83 0 87 0;
#X connect 84 0 42 1;
#X connect 84 0 0 1;
#X connect 84 0 38 1;
#X connect 84 0 33 1;
#X connect 84 0 80 1;
#X connect 84 0 75 1;
#X connect 89 0 84 0;
#X connect 90 0 10 0;
#X connect 91 0 35 0;
#X connect 92 0 37 0;
#X connect 93 0 77 0;
#X connect 94 0 79 0;
#X connect 95 0 52 0;
