#N canvas 240 192 765 379 10;
#X obj 64 72 samopal-double~;
#N canvas 67 243 450 300 processes-sapdb 0;
#X obj 74 47 inlet~;
#X obj 164 47 inlet~;
#X obj 254 47 inlet~;
#X obj 344 47 inlet~;
#X obj 49 192 *~;
#X obj 66 170 p50~;
#X obj 49 272 *~;
#X obj 66 250 p50~;
#X obj 65 110 lop~ 248;
#X obj 129 110 lop~ 248;
#X obj 249 172 *~;
#X obj 266 150 p50~;
#X obj 249 252 *~;
#X obj 266 230 p50~;
#X obj 226 284 outlet~;
#X obj 124 28 inlet;
#X obj 214 28 inlet;
#X obj 304 28 inlet;
#X obj 394 28 inlet;
#X connect 0 0 8 0;
#X connect 1 0 10 0;
#X connect 2 0 9 0;
#X connect 3 0 12 0;
#X connect 4 0 14 0;
#X connect 5 0 4 1;
#X connect 6 0 14 0;
#X connect 7 0 6 1;
#X connect 8 0 4 0;
#X connect 9 0 6 0;
#X connect 10 0 14 0;
#X connect 11 0 10 1;
#X connect 12 0 14 0;
#X connect 13 0 12 1;
#X connect 15 0 5 0;
#X connect 16 0 11 0;
#X connect 17 0 7 0;
#X connect 18 0 13 0;
#X restore 410 155 pd processes-sapdb;
#N canvas -1 -6 986 479 controls-sapdb 1;
#X obj 36 14 nbx 5 14 -1e+37 1e+37 0 0 empty empty freh-m1 0 -8 0 10
-262144 -1 -1 -93 256;
#X obj 51 33 nbx 5 14 -1e+37 1e+37 0 0 empty empty empty 0 -8 0 10
-262144 -1 -1 21 256;
#X obj 51 143 nbx 5 14 -1e+37 1e+37 0 0 empty empty order-dhm1 0 -8
0 10 -262144 -1 -258699 38 256;
#X obj 276 28 outlet;
#X obj 309 47 outlet;
#X obj 356 157 outlet;
#X obj 116 14 nbx 5 14 -1e+37 1e+37 0 0 empty empty freh-m2 0 -8 0
10 -262144 -1 -1 74 256;
#X obj 131 33 nbx 5 14 -1e+37 1e+37 0 0 empty empty empty 0 -8 0 10
-262144 -1 -1 101 256;
#X obj 131 143 nbx 5 14 -1e+37 1e+37 0 0 empty empty order-dhm2 0 -8
0 10 -262144 -1 -258699 22 256;
#X obj 565 28 outlet;
#X obj 611 47 outlet;
#X obj 657 157 outlet;
#X obj 9 102 hsl 128 15 0 0.693 0 0 empty empty ampl-dhm1 -2 -8 0 10
-24198 -1 -44926 0 1;
#X obj -31 71 hsl 128 15 0 0.693 0 0 empty empty ampl-m1 -2 -8 0 10
-262144 -1 -1 10300 1;
#X obj 159 102 hsl 128 15 0 0.693 0 0 empty empty ampl-dhm2 -2 -8 0
10 -24198 -1 -44926 600 1;
#X obj 119 71 hsl 128 15 0 0.693 0 0 empty empty ampl-m2 -2 -8 0 10
-262144 -1 -1 8900 1;
#X obj 336 86 outlet;
#X obj 636 86 outlet;
#X obj 386 186 outlet;
#X obj 686 186 outlet;
#X msg 62 320 \; samopal-phase bang;
#X connect 0 0 3 0;
#X connect 1 0 4 0;
#X connect 2 0 5 0;
#X connect 6 0 9 0;
#X connect 7 0 10 0;
#X connect 8 0 11 0;
#X connect 12 0 18 0;
#X connect 13 0 16 0;
#X connect 14 0 19 0;
#X connect 15 0 17 0;
#X restore 63 23 pd controls-sapdb;
#X obj 433 224 dac~ 7;
#X connect 0 0 1 0;
#X connect 0 1 1 2;
#X connect 0 2 1 4;
#X connect 0 3 1 6;
#X connect 1 0 3 0;
#X connect 2 0 0 0;
#X connect 2 1 0 1;
#X connect 2 2 1 1;
#X connect 2 3 0 2;
#X connect 2 4 1 3;
#X connect 2 5 0 3;
#X connect 2 6 0 4;
#X connect 2 7 1 5;
#X connect 2 8 0 5;
#X connect 2 9 1 7;
