#N canvas 0 0 999 684 10;
#X obj 236 160 outlet;
#X obj 390 143 delay;
#X floatatom 236 51 5 0 0 0 - - -;
#X floatatom 420 114 5 0 0 0 - dl1 -;
#X floatatom 390 65 5 0 0 0 - - -;
#X obj 430 143 delay;
#X floatatom 460 114 5 0 0 0 - dl2 -;
#X floatatom 430 65 5 0 0 0 - - -;
#X obj 470 143 delay;
#X floatatom 500 114 5 0 0 0 - dl3 -;
#X floatatom 470 65 5 0 0 0 - - -;
#X obj 510 143 delay;
#X floatatom 540 114 5 0 0 0 - dl4 -;
#X floatatom 510 65 5 0 0 0 - - -;
#X obj 744 7 loadbang;
#X obj 753 122 s dl1;
#X obj 753 47 1000;
#X obj 793 82 * 2;
#X obj 753 82 * 1;
#X obj 793 122 s dl2;
#X obj 834 82 * 3;
#X obj 874 82 * 4;
#X obj 279 92 bng 15 250 50 0 empty empty empty 17 7 0 10 -262144 -1
-1;
#X obj 834 122 s dl3;
#X obj 874 122 s dl4;
#X connect 1 0 0 0;
#X connect 2 0 0 0;
#X connect 2 0 22 0;
#X connect 3 0 1 1;
#X connect 4 0 1 0;
#X connect 6 0 5 1;
#X connect 7 0 5 0;
#X connect 9 0 8 1;
#X connect 10 0 8 0;
#X connect 12 0 11 1;
#X connect 13 0 11 0;
#X connect 14 0 16 0;
#X connect 16 0 17 0;
#X connect 16 0 18 0;
#X connect 16 0 20 0;
#X connect 16 0 21 0;
#X connect 17 0 19 0;
#X connect 18 0 15 0;
#X connect 20 0 23 0;
#X connect 21 0 24 0;
#X connect 22 0 1 0;
#X connect 22 0 5 0;
#X connect 22 0 8 0;
#X connect 22 0 11 0;
