#N canvas 0 0 999 684 10;
#X obj 232 100 osc~;
#X obj 232 25 numoscil;
#X obj 231 153 +~;
#X obj 214 211 *~;
#X floatatom 147 197 5 0 0 0 - - -;
#X floatatom 247 128 5 0 0 0 - - -;
#X obj 236 341 osc~;
#X obj 237 301 *~ 0;
#X obj 237 382 *~;
#X obj 272 366 vline~;
#X msg 272 338 1 1020;
#X obj 331 341 osc~;
#X obj 332 382 *~;
#X obj 367 366 vline~;
#X msg 367 338 1 1020;
#X obj 332 301 *~ 1;
#X obj 421 341 osc~;
#X obj 422 382 *~;
#X obj 457 366 vline~;
#X msg 457 338 1 1020;
#X obj 422 301 *~ 2;
#X obj 511 341 osc~;
#X obj 512 382 *~;
#X obj 547 366 vline~;
#X msg 547 338 1 1020;
#X obj 512 301 *~ 3;
#X obj 601 341 osc~;
#X obj 602 382 *~;
#X obj 637 366 vline~;
#X msg 637 338 1 1020;
#X obj 602 301 *~ 4;
#X obj 691 341 osc~;
#X obj 692 382 *~;
#X obj 727 366 vline~;
#X msg 727 338 1 1020;
#X obj 781 341 osc~;
#X obj 782 382 *~;
#X obj 817 366 vline~;
#X msg 817 338 1 1020;
#X obj 871 341 osc~;
#X obj 872 382 *~;
#X obj 907 366 vline~;
#X msg 907 338 1 1020;
#X obj 692 301 *~ 5;
#X obj 782 301 *~ 6;
#X obj 872 301 *~ 7;
#X msg 272 318 0 1020;
#X msg 367 318 0 1020;
#X msg 457 318 0 1020;
#X msg 547 318 0 1020;
#X msg 637 318 0 1020;
#X msg 727 318 0 1020;
#X msg 817 318 0 1020;
#X msg 907 318 0 1020;
#X obj 214 435 *~;
#X obj 139 419 osc~;
#X floatatom 139 351 5 0 0 0 - - -;
#X obj 139 383 *;
#X floatatom 187 348 5 0 0 0 - - -;
#X floatatom 186 376 5 0 0 0 - - -;
#X obj 182 366 /;
#X floatatom 283 63 14 0 0 0 - - -;
#X floatatom 232 53 14 0 0 0 - - -;
#X floatatom 147 11 5 0 0 0 - - -;
#X obj 242 -13 tgl 15 0 empty empty empty 0 -6 0 8 -262144 -1 -1 0
1;
#X obj 252 -38 tgl 15 0 empty empty empty 0 -6 0 8 -262144 -1 -1 0
1;
#X floatatom 329 11 5 0 0 0 - - -;
#X floatatom 368 11 5 0 0 0 - - -;
#X floatatom 416 11 5 0 0 0 - - -;
#X obj 1 115 line;
#X floatatom 1 61 5 0 0 0 - - -;
#X floatatom 24 79 5 0 0 0 - - -;
#X obj 1 -83 vsl 34 128 0 50 0 0 empty empty empty 0 -8 0 8 -250685
-1 -1 307 1;
#X msg 925 387 0;
#X obj 303 -237 adsr 1e+09;
#X floatatom 316 -386 5 0 0 0 - - -;
#X floatatom 329 -334 5 0 0 0 - - -;
#X floatatom 342 -319 5 0 0 0 - - -;
#X floatatom 355 -371 5 0 0 0 - - -;
#X floatatom 368 -302 5 0 0 0 - - -;
#X obj 303 -274 tgl 28 0 empty empty empty 0 -6 0 8 -233017 -1 -1 0
1;
#X obj 526 83 route 1;
#X obj 411 -216 adsr 1e+09;
#X floatatom 424 -365 5 0 0 0 - - -;
#X floatatom 437 -313 5 0 0 0 - - -;
#X floatatom 450 -298 5 0 0 0 - - -;
#X floatatom 463 -350 5 0 0 0 - - -;
#X floatatom 476 -281 5 0 0 0 - - -;
#X obj 411 -253 tgl 28 0 empty empty empty 0 -6 0 8 -233017 -1 -1 1
1;
#X obj 430 -196 route 1 0;
#X obj 430 -233 tgl 20 0 empty empty empty 0 -6 0 8 -44926 -1 -1 0
1;
#X obj 316 -219 route 1 0;
#X obj 316 -256 tgl 20 0 empty empty empty 0 -6 0 8 -44926 -1 -1 0
1;
#X msg 530 -72 bang;
#X obj 214 499 bop~;
#X obj 528 -365 j8 ## ## -- -- -- --;
#X obj 671 -237 adsr 1e+09;
#X floatatom 684 -386 5 0 0 0 - - -;
#X floatatom 697 -334 5 0 0 0 - - -;
#X floatatom 710 -319 5 0 0 0 - - -;
#X floatatom 723 -371 5 0 0 0 - - -;
#X floatatom 736 -302 5 0 0 0 - - -;
#X floatatom 671 -205 5 0 0 0 - - -;
#X obj 671 -274 tgl 28 0 empty empty empty 0 -6 0 8 -233017 -1 -1 1
1;
#X obj 761 -237 adsr 1e+09;
#X floatatom 774 -386 5 0 0 0 - - -;
#X floatatom 787 -334 5 0 0 0 - - -;
#X floatatom 800 -319 5 0 0 0 - - -;
#X floatatom 813 -371 5 0 0 0 - - -;
#X floatatom 826 -302 5 0 0 0 - - -;
#X floatatom 761 -205 5 0 0 0 - - -;
#X obj 761 -274 tgl 28 0 empty empty empty 0 -6 0 8 -233017 -1 -1 1
1;
#X obj 851 -237 adsr 1e+09;
#X floatatom 864 -386 5 0 0 0 - - -;
#X floatatom 877 -334 5 0 0 0 - - -;
#X floatatom 890 -319 5 0 0 0 - - -;
#X floatatom 903 -371 5 0 0 0 - - -;
#X floatatom 916 -302 5 0 0 0 - - -;
#X floatatom 851 -205 5 0 0 0 - - -;
#X obj 851 -274 tgl 28 0 empty empty empty 0 -6 0 8 -233017 -1 -1 1
1;
#X obj 77 -151 pow;
#X obj 134 -142 +;
#X obj 156 -167 pow;
#X connect 0 0 2 0;
#X connect 1 0 62 0;
#X connect 1 1 61 0;
#X connect 2 0 3 1;
#X connect 3 0 7 0;
#X connect 3 0 15 0;
#X connect 3 0 20 0;
#X connect 3 0 25 0;
#X connect 3 0 30 0;
#X connect 3 0 43 0;
#X connect 3 0 44 0;
#X connect 3 0 45 0;
#X connect 4 0 3 0;
#X connect 5 0 2 1;
#X connect 6 0 8 0;
#X connect 7 0 6 0;
#X connect 8 0 54 1;
#X connect 9 0 8 1;
#X connect 10 0 9 0;
#X connect 11 0 12 0;
#X connect 12 0 54 1;
#X connect 13 0 12 1;
#X connect 14 0 13 0;
#X connect 15 0 11 0;
#X connect 16 0 17 0;
#X connect 17 0 54 1;
#X connect 18 0 17 1;
#X connect 19 0 18 0;
#X connect 20 0 16 0;
#X connect 21 0 22 0;
#X connect 22 0 54 1;
#X connect 23 0 22 1;
#X connect 24 0 23 0;
#X connect 25 0 21 0;
#X connect 26 0 27 0;
#X connect 27 0 54 1;
#X connect 28 0 27 1;
#X connect 29 0 28 0;
#X connect 30 0 26 0;
#X connect 31 0 32 0;
#X connect 32 0 54 1;
#X connect 33 0 32 1;
#X connect 34 0 33 0;
#X connect 35 0 36 0;
#X connect 36 0 54 1;
#X connect 37 0 36 1;
#X connect 38 0 37 0;
#X connect 39 0 40 0;
#X connect 40 0 54 1;
#X connect 41 0 40 1;
#X connect 42 0 41 0;
#X connect 43 0 31 0;
#X connect 44 0 35 0;
#X connect 45 0 39 0;
#X connect 46 0 9 0;
#X connect 47 0 13 0;
#X connect 48 0 18 0;
#X connect 49 0 23 0;
#X connect 50 0 28 0;
#X connect 51 0 33 0;
#X connect 52 0 37 0;
#X connect 53 0 41 0;
#X connect 54 0 94 0;
#X connect 54 0 94 1;
#X connect 55 0 54 0;
#X connect 56 0 57 0;
#X connect 57 0 55 0;
#X connect 58 0 60 0;
#X connect 59 0 60 1;
#X connect 60 0 57 1;
#X connect 61 0 0 0;
#X connect 62 0 57 1;
#X connect 63 0 1 0;
#X connect 64 0 1 1;
#X connect 65 0 1 2;
#X connect 66 0 1 3;
#X connect 67 0 1 4;
#X connect 68 0 1 5;
#X connect 69 0 1 0;
#X connect 69 0 3 0;
#X connect 70 0 69 0;
#X connect 71 0 69 1;
#X connect 72 0 70 0;
#X connect 73 0 39 1;
#X connect 73 0 35 1;
#X connect 73 0 31 1;
#X connect 73 0 26 1;
#X connect 73 0 21 1;
#X connect 73 0 16 1;
#X connect 73 0 11 1;
#X connect 73 0 6 1;
#X connect 74 0 4 0;
#X connect 75 0 74 1;
#X connect 76 0 74 2;
#X connect 77 0 74 3;
#X connect 78 0 74 4;
#X connect 79 0 74 5;
#X connect 80 0 74 0;
#X connect 80 0 81 0;
#X connect 81 0 0 1;
#X connect 82 0 56 0;
#X connect 83 0 82 1;
#X connect 84 0 82 2;
#X connect 85 0 82 3;
#X connect 86 0 82 4;
#X connect 87 0 82 5;
#X connect 88 0 82 0;
#X connect 88 0 93 0;
#X connect 89 0 88 0;
#X connect 89 1 64 0;
#X connect 89 1 65 0;
#X connect 90 0 89 0;
#X connect 91 0 80 0;
#X connect 91 1 65 0;
#X connect 91 1 64 0;
#X connect 92 0 91 0;
#X connect 93 0 58 0;
#X connect 93 0 60 0;
#X connect 95 0 120 0;
#X connect 95 0 122 1;
#X connect 95 1 120 1;
#X connect 95 1 122 0;
#X connect 95 2 103 0;
#X connect 95 3 111 0;
#X connect 95 4 119 0;
#X connect 95 5 65 0;
#X connect 95 5 64 0;
#X connect 95 6 80 0;
#X connect 95 7 88 0;
#X connect 95 8 92 0;
#X connect 95 9 90 0;
#X connect 96 0 102 0;
#X connect 97 0 96 1;
#X connect 98 0 96 2;
#X connect 99 0 96 3;
#X connect 100 0 96 4;
#X connect 101 0 96 5;
#X connect 102 0 66 0;
#X connect 103 0 96 0;
#X connect 104 0 110 0;
#X connect 105 0 104 1;
#X connect 106 0 104 2;
#X connect 107 0 104 3;
#X connect 108 0 104 4;
#X connect 109 0 104 5;
#X connect 110 0 67 0;
#X connect 111 0 104 0;
#X connect 112 0 118 0;
#X connect 113 0 112 1;
#X connect 114 0 112 2;
#X connect 115 0 112 3;
#X connect 116 0 112 4;
#X connect 117 0 112 5;
#X connect 118 0 68 0;
#X connect 119 0 112 0;
#X connect 120 0 121 0;
#X connect 121 0 72 0;
#X connect 122 0 121 1;
