#N canvas 111 176 450 300 10;
#X obj 162 73 hilbert~;
#X obj 162 22 inlet~;
#X obj 263 23 inlet;
#X obj 263 70 phasor~;
#X obj 264 125 cos~;
#X obj 304 125 cos~;
#X obj 303 101 -~ 0.025;
#X obj 162 160 *~;
#X obj 212 160 *~;
#X obj 163 203 -~;
#X obj 164 253 outlet~;
#X connect 0 0 7 0;
#X connect 0 1 8 0;
#X connect 1 0 0 0;
#X connect 2 0 3 0;
#X connect 3 0 6 0;
#X connect 3 0 4 0;
#X connect 4 0 7 1;
#X connect 5 0 8 1;
#X connect 6 0 5 0;
#X connect 7 0 9 0;
#X connect 8 0 9 1;
#X connect 9 0 10 0;
