#N canvas 364 401 999 684 10;
#N canvas 0 0 450 300 (subpatch) 0;
#X array tab-i 16 float 1;
#A 0 0.099999 0 0 0 0 0 0 0 0.099999 0 0 0 0 0 0 0;
#X coords 0 1 15 -1 200 140 1;
#X restore 88 -385 graph;
#X floatatom 88 -423 5 0 0 0 - - -;
#X floatatom 675 -464 5 0 0 0 - - -;
#X obj 606 -481 int 0;
#X obj 645 -482 + 1;
#X obj 112 -512 bng 15 250 50 0 empty empty empty 17 7 0 10 -262144
-1 -1;
#X msg 525 -521 stop;
#X msg 675 -489 \$1 0;
#X msg 636 -497 0;
#X obj 105 -464 hsl 128 15 0 16 0 0 empty empty empty -2 -8 0 10 -262144
-1 -1 12700 1;
#X obj 105 -435 hsl 128 15 -4 4 0 0 empty empty empty -2 -8 0 10 -262144
-1 -1 6350 1;
#X obj 675 -538 route 16;
#X obj 320 -409 route 0;
#X obj 112 -552 inlet;
#X floatatom 76 -207 5 0 0 0 - - -;
#X floatatom 126 -207 5 0 0 0 - - -;
#X floatatom 176 -207 5 0 0 0 - - -;
#X floatatom 226 -207 5 0 0 0 - - -;
#X floatatom 276 -207 5 0 0 0 - - -;
#X floatatom 326 -207 5 0 0 0 - - -;
#X floatatom 376 -207 5 0 0 0 - - -;
#X floatatom 426 -207 5 0 0 0 - - -;
#X obj 294 -160 pack 0 0 0 0 0 0 0 0;
#X obj 409 -287 pack 0 0;
#X obj 295 -256 route 1 2 3 4 5 6 7 8;
#X msg 409 -497 clear;
#X floatatom 532 -261 5 0 0 0 - - -;
#X obj 609 -321 *;
#X obj 409 -329 poly 16 123;
#X msg -30 -467 set tab-i;
#X obj 88 -450 tabread;
#X obj 42 -467 inlet;
#X obj 294 -95 s tab-i-data;
#X obj 628 -271 #print debug;
#X obj 467 -392 #print valid;
#X obj 294 -3 outlet;
#X obj 526 -497 metro 12;
#X connect 1 0 12 0;
#X connect 2 0 7 0;
#X connect 2 0 4 0;
#X connect 2 0 27 1;
#X connect 2 0 30 0;
#X connect 3 0 2 0;
#X connect 3 0 9 0;
#X connect 4 0 3 1;
#X connect 5 0 8 0;
#X connect 5 0 25 0;
#X connect 5 0 36 0;
#X connect 6 0 36 0;
#X connect 7 0 11 0;
#X connect 8 0 3 1;
#X connect 11 0 3 1;
#X connect 11 0 6 0;
#X connect 12 1 28 0;
#X connect 12 1 28 1;
#X connect 12 1 34 0;
#X connect 13 0 5 0;
#X connect 14 0 22 0;
#X connect 15 0 22 1;
#X connect 16 0 22 2;
#X connect 17 0 22 3;
#X connect 18 0 22 4;
#X connect 19 0 22 5;
#X connect 20 0 22 6;
#X connect 21 0 22 7;
#X connect 22 0 32 0;
#X connect 22 0 35 0;
#X connect 23 0 24 0;
#X connect 23 0 33 0;
#X connect 24 0 14 0;
#X connect 24 1 15 0;
#X connect 24 2 16 0;
#X connect 24 3 17 0;
#X connect 24 4 18 0;
#X connect 24 5 19 0;
#X connect 24 6 20 0;
#X connect 24 7 21 0;
#X connect 25 0 28 0;
#X connect 28 0 23 0;
#X connect 28 1 23 1;
#X connect 28 2 26 0;
#X connect 29 0 30 0;
#X connect 30 0 1 0;
#X connect 30 0 10 0;
#X connect 31 0 30 0;
#X connect 36 0 3 0;
