#N canvas 0 28 965 658 10;
#X obj 173 114 osc~ 50;
#X obj 172 145 +~;
#X obj 228 114 osc~ 50;
#X obj 227 145 +~;
#X obj 283 114 osc~ 50;
#X obj 282 145 +~;
#X obj 337 114 osc~ 50;
#X obj 336 145 +~;
#X obj 391 114 osc~ 50;
#X obj 390 145 +~;
#X obj 173 170 osc~ 50;
#X obj 172 201 +~;
#X obj 228 170 osc~ 50;
#X obj 227 201 +~;
#X obj 283 170 osc~ 50;
#X obj 282 201 +~;
#X obj 337 170 osc~ 50;
#X obj 336 201 +~;
#X obj 391 170 osc~ 50;
#X obj 390 201 +~;
#X obj 114 217 *~;
#X obj 448 282 osc~;
#X obj 448 311 dac~ 1;
#X obj 173 3 osc~ 50;
#X obj 172 34 +~;
#X obj 228 3 osc~ 50;
#X obj 227 34 +~;
#X obj 283 3 osc~ 50;
#X obj 282 34 +~;
#X obj 337 3 osc~ 50;
#X obj 336 34 +~;
#X obj 391 3 osc~ 50;
#X obj 390 34 +~;
#X obj 173 59 osc~ 50;
#X obj 172 90 +~;
#X obj 228 59 osc~ 50;
#X obj 227 90 +~;
#X obj 283 59 osc~ 50;
#X obj 282 90 +~;
#X obj 337 59 osc~ 50;
#X obj 336 90 +~;
#X obj 391 59 osc~ 50;
#X obj 390 90 +~;
#X obj 114 106 *~;
#X obj 173 -112 osc~ 50;
#X obj 172 -81 +~;
#X obj 228 -112 osc~ 50;
#X obj 227 -81 +~;
#X obj 283 -112 osc~ 50;
#X obj 282 -81 +~;
#X obj 337 -112 osc~ 50;
#X obj 336 -81 +~;
#X obj 391 -112 osc~ 50;
#X obj 390 -81 +~;
#X obj 173 -56 osc~ 50;
#X obj 172 -25 +~;
#X obj 228 -56 osc~ 50;
#X obj 227 -25 +~;
#X obj 283 -56 osc~ 50;
#X obj 282 -25 +~;
#X obj 337 -56 osc~ 50;
#X obj 336 -25 +~;
#X obj 391 -56 osc~ 50;
#X obj 390 -25 +~;
#X obj 114 -9 *~;
#X obj 173 -222 osc~ 50;
#X obj 172 -191 +~;
#X obj 228 -222 osc~ 50;
#X obj 227 -191 +~;
#X obj 283 -222 osc~ 50;
#X obj 282 -191 +~;
#X obj 337 -222 osc~ 50;
#X obj 336 -191 +~;
#X obj 391 -222 osc~ 50;
#X obj 390 -191 +~;
#X obj 173 -166 osc~ 50;
#X obj 172 -135 +~;
#X obj 228 -166 osc~ 50;
#X obj 227 -135 +~;
#X obj 283 -166 osc~ 50;
#X obj 282 -135 +~;
#X obj 337 -166 osc~ 50;
#X obj 336 -135 +~;
#X obj 391 -166 osc~ 50;
#X obj 390 -135 +~;
#X obj 114 -119 *~;
#X obj 173 -337 osc~ 50;
#X obj 172 -306 +~;
#X obj 228 -337 osc~ 50;
#X obj 227 -306 +~;
#X obj 283 -337 osc~ 50;
#X obj 282 -306 +~;
#X obj 337 -337 osc~ 50;
#X obj 336 -306 +~;
#X obj 391 -337 osc~ 50;
#X obj 390 -306 +~;
#X obj 173 -281 osc~ 50;
#X obj 172 -250 +~;
#X obj 228 -281 osc~ 50;
#X obj 227 -250 +~;
#X obj 283 -281 osc~ 50;
#X obj 282 -250 +~;
#X obj 337 -281 osc~ 50;
#X obj 336 -250 +~;
#X obj 391 -281 osc~ 50;
#X obj 390 -250 +~;
#X obj 114 -234 *~;
#X obj 69 226 line~;
#X obj 70 188 bng 15 250 50 0 empty empty empty 17 7 0 10 -262144 -1
-1;
#X obj 69 152 bng 15 250 50 0 empty empty empty 17 7 0 10 -262144 -1
-1;
#X obj 69 169 50 50;
#X obj 69 205 0 50;
#X obj 114 242 *~;
#X obj 114 131 *~;
#X obj 447 259 *~ 1;
#X obj 69 115 line~;
#X obj 70 77 bng 15 250 50 0 empty empty empty 17 7 0 10 -262144 -1
-1;
#X obj 69 41 bng 15 250 50 0 empty empty empty 17 7 0 10 -262144 -1
-1;
#X obj 69 58 50 50;
#X obj 69 94 0 50;
#X obj 69 0 line~;
#X obj 70 -38 bng 15 250 50 0 empty empty empty 17 7 0 10 -262144 -1
-1;
#X obj 69 -74 bng 15 250 50 0 empty empty empty 17 7 0 10 -262144 -1
-1;
#X obj 69 -57 50 50;
#X obj 69 -21 0 50;
#X obj 114 16 *~;
#X obj 114 -94 *~;
#X obj 114 -209 *~;
#X obj 69 -110 line~;
#X obj 70 -148 bng 15 250 50 0 empty empty empty 17 7 0 10 -262144
-1 -1;
#X obj 69 -185 bng 15 250 50 0 empty empty empty 17 7 0 10 -262144
-1 -1;
#X obj 69 -167 50 50;
#X obj 69 -131 0 50;
#X obj 69 -225 line~;
#X obj 70 -263 bng 15 250 50 0 empty empty empty 17 7 0 10 -262144
-1 -1;
#X obj 69 -300 bng 15 250 50 0 empty empty empty 17 7 0 10 -262144
-1 -1;
#X obj 69 -282 50 50;
#X obj 69 -246 0 50;
#X obj 585 114 osc~ 50;
#X obj 584 145 +~;
#X obj 640 114 osc~ 50;
#X obj 639 145 +~;
#X obj 695 114 osc~ 50;
#X obj 694 145 +~;
#X obj 749 114 osc~ 50;
#X obj 748 145 +~;
#X obj 803 114 osc~ 50;
#X obj 802 145 +~;
#X obj 585 170 osc~ 50;
#X obj 584 201 +~;
#X obj 640 170 osc~ 50;
#X obj 639 201 +~;
#X obj 695 170 osc~ 50;
#X obj 694 201 +~;
#X obj 749 170 osc~ 50;
#X obj 748 201 +~;
#X obj 803 170 osc~ 50;
#X obj 802 201 +~;
#X obj 526 217 *~;
#X obj 860 282 osc~;
#X obj 585 3 osc~ 50;
#X obj 584 34 +~;
#X obj 640 3 osc~ 50;
#X obj 639 34 +~;
#X obj 695 3 osc~ 50;
#X obj 694 34 +~;
#X obj 749 3 osc~ 50;
#X obj 748 34 +~;
#X obj 803 3 osc~ 50;
#X obj 802 34 +~;
#X obj 585 59 osc~ 50;
#X obj 584 90 +~;
#X obj 640 59 osc~ 50;
#X obj 639 90 +~;
#X obj 695 59 osc~ 50;
#X obj 694 90 +~;
#X obj 749 59 osc~ 50;
#X obj 748 90 +~;
#X obj 803 59 osc~ 50;
#X obj 802 90 +~;
#X obj 526 106 *~;
#X obj 585 -112 osc~ 50;
#X obj 584 -81 +~;
#X obj 640 -112 osc~ 50;
#X obj 639 -81 +~;
#X obj 695 -112 osc~ 50;
#X obj 694 -81 +~;
#X obj 749 -112 osc~ 50;
#X obj 748 -81 +~;
#X obj 803 -112 osc~ 50;
#X obj 802 -81 +~;
#X obj 585 -56 osc~ 50;
#X obj 584 -25 +~;
#X obj 640 -56 osc~ 50;
#X obj 639 -25 +~;
#X obj 695 -56 osc~ 50;
#X obj 694 -25 +~;
#X obj 749 -56 osc~ 50;
#X obj 748 -25 +~;
#X obj 803 -56 osc~ 50;
#X obj 802 -25 +~;
#X obj 526 -9 *~;
#X obj 585 -222 osc~ 50;
#X obj 584 -191 +~;
#X obj 640 -222 osc~ 50;
#X obj 639 -191 +~;
#X obj 695 -222 osc~ 50;
#X obj 694 -191 +~;
#X obj 749 -222 osc~ 50;
#X obj 748 -191 +~;
#X obj 803 -222 osc~ 50;
#X obj 802 -191 +~;
#X obj 585 -166 osc~ 50;
#X obj 584 -135 +~;
#X obj 640 -166 osc~ 50;
#X obj 639 -135 +~;
#X obj 695 -166 osc~ 50;
#X obj 694 -135 +~;
#X obj 749 -166 osc~ 50;
#X obj 748 -135 +~;
#X obj 803 -166 osc~ 50;
#X obj 802 -135 +~;
#X obj 526 -119 *~;
#X obj 585 -337 osc~ 50;
#X obj 584 -306 +~;
#X obj 640 -337 osc~ 50;
#X obj 639 -306 +~;
#X obj 695 -337 osc~ 50;
#X obj 694 -306 +~;
#X obj 749 -337 osc~ 50;
#X obj 748 -306 +~;
#X obj 803 -337 osc~ 50;
#X obj 802 -306 +~;
#X obj 585 -281 osc~ 50;
#X obj 584 -250 +~;
#X obj 640 -281 osc~ 50;
#X obj 639 -250 +~;
#X obj 695 -281 osc~ 50;
#X obj 694 -250 +~;
#X obj 749 -281 osc~ 50;
#X obj 748 -250 +~;
#X obj 803 -281 osc~ 50;
#X obj 802 -250 +~;
#X obj 526 -234 *~;
#X obj 481 226 line~;
#X obj 481 188 bng 15 250 50 0 empty empty empty 17 7 0 10 -262144
-1 -1;
#X obj 481 152 bng 15 250 50 0 empty empty empty 17 7 0 10 -262144
-1 -1;
#X obj 481 169 50 50;
#X obj 481 205 0 50;
#X obj 526 242 *~;
#X obj 526 131 *~;
#X obj 859 259 *~ 1;
#X obj 481 115 line~;
#X obj 482 77 bng 15 250 50 0 empty empty empty 17 7 0 10 -262144 -1
-1;
#X obj 481 41 bng 15 250 50 0 empty empty empty 17 7 0 10 -262144 -1
-1;
#X obj 481 58 50 50;
#X obj 481 94 0 50;
#X obj 481 0 line~;
#X obj 482 -38 bng 15 250 50 0 empty empty empty 17 7 0 10 -262144
-1 -1;
#X obj 481 -74 bng 15 250 50 0 empty empty empty 17 7 0 10 -262144
-1 -1;
#X obj 481 -57 50 50;
#X obj 481 -21 0 50;
#X obj 526 16 *~;
#X obj 526 -94 *~;
#X obj 526 -209 *~;
#X obj 481 -110 line~;
#X obj 482 -148 bng 15 250 50 0 empty empty empty 17 7 0 10 -262144
-1 -1;
#X obj 481 -185 bng 15 250 50 0 empty empty empty 17 7 0 10 -262144
-1 -1;
#X obj 481 -167 50 50;
#X obj 481 -131 0 50;
#X obj 481 -225 line~;
#X obj 482 -263 bng 15 250 50 0 empty empty empty 17 7 0 10 -262144
-1 -1;
#X obj 481 -300 bng 15 250 50 0 empty empty empty 17 7 0 10 -262144
-1 -1;
#X obj 481 -282 50 50;
#X obj 481 -246 0 50;
#X obj 860 311 dac~ 2;
#X connect 0 0 1 0;
#X connect 1 0 20 1;
#X connect 2 0 3 0;
#X connect 3 0 1 1;
#X connect 4 0 5 0;
#X connect 5 0 3 1;
#X connect 6 0 7 0;
#X connect 7 0 5 1;
#X connect 8 0 9 0;
#X connect 9 0 7 1;
#X connect 10 0 11 0;
#X connect 11 0 20 0;
#X connect 12 0 13 0;
#X connect 13 0 11 1;
#X connect 14 0 15 0;
#X connect 15 0 13 1;
#X connect 16 0 17 0;
#X connect 17 0 15 1;
#X connect 18 0 19 0;
#X connect 19 0 17 1;
#X connect 20 0 112 0;
#X connect 21 0 22 0;
#X connect 23 0 24 0;
#X connect 24 0 43 1;
#X connect 25 0 26 0;
#X connect 26 0 24 1;
#X connect 27 0 28 0;
#X connect 28 0 26 1;
#X connect 29 0 30 0;
#X connect 30 0 28 1;
#X connect 31 0 32 0;
#X connect 32 0 30 1;
#X connect 33 0 34 0;
#X connect 34 0 43 0;
#X connect 35 0 36 0;
#X connect 36 0 34 1;
#X connect 37 0 38 0;
#X connect 38 0 36 1;
#X connect 39 0 40 0;
#X connect 40 0 38 1;
#X connect 41 0 42 0;
#X connect 42 0 40 1;
#X connect 43 0 113 0;
#X connect 44 0 45 0;
#X connect 45 0 64 1;
#X connect 46 0 47 0;
#X connect 47 0 45 1;
#X connect 48 0 49 0;
#X connect 49 0 47 1;
#X connect 50 0 51 0;
#X connect 51 0 49 1;
#X connect 52 0 53 0;
#X connect 53 0 51 1;
#X connect 54 0 55 0;
#X connect 55 0 64 0;
#X connect 56 0 57 0;
#X connect 57 0 55 1;
#X connect 58 0 59 0;
#X connect 59 0 57 1;
#X connect 60 0 61 0;
#X connect 61 0 59 1;
#X connect 62 0 63 0;
#X connect 63 0 61 1;
#X connect 64 0 125 0;
#X connect 65 0 66 0;
#X connect 66 0 85 1;
#X connect 67 0 68 0;
#X connect 68 0 66 1;
#X connect 69 0 70 0;
#X connect 70 0 68 1;
#X connect 71 0 72 0;
#X connect 72 0 70 1;
#X connect 73 0 74 0;
#X connect 74 0 72 1;
#X connect 75 0 76 0;
#X connect 76 0 85 0;
#X connect 77 0 78 0;
#X connect 78 0 76 1;
#X connect 79 0 80 0;
#X connect 80 0 78 1;
#X connect 81 0 82 0;
#X connect 82 0 80 1;
#X connect 83 0 84 0;
#X connect 84 0 82 1;
#X connect 85 0 126 0;
#X connect 86 0 87 0;
#X connect 87 0 106 1;
#X connect 88 0 89 0;
#X connect 89 0 87 1;
#X connect 90 0 91 0;
#X connect 91 0 89 1;
#X connect 92 0 93 0;
#X connect 93 0 91 1;
#X connect 94 0 95 0;
#X connect 95 0 93 1;
#X connect 96 0 97 0;
#X connect 97 0 106 0;
#X connect 98 0 99 0;
#X connect 99 0 97 1;
#X connect 100 0 101 0;
#X connect 101 0 99 1;
#X connect 102 0 103 0;
#X connect 103 0 101 1;
#X connect 104 0 105 0;
#X connect 105 0 103 1;
#X connect 106 0 127 0;
#X connect 107 0 112 1;
#X connect 108 0 111 0;
#X connect 109 0 110 0;
#X connect 110 0 107 0;
#X connect 110 0 138 1;
#X connect 110 0 140 1;
#X connect 110 0 142 1;
#X connect 110 0 144 1;
#X connect 110 0 146 1;
#X connect 111 0 107 0;
#X connect 112 0 114 0;
#X connect 113 0 114 0;
#X connect 114 0 21 0;
#X connect 115 0 113 1;
#X connect 116 0 119 0;
#X connect 117 0 118 0;
#X connect 118 0 115 0;
#X connect 118 0 160 1;
#X connect 118 0 162 1;
#X connect 118 0 164 1;
#X connect 118 0 166 1;
#X connect 118 0 168 1;
#X connect 119 0 115 0;
#X connect 120 0 125 1;
#X connect 121 0 124 0;
#X connect 122 0 123 0;
#X connect 123 0 120 0;
#X connect 123 0 181 1;
#X connect 123 0 183 1;
#X connect 123 0 185 1;
#X connect 123 0 187 1;
#X connect 123 0 189 1;
#X connect 124 0 120 0;
#X connect 125 0 114 0;
#X connect 126 0 114 0;
#X connect 127 0 114 0;
#X connect 128 0 126 1;
#X connect 129 0 132 0;
#X connect 130 0 131 0;
#X connect 131 0 128 0;
#X connect 131 0 202 1;
#X connect 131 0 204 1;
#X connect 131 0 206 1;
#X connect 131 0 208 1;
#X connect 131 0 210 1;
#X connect 132 0 128 0;
#X connect 133 0 127 1;
#X connect 134 0 137 0;
#X connect 135 0 136 0;
#X connect 136 0 133 0;
#X connect 136 0 223 1;
#X connect 136 0 225 1;
#X connect 136 0 227 1;
#X connect 136 0 229 1;
#X connect 136 0 231 1;
#X connect 137 0 133 0;
#X connect 138 0 139 0;
#X connect 139 0 158 1;
#X connect 140 0 141 0;
#X connect 141 0 139 1;
#X connect 142 0 143 0;
#X connect 143 0 141 1;
#X connect 144 0 145 0;
#X connect 145 0 143 1;
#X connect 146 0 147 0;
#X connect 147 0 145 1;
#X connect 148 0 149 0;
#X connect 149 0 158 0;
#X connect 150 0 151 0;
#X connect 151 0 149 1;
#X connect 152 0 153 0;
#X connect 153 0 151 1;
#X connect 154 0 155 0;
#X connect 155 0 153 1;
#X connect 156 0 157 0;
#X connect 157 0 155 1;
#X connect 158 0 249 0;
#X connect 159 0 275 0;
#X connect 160 0 161 0;
#X connect 161 0 180 1;
#X connect 162 0 163 0;
#X connect 163 0 161 1;
#X connect 164 0 165 0;
#X connect 165 0 163 1;
#X connect 166 0 167 0;
#X connect 167 0 165 1;
#X connect 168 0 169 0;
#X connect 169 0 167 1;
#X connect 170 0 171 0;
#X connect 171 0 180 0;
#X connect 172 0 173 0;
#X connect 173 0 171 1;
#X connect 174 0 175 0;
#X connect 175 0 173 1;
#X connect 176 0 177 0;
#X connect 177 0 175 1;
#X connect 178 0 179 0;
#X connect 179 0 177 1;
#X connect 180 0 250 0;
#X connect 181 0 182 0;
#X connect 182 0 201 1;
#X connect 183 0 184 0;
#X connect 184 0 182 1;
#X connect 185 0 186 0;
#X connect 186 0 184 1;
#X connect 187 0 188 0;
#X connect 188 0 186 1;
#X connect 189 0 190 0;
#X connect 190 0 188 1;
#X connect 191 0 192 0;
#X connect 192 0 201 0;
#X connect 193 0 194 0;
#X connect 194 0 192 1;
#X connect 195 0 196 0;
#X connect 196 0 194 1;
#X connect 197 0 198 0;
#X connect 198 0 196 1;
#X connect 199 0 200 0;
#X connect 200 0 198 1;
#X connect 201 0 262 0;
#X connect 202 0 203 0;
#X connect 203 0 222 1;
#X connect 204 0 205 0;
#X connect 205 0 203 1;
#X connect 206 0 207 0;
#X connect 207 0 205 1;
#X connect 208 0 209 0;
#X connect 209 0 207 1;
#X connect 210 0 211 0;
#X connect 211 0 209 1;
#X connect 212 0 213 0;
#X connect 213 0 222 0;
#X connect 214 0 215 0;
#X connect 215 0 213 1;
#X connect 216 0 217 0;
#X connect 217 0 215 1;
#X connect 218 0 219 0;
#X connect 219 0 217 1;
#X connect 220 0 221 0;
#X connect 221 0 219 1;
#X connect 222 0 263 0;
#X connect 223 0 224 0;
#X connect 224 0 243 1;
#X connect 225 0 226 0;
#X connect 226 0 224 1;
#X connect 227 0 228 0;
#X connect 228 0 226 1;
#X connect 229 0 230 0;
#X connect 230 0 228 1;
#X connect 231 0 232 0;
#X connect 232 0 230 1;
#X connect 233 0 234 0;
#X connect 234 0 243 0;
#X connect 235 0 236 0;
#X connect 236 0 234 1;
#X connect 237 0 238 0;
#X connect 238 0 236 1;
#X connect 239 0 240 0;
#X connect 240 0 238 1;
#X connect 241 0 242 0;
#X connect 242 0 240 1;
#X connect 243 0 264 0;
#X connect 244 0 249 1;
#X connect 245 0 248 0;
#X connect 246 0 247 0;
#X connect 247 0 244 0;
#X connect 247 0 8 1;
#X connect 247 0 6 1;
#X connect 247 0 4 1;
#X connect 247 0 2 1;
#X connect 247 0 0 1;
#X connect 248 0 244 0;
#X connect 249 0 251 0;
#X connect 250 0 251 0;
#X connect 251 0 159 0;
#X connect 252 0 250 1;
#X connect 253 0 256 0;
#X connect 254 0 255 0;
#X connect 255 0 252 0;
#X connect 255 0 31 1;
#X connect 255 0 29 1;
#X connect 255 0 27 1;
#X connect 255 0 25 1;
#X connect 255 0 23 1;
#X connect 256 0 252 0;
#X connect 257 0 262 1;
#X connect 258 0 261 0;
#X connect 259 0 260 0;
#X connect 260 0 257 0;
#X connect 260 0 44 1;
#X connect 260 0 46 1;
#X connect 260 0 48 1;
#X connect 260 0 50 1;
#X connect 260 0 52 1;
#X connect 261 0 257 0;
#X connect 262 0 251 0;
#X connect 263 0 251 0;
#X connect 264 0 251 0;
#X connect 265 0 263 1;
#X connect 266 0 269 0;
#X connect 267 0 268 0;
#X connect 268 0 265 0;
#X connect 268 0 65 1;
#X connect 268 0 67 1;
#X connect 268 0 69 1;
#X connect 268 0 71 1;
#X connect 268 0 73 1;
#X connect 269 0 265 0;
#X connect 270 0 264 1;
#X connect 271 0 274 0;
#X connect 272 0 273 0;
#X connect 273 0 270 0;
#X connect 273 0 90 1;
#X connect 273 0 92 1;
#X connect 273 0 88 1;
#X connect 273 0 86 1;
#X connect 273 0 94 1;
#X connect 274 0 270 0;
