#N canvas 146 0 727 686 10;
#X obj 186 88 osc~ 23;
#X obj 187 146 *~ 23;
#X obj 187 119 +~ 23;
#X obj 186 167 osc~ 23;
#X obj 187 225 *~ 23;
#X obj 186 245 osc~ 23;
#X obj 187 303 *~ 23;
#X obj 187 276 +~ 23;
#X obj 186 324 osc~ 23;
#X obj 187 382 *~ 23;
#X obj 187 355 +~ 23;
#X obj 186 402 osc~ 23;
#X obj 187 460 *~ 23;
#X obj 187 433 +~ 23;
#X obj 186 481 osc~ 23;
#X obj 187 539 *~ 23;
#X obj 187 512 +~ 23;
#X obj 186 559 osc~ 23;
#X obj 187 617 *~ 23;
#X obj 187 590 +~ 23;
#X obj 186 638 osc~ 23;
#X obj 187 696 *~ 23;
#X obj 187 669 +~ 23;
#X obj 245 88 osc~ 23;
#X obj 246 146 *~ 23;
#X obj 246 119 +~ 23;
#X obj 245 167 osc~ 23;
#X obj 246 225 *~ 23;
#X obj 246 198 +~ 23;
#X obj 245 245 osc~ 23;
#X obj 246 303 *~ 23;
#X obj 246 276 +~ 23;
#X obj 245 324 osc~ 23;
#X obj 246 382 *~ 23;
#X obj 246 355 +~ 23;
#X obj 245 402 osc~ 23;
#X obj 246 460 *~ 23;
#X obj 246 433 +~ 23;
#X obj 245 481 osc~ 23;
#X obj 246 539 *~ 23;
#X obj 246 512 +~ 23;
#X obj 245 559 osc~ 23;
#X obj 246 617 *~ 23;
#X obj 246 590 +~ 23;
#X obj 245 638 osc~ 23;
#X obj 246 696 *~ 23;
#X obj 246 669 +~ 23;
#X obj 305 88 osc~ 23;
#X obj 306 146 *~ 23;
#X obj 306 119 +~ 23;
#X obj 305 167 osc~ 23;
#X obj 306 225 *~ 23;
#X obj 306 198 +~ 23;
#X obj 305 245 osc~ 23;
#X obj 306 303 *~ 23;
#X obj 306 276 +~ 23;
#X obj 305 324 osc~ 23;
#X obj 306 382 *~ 23;
#X obj 306 355 +~ 23;
#X obj 305 402 osc~ 23;
#X obj 306 460 *~ 23;
#X obj 306 433 +~ 23;
#X obj 305 481 osc~ 23;
#X obj 187 198 +~ 23;
#X obj 305 559 osc~ 23;
#X obj 306 539 *~ 23;
#X obj 306 512 +~ 23;
#X obj -80 88 osc~ 23;
#X obj -79 146 *~ 23;
#X obj -79 119 +~ 23;
#X obj -80 167 osc~ 23;
#X obj -79 225 *~ 23;
#X obj -80 245 osc~ 23;
#X obj -79 303 *~ 23;
#X obj -79 276 +~ 23;
#X obj -80 324 osc~ 23;
#X obj -79 382 *~ 23;
#X obj -79 355 +~ 23;
#X obj -80 402 osc~ 23;
#X obj -79 460 *~ 23;
#X obj -79 433 +~ 23;
#X obj -80 481 osc~ 23;
#X obj -79 539 *~ 23;
#X obj -79 512 +~ 23;
#X obj -80 559 osc~ 23;
#X obj -79 617 *~ 23;
#X obj -79 590 +~ 23;
#X obj -80 638 osc~ 23;
#X obj -79 696 *~ 23;
#X obj -79 669 +~ 23;
#X obj -21 88 osc~ 23;
#X obj -20 146 *~ 23;
#X obj -20 119 +~ 23;
#X obj -21 167 osc~ 23;
#X obj -20 225 *~ 23;
#X obj -20 198 +~ 23;
#X obj -21 245 osc~ 23;
#X obj -20 303 *~ 23;
#X obj -20 276 +~ 23;
#X obj -21 324 osc~ 23;
#X obj -20 382 *~ 23;
#X obj -20 355 +~ 23;
#X obj -21 402 osc~ 23;
#X obj -20 460 *~ 23;
#X obj -20 433 +~ 23;
#X obj -21 481 osc~ 23;
#X obj -20 539 *~ 23;
#X obj -20 512 +~ 23;
#X obj -21 559 osc~ 23;
#X obj -20 617 *~ 23;
#X obj -20 590 +~ 23;
#X obj -21 638 osc~ 23;
#X obj -20 696 *~ 23;
#X obj -20 669 +~ 23;
#X obj 39 88 osc~ 23;
#X obj 40 146 *~ 23;
#X obj 40 119 +~ 23;
#X obj 39 167 osc~ 23;
#X obj 40 225 *~ 23;
#X obj 40 198 +~ 23;
#X obj 39 245 osc~ 23;
#X obj 40 303 *~ 23;
#X obj 40 276 +~ 23;
#X obj 39 324 osc~ 23;
#X obj 40 382 *~ 23;
#X obj 40 355 +~ 23;
#X obj 39 402 osc~ 23;
#X obj 40 460 *~ 23;
#X obj 40 433 +~ 23;
#X obj 39 481 osc~ 23;
#X obj -79 198 +~ 23;
#X obj 39 559 osc~ 23;
#X obj 40 539 *~ 23;
#X obj 40 512 +~ 23;
#X obj 130 644 *~;
#X obj 396 644 *~;
#X obj 413 449 line~;
#X msg 413 364 0 23;
#X msg 413 404 1 23;
#X obj 145 449 line~;
#X msg 145 364 0 23;
#X msg 145 404 1 23;
#X obj 131 663 dac~ 1;
#X obj 396 663 dac~ 2;
#X obj 522 389 bng 15 250 50 0 empty empty empty 0 -6 0 8 -262144 -1
-1;
#X obj 522 349 bng 15 250 50 0 empty empty empty 0 -6 0 8 -262144 -1
-1;
#X connect 0 0 2 0;
#X connect 0 0 135 0;
#X connect 1 0 3 0;
#X connect 2 0 1 0;
#X connect 3 0 63 0;
#X connect 3 0 135 0;
#X connect 4 0 5 0;
#X connect 5 0 7 0;
#X connect 5 0 135 0;
#X connect 6 0 8 0;
#X connect 7 0 6 0;
#X connect 8 0 10 0;
#X connect 8 0 135 0;
#X connect 10 0 9 0;
#X connect 11 0 13 0;
#X connect 11 0 135 0;
#X connect 12 0 14 0;
#X connect 13 0 12 0;
#X connect 14 0 16 0;
#X connect 14 0 135 0;
#X connect 15 0 17 0;
#X connect 16 0 15 0;
#X connect 17 0 19 0;
#X connect 17 0 135 0;
#X connect 18 0 20 0;
#X connect 19 0 18 0;
#X connect 20 0 22 0;
#X connect 20 0 135 0;
#X connect 21 0 23 0;
#X connect 22 0 21 0;
#X connect 23 0 25 0;
#X connect 23 0 135 0;
#X connect 24 0 26 0;
#X connect 25 0 24 0;
#X connect 26 0 28 0;
#X connect 26 0 135 0;
#X connect 27 0 29 0;
#X connect 28 0 27 0;
#X connect 29 0 31 0;
#X connect 29 0 135 0;
#X connect 30 0 32 0;
#X connect 31 0 30 0;
#X connect 32 0 34 0;
#X connect 32 0 135 0;
#X connect 34 0 33 0;
#X connect 35 0 37 0;
#X connect 35 0 135 0;
#X connect 36 0 38 0;
#X connect 37 0 36 0;
#X connect 38 0 40 0;
#X connect 38 0 135 0;
#X connect 39 0 41 0;
#X connect 40 0 39 0;
#X connect 41 0 43 0;
#X connect 41 0 135 0;
#X connect 42 0 44 0;
#X connect 43 0 42 0;
#X connect 44 0 46 0;
#X connect 44 0 135 0;
#X connect 45 0 47 0;
#X connect 46 0 45 0;
#X connect 47 0 49 0;
#X connect 47 0 135 0;
#X connect 48 0 50 0;
#X connect 49 0 48 0;
#X connect 50 0 52 0;
#X connect 50 0 135 0;
#X connect 51 0 53 0;
#X connect 52 0 51 0;
#X connect 53 0 55 0;
#X connect 53 0 135 0;
#X connect 54 0 56 0;
#X connect 55 0 54 0;
#X connect 56 0 58 0;
#X connect 56 0 135 0;
#X connect 58 0 57 0;
#X connect 59 0 61 0;
#X connect 59 0 135 0;
#X connect 60 0 62 0;
#X connect 61 0 60 0;
#X connect 62 0 66 0;
#X connect 62 0 135 0;
#X connect 63 0 4 0;
#X connect 64 0 135 0;
#X connect 65 0 64 0;
#X connect 66 0 65 0;
#X connect 67 0 69 0;
#X connect 67 0 134 0;
#X connect 68 0 70 0;
#X connect 69 0 68 0;
#X connect 70 0 130 0;
#X connect 70 0 134 0;
#X connect 71 0 72 0;
#X connect 72 0 74 0;
#X connect 72 0 134 0;
#X connect 73 0 75 0;
#X connect 74 0 73 0;
#X connect 75 0 77 0;
#X connect 75 0 134 0;
#X connect 77 0 76 0;
#X connect 78 0 80 0;
#X connect 78 0 134 0;
#X connect 79 0 81 0;
#X connect 80 0 79 0;
#X connect 81 0 83 0;
#X connect 81 0 134 0;
#X connect 82 0 84 0;
#X connect 83 0 82 0;
#X connect 84 0 86 0;
#X connect 84 0 134 0;
#X connect 85 0 87 0;
#X connect 86 0 85 0;
#X connect 87 0 89 0;
#X connect 87 0 134 0;
#X connect 88 0 90 0;
#X connect 89 0 88 0;
#X connect 90 0 92 0;
#X connect 90 0 134 0;
#X connect 91 0 93 0;
#X connect 92 0 91 0;
#X connect 93 0 95 0;
#X connect 93 0 134 0;
#X connect 94 0 96 0;
#X connect 95 0 94 0;
#X connect 96 0 98 0;
#X connect 96 0 134 0;
#X connect 97 0 99 0;
#X connect 98 0 97 0;
#X connect 99 0 101 0;
#X connect 99 0 134 0;
#X connect 101 0 100 0;
#X connect 102 0 104 0;
#X connect 102 0 134 0;
#X connect 103 0 105 0;
#X connect 104 0 103 0;
#X connect 105 0 107 0;
#X connect 105 0 134 0;
#X connect 106 0 108 0;
#X connect 107 0 106 0;
#X connect 108 0 110 0;
#X connect 108 0 134 0;
#X connect 109 0 111 0;
#X connect 110 0 109 0;
#X connect 111 0 113 0;
#X connect 111 0 134 0;
#X connect 112 0 114 0;
#X connect 113 0 112 0;
#X connect 114 0 116 0;
#X connect 114 0 134 0;
#X connect 115 0 117 0;
#X connect 116 0 115 0;
#X connect 117 0 119 0;
#X connect 117 0 134 0;
#X connect 118 0 120 0;
#X connect 119 0 118 0;
#X connect 120 0 122 0;
#X connect 120 0 134 0;
#X connect 121 0 123 0;
#X connect 122 0 121 0;
#X connect 123 0 125 0;
#X connect 123 0 134 0;
#X connect 125 0 124 0;
#X connect 126 0 128 0;
#X connect 126 0 134 0;
#X connect 127 0 129 0;
#X connect 128 0 127 0;
#X connect 129 0 133 0;
#X connect 129 0 134 0;
#X connect 130 0 71 0;
#X connect 131 0 134 0;
#X connect 132 0 131 0;
#X connect 133 0 132 0;
#X connect 134 0 142 0;
#X connect 135 0 143 0;
#X connect 136 0 135 1;
#X connect 137 0 136 0;
#X connect 137 0 114 1;
#X connect 137 0 90 1;
#X connect 137 0 67 1;
#X connect 138 0 136 0;
#X connect 138 0 64 1;
#X connect 139 0 134 1;
#X connect 140 0 139 0;
#X connect 140 0 47 1;
#X connect 140 0 23 1;
#X connect 140 0 0 1;
#X connect 141 0 139 0;
#X connect 141 0 131 1;
#X connect 144 0 138 0;
#X connect 144 0 141 0;
#X connect 145 0 137 0;
#X connect 145 0 140 0;
