#N canvas 0 0 999 684 10;
#X msg 279 -24 0;
#X obj 161 78 osc~ 34;
#X obj 153 126 *~;
#X obj 154 105 -~;
#X floatatom 29 41 5 0 0 0 - - -;
#X obj 160 171 osc~;
#X floatatom 102 80 5 0 0 0 - - -;
#X floatatom 161 31 5 0 0 0 - - -;
#X obj 391 78 osc~ 34;
#X obj 383 126 *~;
#X obj 384 105 -~;
#X obj 390 171 osc~;
#X obj 291 109 / 2;
#X obj 291 88 / 2;
#X obj 291 60 / 2;
#X obj 161 209 *~;
#X obj 492 298 vsl 35 128 0 12 0 0 empty empty empty 0 -9 0 10 -262144
-1 -1 3598 1;
#X obj 547 300 vsl 35 128 0 6 0 0 empty empty empty 0 -9 0 10 -262144
-1 -1 4868 1;
#X obj 492 433 p50;
#X obj 547 433 fline;
#X msg 669 573 16.72;
#X msg 699 -24 0;
#X obj 581 78 osc~ 34;
#X obj 573 126 *~;
#X obj 574 105 -~;
#X floatatom 449 41 5 0 0 0 - - -;
#X obj 580 171 osc~;
#X floatatom 522 80 5 0 0 0 - - -;
#X floatatom 581 31 5 0 0 0 - - -;
#X obj 811 78 osc~ 34;
#X obj 803 126 *~;
#X obj 804 105 -~;
#X obj 810 171 osc~;
#X obj 711 109 / 2;
#X obj 711 88 / 2;
#X obj 710 61 / 2;
#X msg 1139 -24 0;
#X obj 1021 78 osc~ 34;
#X obj 1013 126 *~;
#X obj 1014 105 -~;
#X floatatom 890 44 5 0 0 0 - - -;
#X obj 1020 171 osc~;
#X floatatom 962 80 5 0 0 0 - - -;
#X floatatom 1021 31 5 0 0 0 - - -;
#X obj 1251 78 osc~ 34;
#X obj 1243 126 *~;
#X obj 1244 105 -~;
#X obj 1250 171 osc~;
#X obj 1151 109 / 2;
#X obj 1150 88 / 2;
#X obj 1149 61 / 2;
#X msg 789 573 44.26;
#X msg 729 573 30.74;
#X obj 877 600 r phase-vibr3b-all;
#X obj 547 453 fline;
#X obj 492 453 p50;
#X obj 547 473 fline;
#X obj 492 473 p50;
#X obj 890 19 r vbtep-3;
#X obj 449 19 r vbtep-2;
#X msg 34 384 2.3;
#X msg 34 354 3.4;
#X obj 29 19 r vbtep-1;
#X obj 580 207 *~;
#X obj 865 335 expr~ $v1 * $v2 * $v3;
#X obj 1020 205 *~;
#X msg 1067 514 \; phase-vibr3b-all bang;
#X obj 695 334 expr~ ($v1 + $v2 + $v3) / 3;
#X obj 1080 263 |~;
#X obj 581 234 |~;
#X obj 161 234 |~;
#X obj 694 369 outlet~;
#X obj 865 366 outlet~;
#X obj 427 416 inlet;
#X obj 607 416 inlet;
#X text 200 495 so we got only two inlets for nubers for all of indexes
and vibration frequencies .. - prefere SMALL VALUIES ONLY !! there
two outlets - one is the sum and the other's a product ..;
#X obj 669 600 s vbtep-1;
#X obj 729 600 s vbtep-2;
#X obj 789 600 s vbtep-3;
#X connect 0 0 1 1;
#X connect 0 0 5 1;
#X connect 0 0 8 1;
#X connect 0 0 11 1;
#X connect 1 0 3 0;
#X connect 2 0 5 0;
#X connect 3 0 2 1;
#X connect 4 0 2 0;
#X connect 4 0 12 0;
#X connect 5 0 15 0;
#X connect 6 0 3 1;
#X connect 6 0 13 0;
#X connect 7 0 1 0;
#X connect 7 0 14 0;
#X connect 8 0 10 0;
#X connect 9 0 11 0;
#X connect 10 0 9 1;
#X connect 11 0 15 1;
#X connect 12 0 9 0;
#X connect 13 0 10 1;
#X connect 14 0 8 0;
#X connect 15 0 64 0;
#X connect 15 0 67 0;
#X connect 15 0 70 0;
#X connect 16 0 18 0;
#X connect 17 0 19 0;
#X connect 18 0 7 0;
#X connect 18 0 55 0;
#X connect 19 0 6 0;
#X connect 19 0 54 0;
#X connect 20 0 76 0;
#X connect 21 0 22 1;
#X connect 21 0 26 1;
#X connect 21 0 29 1;
#X connect 21 0 32 1;
#X connect 22 0 24 0;
#X connect 23 0 26 0;
#X connect 24 0 23 1;
#X connect 25 0 23 0;
#X connect 25 0 33 0;
#X connect 26 0 63 0;
#X connect 27 0 24 1;
#X connect 27 0 34 0;
#X connect 28 0 22 0;
#X connect 28 0 35 0;
#X connect 29 0 31 0;
#X connect 30 0 32 0;
#X connect 31 0 30 1;
#X connect 32 0 63 1;
#X connect 33 0 30 0;
#X connect 34 0 31 1;
#X connect 35 0 29 0;
#X connect 36 0 37 1;
#X connect 36 0 41 1;
#X connect 36 0 44 1;
#X connect 36 0 47 1;
#X connect 37 0 39 0;
#X connect 38 0 41 0;
#X connect 39 0 38 1;
#X connect 40 0 38 0;
#X connect 40 0 48 0;
#X connect 41 0 65 0;
#X connect 42 0 39 1;
#X connect 42 0 49 0;
#X connect 43 0 37 0;
#X connect 43 0 50 0;
#X connect 44 0 46 0;
#X connect 45 0 47 0;
#X connect 46 0 45 1;
#X connect 47 0 65 1;
#X connect 48 0 45 0;
#X connect 49 0 46 1;
#X connect 50 0 44 0;
#X connect 51 0 78 0;
#X connect 52 0 77 0;
#X connect 53 0 0 0;
#X connect 53 0 21 0;
#X connect 53 0 36 0;
#X connect 54 0 56 0;
#X connect 54 0 27 0;
#X connect 55 0 28 0;
#X connect 55 0 57 0;
#X connect 56 0 42 0;
#X connect 57 0 43 0;
#X connect 58 0 40 0;
#X connect 59 0 25 0;
#X connect 60 0 17 0;
#X connect 61 0 16 0;
#X connect 62 0 4 0;
#X connect 63 0 64 1;
#X connect 63 0 67 1;
#X connect 63 0 69 0;
#X connect 64 0 72 0;
#X connect 65 0 64 2;
#X connect 65 0 67 2;
#X connect 65 0 68 0;
#X connect 67 0 71 0;
#X connect 73 0 18 0;
#X connect 74 0 19 0;
