#N canvas 444 140 450 300 10;
#N canvas 109 203 450 300 noise73 0;
#X obj 184 43 noise~;
#X obj 184 145 outlet~;
#X obj 209 81 inlet;
#X obj 184 104 bp~ 0 73;
#X connect 0 0 3 0;
#X connect 2 0 3 1;
#X connect 3 0 1 0;
#X restore 48 78 pd noise73;
#N canvas 36 254 450 300 noise73~ 0;
#X obj 184 43 noise~;
#X obj 184 145 outlet~;
#X obj 184 104 vcf~ 440 73;
#X obj 220 74 inlet~;
#X connect 0 0 2 0;
#X connect 2 0 1 0;
#X connect 3 0 2 1;
#X restore 145 88 pd noise73~;
#X obj 144 64 *~;
#X obj 49 140 *~ 25;
#X obj 144 161 *~ 50;
#X obj 48 47 inlet;
#X obj 143 21 inlet~;
#X obj 272 123 inlet;
#X obj 174 140 inlet;
#X obj 49 183 outlet~;
#X obj -13 177 outlet~;
#X connect 0 0 3 0;
#X connect 1 0 4 0;
#X connect 2 0 1 0;
#X connect 3 0 9 0;
#X connect 4 0 10 0;
#X connect 5 0 0 0;
#X connect 5 0 2 1;
#X connect 6 0 2 0;
#X connect 7 0 3 1;
#X connect 8 0 4 1;
