#N canvas 345 290 450 300 10;
#N canvas 109 203 450 300 noise73 0;
#X obj 184 43 noise~;
#X obj 184 145 outlet~;
#X obj 216 80 inlet;
#X obj 184 104 bp~ 440 73;
#X connect 0 0 3 0;
#X connect 2 0 3 1;
#X connect 3 0 1 0;
#X restore 183 125 pd noise73;
#X obj 182 229 dac~;
#X floatatom 183 92 5 0 0 0 - - -;
#N canvas 36 254 450 300 noise73~ 0;
#X obj 184 43 noise~;
#X obj 184 145 outlet~;
#X obj 184 104 vcf~ 440 73;
#X obj 220 74 inlet~;
#X connect 0 0 2 0;
#X connect 2 0 1 0;
#X connect 3 0 2 1;
#X restore 279 135 pd noise73~;
#X floatatom 277 46 5 0 0 0 - - -;
#X obj 277 68 osc~;
#X obj 278 111 *~;
#X floatatom 294 90 5 0 0 0 - - -;
#X floatatom 308 163 5 0 0 0 - - -;
#X floatatom 213 167 5 0 0 0 - - -;
#X obj 183 187 *~ 25;
#X obj 278 188 *~ 50;
#X text -7 -4 so here the first inlet takes the frequency at which
to bandpass white noise \, the and the second inlet will take a signal
to move about .. then the two more will take the amplitudes for the
respective outlets ..;
#X connect 0 0 10 0;
#X connect 2 0 0 0;
#X connect 3 0 11 0;
#X connect 4 0 5 0;
#X connect 5 0 6 0;
#X connect 6 0 3 0;
#X connect 7 0 6 1;
#X connect 7 0 2 0;
#X connect 8 0 11 1;
#X connect 9 0 10 1;
#X connect 10 0 1 0;
#X connect 10 0 1 1;
#X connect 11 0 1 0;
