#N canvas 10 30 999 684 10;
#X obj 367 218 osc~;
#X obj 457 283 -~;
#X obj 367 147 * 1;
#X floatatom 367 123 5 0 0 0 - - -;
#X obj 407 218 osc~;
#X obj 457 218 osc~;
#X obj 456 322 -~;
#X obj 567 218 osc~;
#X obj 657 283 -~;
#X obj 607 218 osc~;
#X obj 657 218 osc~;
#X obj 656 322 -~;
#X obj 457 137 * 5;
#X obj 407 137 * 3;
#X obj 500 330 +~;
#X floatatom 516 251 5 0 0 0 - - -;
#X obj 567 137 *~ 2;
#X obj 607 137 *~ 4;
#X obj 657 147 *~ 1;
#X obj 245 164 mtof;
#X obj 245 17 vsl 15 128 0 127 0 0 empty empty empty 0 -9 0 10 -262144
-1 -1 0 1;
#X obj 516 164 mtof;
#X obj 516 17 vsl 15 128 0 127 0 0 empty empty empty 0 -9 0 10 -262144
-1 -1 4281 1;
#X obj 516 211 p50;
#X obj 367 499 osc~;
#X obj 407 499 osc~;
#X obj 457 499 osc~;
#X obj 367 428 * 2;
#X obj 407 428 * 4;
#X obj 457 564 +~;
#X obj 456 603 +~;
#X obj 457 428 * 16;
#X obj 573 479 min~;
#X obj 887 218 osc~;
#X obj 977 283 -~;
#X obj 887 147 * 1;
#X floatatom 887 123 5 0 0 0 - - -;
#X obj 927 218 osc~;
#X obj 977 218 osc~;
#X obj 976 322 -~;
#X obj 1087 218 osc~;
#X obj 1177 283 -~;
#X obj 1127 218 osc~;
#X obj 1177 218 osc~;
#X obj 1176 322 -~;
#X obj 977 147 * 5;
#X obj 927 147 * 3;
#X obj 1020 330 +~;
#X floatatom 1036 251 5 0 0 0 - - -;
#X obj 1087 147 *~ 2;
#X obj 1127 147 *~ 4;
#X obj 1177 147 *~ 1;
#X obj 887 499 osc~;
#X obj 927 499 osc~;
#X obj 977 499 osc~;
#X obj 887 428 * 2;
#X obj 927 428 * 4;
#X obj 977 564 +~;
#X obj 976 603 +~;
#X obj 977 428 * 16;
#X obj 1093 479 min~;
#X obj 1437 218 osc~;
#X obj 1527 283 -~;
#X obj 1437 147 * 1;
#X floatatom 1437 123 5 0 0 0 - - -;
#X obj 1477 218 osc~;
#X obj 1527 218 osc~;
#X obj 1526 322 -~;
#X obj 1637 218 osc~;
#X obj 1727 283 -~;
#X obj 1677 218 osc~;
#X obj 1727 218 osc~;
#X obj 1726 322 -~;
#X obj 1527 147 * 5;
#X obj 1477 147 * 3;
#X obj 1570 330 +~;
#X floatatom 1586 251 5 0 0 0 - - -;
#X obj 1637 147 *~ 2;
#X obj 1677 147 *~ 4;
#X obj 1727 147 *~ 1;
#X obj 1586 211 p50;
#X obj 1437 499 osc~;
#X obj 1477 499 osc~;
#X obj 1527 499 osc~;
#X obj 1437 428 * 2;
#X obj 1477 428 * 4;
#X obj 1527 564 +~;
#X obj 1526 603 +~;
#X obj 1527 428 * 16;
#X obj 1643 479 min~;
#X obj 1957 218 osc~;
#X obj 2047 283 -~;
#X obj 1957 147 * 1;
#X floatatom 1957 123 5 0 0 0 - - -;
#X obj 1997 218 osc~;
#X obj 2047 218 osc~;
#X obj 2046 322 -~;
#X obj 2157 218 osc~;
#X obj 2247 283 -~;
#X obj 2197 218 osc~;
#X obj 2247 218 osc~;
#X obj 2246 322 -~;
#X obj 2047 147 * 5;
#X obj 1997 147 * 3;
#X obj 2090 330 +~;
#X floatatom 2106 251 5 0 0 0 - - -;
#X obj 2157 147 *~ 2;
#X obj 2197 147 *~ 4;
#X obj 2247 147 *~ 1;
#X obj 2106 211 p50;
#X obj 1957 499 osc~;
#X obj 1997 499 osc~;
#X obj 2047 499 osc~;
#X obj 1957 428 * 2;
#X obj 1997 428 * 4;
#X obj 2047 564 +~;
#X obj 2046 603 +~;
#X obj 2047 428 * 16;
#X obj 2163 479 min~;
#X obj 887 -13 * 2;
#X obj 1437 -13 * 3;
#X obj 1957 -13 * 4;
#X obj 1437 97 p50;
#X obj 887 97 p50;
#X obj 245 147 p50;
#X obj 1957 97 p50;
#X obj 256 -19 /;
#X floatatom 272 -38 5 0 0 0 - - -;
#X floatatom 256 -57 5 0 0 0 - - -;
#X obj 321 -2 numoscil;
#X obj 331 -66 tgl 15 0 empty empty empty 17 7 0 10 -262144 -1 -1 1
1;
#X floatatom 351 -75 5 0 128 0 - - -;
#X floatatom 361 -61 5 0 128 0 - - -;
#X obj 331 -20 tgl 15 0 empty empty empty 17 7 0 10 -262144 -1 -1 1
1;
#X msg 272 -74 bang;
#X obj 1036 211 p50;
#X obj 321 -43 numoscil;
#X msg 476 -57 \; phase-numoscil 0;
#X obj 566 338 outlet~;
#X obj 655 495 outlet~;
#X obj 292 55 inlet;
#X obj 517 -143 inlet;
#X obj 567 -143 inlet;
#X obj 617 -143 inlet;
#X obj 667 -143 inlet;
#X obj 696 -74 inlet;
#X connect 0 0 6 1;
#X connect 1 0 6 0;
#X connect 2 0 0 0;
#X connect 3 0 2 0;
#X connect 3 0 12 0;
#X connect 3 0 13 0;
#X connect 3 0 119 0;
#X connect 3 0 120 0;
#X connect 3 0 121 0;
#X connect 4 0 1 1;
#X connect 5 0 1 0;
#X connect 6 0 14 0;
#X connect 6 0 32 1;
#X connect 7 0 11 1;
#X connect 8 0 11 0;
#X connect 9 0 8 1;
#X connect 10 0 8 0;
#X connect 11 0 138 0;
#X connect 11 0 139 0;
#X connect 12 0 5 0;
#X connect 13 0 4 0;
#X connect 14 0 16 0;
#X connect 14 0 17 0;
#X connect 14 0 18 0;
#X connect 15 0 14 1;
#X connect 16 0 7 0;
#X connect 17 0 9 0;
#X connect 18 0 10 0;
#X connect 19 0 27 0;
#X connect 19 0 28 0;
#X connect 19 0 31 0;
#X connect 19 0 3 0;
#X connect 20 0 124 0;
#X connect 21 0 23 0;
#X connect 22 0 21 0;
#X connect 23 0 15 0;
#X connect 23 0 135 0;
#X connect 24 0 30 1;
#X connect 25 0 29 1;
#X connect 26 0 29 0;
#X connect 27 0 24 0;
#X connect 28 0 25 0;
#X connect 29 0 30 0;
#X connect 30 0 32 0;
#X connect 31 0 26 0;
#X connect 32 0 139 0;
#X connect 33 0 39 1;
#X connect 34 0 39 0;
#X connect 35 0 33 0;
#X connect 36 0 35 0;
#X connect 36 0 45 0;
#X connect 36 0 46 0;
#X connect 36 0 59 0;
#X connect 36 0 56 0;
#X connect 36 0 55 0;
#X connect 37 0 34 1;
#X connect 38 0 34 0;
#X connect 39 0 47 0;
#X connect 39 0 60 1;
#X connect 40 0 44 1;
#X connect 41 0 44 0;
#X connect 42 0 41 1;
#X connect 43 0 41 0;
#X connect 44 0 139 0;
#X connect 44 0 138 0;
#X connect 45 0 38 0;
#X connect 46 0 37 0;
#X connect 47 0 49 0;
#X connect 47 0 50 0;
#X connect 47 0 51 0;
#X connect 48 0 47 1;
#X connect 49 0 40 0;
#X connect 50 0 42 0;
#X connect 51 0 43 0;
#X connect 52 0 58 1;
#X connect 53 0 57 1;
#X connect 54 0 57 0;
#X connect 55 0 52 0;
#X connect 56 0 53 0;
#X connect 57 0 58 0;
#X connect 58 0 60 0;
#X connect 59 0 54 0;
#X connect 60 0 138 0;
#X connect 61 0 67 1;
#X connect 62 0 67 0;
#X connect 63 0 61 0;
#X connect 64 0 63 0;
#X connect 64 0 73 0;
#X connect 64 0 74 0;
#X connect 64 0 88 0;
#X connect 64 0 85 0;
#X connect 64 0 84 0;
#X connect 65 0 62 1;
#X connect 66 0 62 0;
#X connect 67 0 75 0;
#X connect 67 0 89 1;
#X connect 68 0 72 1;
#X connect 69 0 72 0;
#X connect 70 0 69 1;
#X connect 71 0 69 0;
#X connect 72 0 139 0;
#X connect 72 0 138 0;
#X connect 73 0 66 0;
#X connect 74 0 65 0;
#X connect 75 0 77 0;
#X connect 75 0 78 0;
#X connect 75 0 79 0;
#X connect 76 0 75 1;
#X connect 77 0 68 0;
#X connect 78 0 70 0;
#X connect 79 0 71 0;
#X connect 80 0 76 0;
#X connect 80 0 109 0;
#X connect 81 0 87 1;
#X connect 82 0 86 1;
#X connect 83 0 86 0;
#X connect 84 0 81 0;
#X connect 85 0 82 0;
#X connect 86 0 87 0;
#X connect 87 0 89 0;
#X connect 88 0 83 0;
#X connect 89 0 139 0;
#X connect 90 0 96 1;
#X connect 91 0 96 0;
#X connect 92 0 90 0;
#X connect 93 0 92 0;
#X connect 93 0 102 0;
#X connect 93 0 103 0;
#X connect 93 0 117 0;
#X connect 93 0 114 0;
#X connect 93 0 113 0;
#X connect 94 0 91 1;
#X connect 95 0 91 0;
#X connect 96 0 104 0;
#X connect 96 0 118 1;
#X connect 97 0 101 1;
#X connect 98 0 101 0;
#X connect 99 0 98 1;
#X connect 100 0 98 0;
#X connect 101 0 139 0;
#X connect 101 0 138 0;
#X connect 102 0 95 0;
#X connect 103 0 94 0;
#X connect 104 0 106 0;
#X connect 104 0 107 0;
#X connect 104 0 108 0;
#X connect 105 0 104 1;
#X connect 106 0 97 0;
#X connect 107 0 99 0;
#X connect 108 0 100 0;
#X connect 109 0 105 0;
#X connect 110 0 116 1;
#X connect 111 0 115 1;
#X connect 112 0 115 0;
#X connect 113 0 110 0;
#X connect 114 0 111 0;
#X connect 115 0 116 0;
#X connect 116 0 118 0;
#X connect 117 0 112 0;
#X connect 118 0 138 0;
#X connect 119 0 123 0;
#X connect 120 0 122 0;
#X connect 121 0 125 0;
#X connect 122 0 64 0;
#X connect 123 0 36 0;
#X connect 124 0 19 0;
#X connect 125 0 93 0;
#X connect 126 0 129 0;
#X connect 127 0 126 1;
#X connect 127 0 134 0;
#X connect 128 0 126 0;
#X connect 128 0 136 0;
#X connect 129 0 20 0;
#X connect 130 0 136 2;
#X connect 131 0 129 3;
#X connect 131 0 136 3;
#X connect 132 0 129 4;
#X connect 132 0 136 4;
#X connect 133 0 129 2;
#X connect 134 0 128 0;
#X connect 135 0 48 0;
#X connect 135 0 80 0;
#X connect 136 0 22 0;
#X connect 140 0 130 0;
#X connect 140 0 133 0;
#X connect 140 0 137 0;
#X connect 141 0 128 0;
#X connect 142 0 127 0;
#X connect 143 0 131 0;
#X connect 144 0 132 0;
#X connect 145 0 137 0;
