#N canvas 288 152 761 602 10;
#X obj 48 6 adc~ 7 8;
#X obj 115 250 clump~;
#X obj 134 90 clump~;
#X obj 151 62 sig~;
#X floatatom 151 34 5 0 0 0 - - -;
#X obj 184 63 / 1.1;
#X obj 245 260 clump~;
#X obj 152 116 vsl 15 128 0 1.1 0 0 empty empty empty 0 -9 0 10 -262144
-1 -1 7000 1;
#X obj 282 125 vsl 15 128 0 1.1 0 0 empty empty empty 0 -9 0 10 -262144
-1 -1 8700 1;
#X obj 116 276 +~;
#X obj 380 525 dac~ 3 4;
#X obj 116 309 clip~ -1 1;
#X obj 345 250 clump~;
#X obj 364 90 clump~;
#X obj 381 62 sig~;
#X floatatom 381 34 5 0 0 0 - - -;
#X obj 475 260 clump~;
#X obj 382 116 vsl 15 128 0 1.1 0 0 empty empty empty 0 -9 0 10 -262144
-1 -1 2800 1;
#X obj 512 125 vsl 15 128 0 1.1 0 0 empty empty empty 0 -9 0 10 -262144
-1 -1 6900 1;
#X obj 346 276 +~;
#X obj 253 340 clip~ -1 1;
#X obj 414 63 / 0.1;
#X obj 236 361 +~;
#X obj 379 433 clump~;
#X obj 397 411 sig~;
#X obj 432 302 vsl 15 128 0 1.1 0 0 empty empty empty 0 -9 0 10 -262144
-1 -1 12700 1;
#X obj 369 370 * 303;
#X floatatom 369 344 5 0 0 0 - - -;
#X msg 369 317 -7;
#X obj 380 490 /~ 4;
#X obj 584 414 mafon~;
#X connect 0 0 2 0;
#X connect 0 0 1 0;
#X connect 0 0 6 0;
#X connect 0 0 13 0;
#X connect 1 0 9 0;
#X connect 1 0 12 0;
#X connect 2 0 1 1;
#X connect 2 0 6 1;
#X connect 3 0 2 1;
#X connect 4 0 3 0;
#X connect 4 0 5 0;
#X connect 4 0 30 0;
#X connect 5 0 2 2;
#X connect 6 0 9 1;
#X connect 6 0 16 0;
#X connect 7 0 1 2;
#X connect 8 0 6 2;
#X connect 9 0 11 0;
#X connect 9 0 30 1;
#X connect 11 0 22 0;
#X connect 12 0 19 0;
#X connect 13 0 12 1;
#X connect 13 0 16 1;
#X connect 14 0 13 1;
#X connect 15 0 14 0;
#X connect 15 0 21 0;
#X connect 15 0 30 2;
#X connect 16 0 19 1;
#X connect 17 0 12 2;
#X connect 18 0 16 2;
#X connect 19 0 20 0;
#X connect 19 0 30 3;
#X connect 20 0 22 1;
#X connect 21 0 13 2;
#X connect 22 0 23 0;
#X connect 23 0 29 0;
#X connect 24 0 23 1;
#X connect 25 0 23 2;
#X connect 26 0 24 0;
#X connect 27 0 26 0;
#X connect 28 0 27 0;
#X connect 29 0 10 0;
#X connect 30 0 10 0;
#X connect 30 1 10 0;
