#N canvas -292 402 999 684 10;
#X floatatom 510 234 5 0 0 0 - - -;
#N canvas 0 471 938 532 rounded-phasor 0;
#X obj 256 9 inlet~;
#X obj 299 79 phasor~;
#X obj 282 43 /~ -10;
#X obj 368 124 /~ -1.5;
#X obj 240 155 clip~ -0.4 1;
#X obj 45 232 clip~ -0.1 0;
#X obj 308 236 +~;
#X obj 101 202 /~ 1.8;
#X obj 146 301 clip~ -0.8 0.8;
#X obj 395 398 /~ 2.1;
#X obj 382 433 -~ -0.4;
#X obj 316 426 outlet~;
#X obj 679 217 r zbj0-phase0;
#X connect 0 0 2 0;
#X connect 1 0 3 0;
#X connect 2 0 1 0;
#X connect 3 0 4 0;
#X connect 3 0 6 1;
#X connect 4 0 6 0;
#X connect 5 0 8 0;
#X connect 6 0 7 0;
#X connect 6 0 8 0;
#X connect 6 0 9 0;
#X connect 7 0 5 0;
#X connect 7 0 8 0;
#X connect 8 0 9 0;
#X connect 9 0 10 0;
#X connect 10 0 11 0;
#X connect 12 0 1 1;
#X restore 491 331 pd rounded-phasor;
#X obj 510 257 sig~;
#X obj 228 345 osc~;
#X obj 234 291 *~;
#X obj 234 261 +~;
#X floatatom 161 247 5 0 0 0 - - -;
#X floatatom 161 277 5 0 0 0 - - -;
#X obj 138 459 -~;
#X obj 178 459 +~;
#X floatatom 333 471 5 0 0 0 - - -;
#X obj 163 498 expr~ $v1 * ( $f2 / 100 );
#X obj 63 582 /~ 1.1;
#X obj 213 638 clip~ -0.7 0.7;
#X floatatom 306 601 5 0 10 0 - - -;
#X obj 259 615 / -1;
#X obj 269 553 != 0;
#X obj 139 492 *~;
#X msg 852 604 30.68;
#X msg 852 624 813;
#X msg 852 644 148;
#X msg 852 664 715;
#X msg 852 684 2;
#X msg 814 533 bang;
#X obj 814 303 loadbang;
#X obj 213 679 outlet~;
#X obj 510 191 inlet;
#X obj 679 217 r zbj0-phase0;
#X obj 572 369 inlet;
#X connect 0 0 2 0;
#X connect 1 0 5 0;
#X connect 1 0 8 1;
#X connect 1 0 9 1;
#X connect 2 0 1 0;
#X connect 3 0 8 0;
#X connect 3 0 9 0;
#X connect 4 0 3 0;
#X connect 5 0 4 1;
#X connect 6 0 5 1;
#X connect 7 0 4 0;
#X connect 8 0 11 0;
#X connect 8 0 17 0;
#X connect 9 0 11 0;
#X connect 10 0 11 1;
#X connect 10 0 16 0;
#X connect 11 0 12 0;
#X connect 12 0 13 0;
#X connect 13 0 25 0;
#X connect 14 0 15 0;
#X connect 14 0 13 2;
#X connect 15 0 13 1;
#X connect 16 0 17 1;
#X connect 17 0 12 0;
#X connect 18 0 0 0;
#X connect 19 0 7 0;
#X connect 20 0 6 0;
#X connect 21 0 10 0;
#X connect 22 0 14 0;
#X connect 23 0 18 0;
#X connect 23 0 19 0;
#X connect 23 0 20 0;
#X connect 23 0 21 0;
#X connect 23 0 22 0;
#X connect 24 0 23 0;
#X connect 26 0 0 0;
#X connect 27 0 3 1;
#X connect 28 0 10 0;
