#N canvas 420 90 450 300 10;
#X obj 279 81 (~);
#X obj 279 32 inlet;
#X obj 263 155 outlet~;
#X obj 177 117 inlet~;
#X obj 263 133 -~;
#X connect 0 0 4 1;
#X connect 1 0 0 0;
#X connect 3 0 4 0;
#X connect 4 0 2 0;
