#N canvas 358 416 884 518 10;
#X obj 112 288 *~;
#X obj 112 314 +~;
#X obj 49 340 cos~;
#X obj 49 367 *~;
#X obj 49 396 +~;
#X obj 217 247 wrap~;
#X obj 281 263 *~;
#X obj 281 314 +~;
#X obj 218 350 cos~;
#X obj 218 380 *~;
#X obj 217 220 +~ 0.5;
#X obj 49 288 -~ 0.5;
#X obj 49 314 *~ 0.5;
#X obj 218 289 -~ 0.5;
#X obj 218 322 *~ 0.5;
#X obj 49 204 phasor~;
#X obj 267 69 max~ 1;
#X obj 267 49 inlet~ window;
#X obj 49 73 inlet~ speed;
#X obj 49 116 -~ 1;
#X obj 49 142 *~ -1;
#X obj 49 179 /~;
#X obj 122 163 *~ 0.001;
#X obj 49 418 outlet~;
#X obj 9 5 inlet~;
#X obj 408 298 inlet~ delay;
#X obj 281 364 vd~ \$0-d0;
#X obj 113 351 vd~ \$0-d0;
#X obj 9 36 delwrite~ \$0-d0 10000;
#X connect 0 0 1 0;
#X connect 1 0 27 0;
#X connect 2 0 3 0;
#X connect 3 0 4 0;
#X connect 4 0 23 0;
#X connect 5 0 6 0;
#X connect 5 0 13 0;
#X connect 6 0 7 0;
#X connect 7 0 26 0;
#X connect 8 0 9 0;
#X connect 9 0 4 1;
#X connect 10 0 5 0;
#X connect 11 0 12 0;
#X connect 12 0 2 0;
#X connect 13 0 14 0;
#X connect 14 0 8 0;
#X connect 15 0 0 0;
#X connect 15 0 11 0;
#X connect 15 0 10 0;
#X connect 16 0 22 0;
#X connect 16 0 0 1;
#X connect 16 0 6 1;
#X connect 17 0 16 0;
#X connect 18 0 19 0;
#X connect 19 0 20 0;
#X connect 20 0 21 0;
#X connect 21 0 15 0;
#X connect 22 0 21 1;
#X connect 24 0 28 0;
#X connect 25 0 1 1;
#X connect 25 0 7 1;
#X connect 26 0 9 1;
#X connect 27 0 3 1;
