#N canvas 53 277 1136 713 10;
#X obj 313 -82 osc~;
#X obj 312 -29 expr~ ( tanh ( $v1 * $v2 ) );
#X obj 247 184 *~;
#X obj 217 184 *~;
#X obj 232 65 expr~ ( $v1 * tanh ( $v2 ) + tanh ( 1 ) ) / 2;
#X obj 263 95 expr~ ( $v1 * tanh ( $v2 ) - tanh ( 1 ) ) / 2;
#X obj 820 269 expr~ ( $v2 * tanh ( $v3 ) + $v1 ) / 2;
#X obj 910 439 expr~ ( $v2 * tanh ( $v3 ) + $v1 ) / 2;
#X obj 1136 -9 inlet~ lconst;
#X obj 1045 -9 inlet~ rconst;
#X obj 727 -45 inlet~ shape;
#X obj 313 -124 inlet~ freq;
#X obj 857 -25 inlet~ lbound;
#X obj 947 -25 inlet~ rbound;
#X obj 94 -131 inlet~;
#X obj 910 461 outlet~;
#X obj 820 291 outlet~;
#X obj 313 -102 expr~ ( 1 / $v1 );
#X obj 144 -131 inlet~;
#X connect 0 0 1 0;
#X connect 1 0 4 0;
#X connect 1 0 5 0;
#X connect 2 0 6 0;
#X connect 3 0 7 0;
#X connect 4 0 3 1;
#X connect 5 0 2 1;
#X connect 6 0 16 0;
#X connect 7 0 15 0;
#X connect 8 0 7 2;
#X connect 9 0 6 2;
#X connect 10 0 1 1;
#X connect 11 0 17 0;
#X connect 12 0 4 1;
#X connect 13 0 5 1;
#X connect 14 0 3 0;
#X connect 17 0 0 0;
#X connect 18 0 2 0;
