#N canvas 0 50 1280 970 10;
#X obj 210 169 osc~;
#X obj 210 235 osc~;
#X obj 615 333 osc~;
#X obj 250 169 osc~;
#X obj 250 235 osc~;
#X obj 290 169 osc~;
#X obj 290 235 osc~;
#X obj 330 169 osc~;
#X obj 330 235 osc~;
#X obj 370 169 osc~;
#X obj 370 235 osc~;
#X obj 725 333 osc~;
#X obj 855 333 osc~;
#X obj 975 333 osc~;
#X obj 1085 334 osc~;
#X obj 975 293 *~;
#X obj 1085 294 *~;
#X obj 725 293 *~;
#X obj 370 142 *~;
#X obj 330 142 *~;
#X obj 290 142 *~;
#X obj 250 142 *~;
#X obj 855 293 *~;
#X obj 565 397 all-pass~;
#X obj 675 397 all-pass~;
#X obj 805 397 all-pass~;
#X obj 925 397 all-pass~;
#X obj 1035 397 all-pass~;
#X obj 87 55 inlet~ freq_base;
#X obj 1054 13 inlet~ mod_coef;
#X obj 614 207 inlet~ mod_freq;
#X obj 256 694 outlet~;
#X obj 210 191 *~;
#X obj 250 191 *~;
#X obj 210 213 +~;
#X obj 250 213 +~;
#X obj 290 213 +~;
#X obj 330 213 +~;
#X obj 370 213 +~;
#X obj 290 192 *~;
#X obj 330 191 *~;
#X obj 370 191 *~;
#X obj 371 45 inlet~ a;
#X obj 475 43 inlet~ b;
#X connect 0 0 32 0;
#X connect 1 0 23 0;
#X connect 1 0 31 0;
#X connect 2 0 23 1;
#X connect 3 0 33 0;
#X connect 4 0 24 0;
#X connect 5 0 39 0;
#X connect 6 0 25 0;
#X connect 7 0 40 0;
#X connect 8 0 26 0;
#X connect 9 0 41 0;
#X connect 10 0 27 0;
#X connect 11 0 24 1;
#X connect 12 0 25 1;
#X connect 13 0 26 1;
#X connect 14 0 27 1;
#X connect 15 0 16 0;
#X connect 15 0 13 0;
#X connect 16 0 14 0;
#X connect 17 0 22 0;
#X connect 17 0 11 0;
#X connect 18 0 9 0;
#X connect 19 0 7 0;
#X connect 19 0 18 0;
#X connect 20 0 5 0;
#X connect 20 0 19 0;
#X connect 21 0 3 0;
#X connect 21 0 20 0;
#X connect 22 0 15 0;
#X connect 22 0 12 0;
#X connect 23 0 31 0;
#X connect 24 0 31 0;
#X connect 25 0 31 0;
#X connect 26 0 31 0;
#X connect 27 0 31 0;
#X connect 28 0 0 0;
#X connect 28 0 21 0;
#X connect 29 0 21 1;
#X connect 29 0 20 1;
#X connect 29 0 19 1;
#X connect 29 0 18 1;
#X connect 29 0 17 1;
#X connect 29 0 22 1;
#X connect 29 0 15 1;
#X connect 29 0 16 1;
#X connect 30 0 2 0;
#X connect 30 0 17 0;
#X connect 32 0 34 0;
#X connect 33 0 35 0;
#X connect 34 0 1 0;
#X connect 35 0 4 0;
#X connect 36 0 6 0;
#X connect 37 0 8 0;
#X connect 38 0 10 0;
#X connect 39 0 36 0;
#X connect 40 0 37 0;
#X connect 41 0 38 0;
#X connect 42 0 32 1;
#X connect 42 0 33 1;
#X connect 42 0 39 1;
#X connect 42 0 40 1;
#X connect 42 0 41 1;
#X connect 43 0 34 1;
#X connect 43 0 35 1;
#X connect 43 0 36 1;
#X connect 43 0 37 1;
#X connect 43 0 38 1;
