#N canvas 15 185 1039 685 10;
#X obj 331 229 triag-x-tanh~;
#X obj 331 119 triag-x-tanh~;
#X obj 521 119 triag-x-tanh~;
#X obj 521 229 triag-x-tanh~;
#X floatatom 211 84 5 0 0 0 - - -;
#X obj 211 103 (~);
#X floatatom 357 59 5 0 0 0 - - -;
#X obj 357 78 (~);
#X floatatom 547 59 5 0 0 0 - - -;
#X obj 547 78 (~);
#X floatatom 407 59 5 0 0 0 - - -;
#X obj 407 78 (~);
#X floatatom 597 59 5 0 0 0 - - -;
#X obj 597 78 (~);
#X floatatom 357 179 5 0 0 0 - - -;
#X obj 357 198 (~);
#X floatatom 547 179 5 0 0 0 - - -;
#X obj 547 198 (~);
#X floatatom 407 179 5 0 0 0 - - -;
#X obj 407 198 (~);
#X floatatom 597 179 5 0 0 0 - - -;
#X obj 597 198 (~);
#X obj 361 419 osc~;
#X obj 331 281 *~;
#X obj 331 303 +~;
#X obj 521 281 *~;
#X obj 521 303 +~;
#X floatatom 931 245 5 0 0 0 - - -;
#X obj 931 264 (~);
#X floatatom 971 268 5 0 0 0 - - -;
#X obj 972 287 (~);
#X obj 521 423 osc~;
#X obj 361 439 *~;
#X obj 361 461 dac~ 1;
#X obj 521 141 *~;
#X obj 331 141 *~;
#X floatatom 157 106 5 0 0 0 - - -;
#X obj 157 125 (~);
#X connect 0 0 23 0;
#X connect 1 0 35 0;
#X connect 2 0 34 0;
#X connect 3 0 25 0;
#X connect 4 0 5 0;
#X connect 5 0 1 0;
#X connect 5 0 2 0;
#X connect 6 0 7 0;
#X connect 7 0 1 1;
#X connect 8 0 9 0;
#X connect 9 0 2 1;
#X connect 10 0 11 0;
#X connect 11 0 1 2;
#X connect 12 0 13 0;
#X connect 13 0 2 2;
#X connect 14 0 15 0;
#X connect 15 0 0 1;
#X connect 16 0 17 0;
#X connect 17 0 3 1;
#X connect 18 0 19 0;
#X connect 19 0 0 2;
#X connect 20 0 21 0;
#X connect 21 0 3 2;
#X connect 22 0 32 0;
#X connect 23 0 24 0;
#X connect 24 0 22 0;
#X connect 25 0 26 0;
#X connect 26 0 31 0;
#X connect 27 0 28 0;
#X connect 28 0 23 1;
#X connect 28 0 25 1;
#X connect 29 0 30 0;
#X connect 30 0 24 1;
#X connect 30 0 26 1;
#X connect 31 0 32 1;
#X connect 32 0 33 0;
#X connect 34 0 3 0;
#X connect 35 0 0 0;
#X connect 36 0 37 0;
#X connect 37 0 35 1;
#X connect 37 0 34 1;
