#N canvas 229 404 1038 592 10;
#X obj 68 122 phasor~;
#X obj 129 138 *~ -1;
#X obj 129 163 +~ 1;
#X obj 68 179 min~;
#X obj 68 231 outlet~;
#X obj 68 101 inlet~;
#X obj 68 201 *~ 2;
#X connect 0 0 1 0;
#X connect 0 0 3 0;
#X connect 1 0 2 0;
#X connect 2 0 3 1;
#X connect 3 0 6 0;
#X connect 5 0 0 0;
#X connect 6 0 4 0;
