#N canvas 95 590 880 384 10;
#X obj 19 95 phasor~;
#X obj 72 136 +~ 1;
#X obj 72 111 *~ -1;
#X obj 20 176 min~;
#X obj 72 160 *~;
#X obj 20 159 *~;
#X obj 20 39 inlet~;
#X obj 36 69 inlet~;
#X obj 86 69 inlet~;
#X obj 20 218 outlet~;
#X obj 20 198 *~ 2;
#X connect 0 0 2 0;
#X connect 0 0 5 0;
#X connect 1 0 4 0;
#X connect 2 0 1 0;
#X connect 3 0 10 0;
#X connect 4 0 3 1;
#X connect 5 0 3 0;
#X connect 6 0 0 0;
#X connect 7 0 5 1;
#X connect 8 0 4 1;
#X connect 10 0 9 0;
