#N canvas 26 103 360 254 10;
#X obj 30 136 triag-x-tanh~;
#X floatatom 30 31 5 0 0 0 - - -;
#X obj 30 50 (~);
#X floatatom 130 31 5 0 0 0 - - -;
#X obj 130 50 (~);
#X floatatom 170 31 5 0 0 0 - - -;
#X obj 170 50 (~);
#X obj 31 176 dac~ 1;
#X connect 0 0 7 0;
#X connect 1 0 2 0;
#X connect 2 0 0 0;
#X connect 3 0 4 0;
#X connect 4 0 0 1;
#X connect 5 0 6 0;
#X connect 6 0 0 2;
